<svg width="31" height="39" viewBox="0 0 31 39" fill="none" xmlns="http://www.w3.org/2000/svg">
<path d="M9.47055 5.44476H8.42188V6.49344H9.47055V5.44476Z" fill="#34552A"/>
<path d="M5.27524 30.6066H4.22656V31.6553H5.27524V30.6066Z" fill="#A7D858"/>
<path d="M4.22837 20.123H3.17969V21.1706H4.22837V20.123Z" fill="#A7D858"/>
<path d="M3.1726 23.268H2.125V24.3167H3.1726V23.268Z" fill="#A7D858"/>
<path d="M8.41479 8.58972H7.36719V9.6384H8.41479V8.58972Z" fill="#A7D858"/>
<path d="M6.32212 15.9294H5.27344V16.977H6.32212V15.9294Z" fill="#A7D858"/>
<path d="M30.4393 29.559H29.3906V30.6066H30.4393V29.559Z" fill="#231F20"/>
<path d="M30.4393 28.5103H29.3906V29.559H30.4393V28.5103Z" fill="#231F20"/>
<path d="M30.4393 27.4617H29.3906V28.5103H30.4393V27.4617Z" fill="#231F20"/>
<path d="M30.4393 26.413H29.3906V27.4616H30.4393V26.413Z" fill="#231F20"/>
<path d="M30.4393 25.3654H29.3906V26.413H30.4393V25.3654Z" fill="#231F20"/>
<path d="M30.4393 24.3167H29.3906V25.3654H30.4393V24.3167Z" fill="#231F20"/>
<path d="M30.4393 23.268H29.3906V24.3167H30.4393V23.268Z" fill="#231F20"/>
<path d="M30.4393 22.2194H29.3906V23.268H30.4393V22.2194Z" fill="#231F20"/>
<path d="M29.3846 30.6066H28.3359V31.6553H29.3846V30.6066Z" fill="#231F20"/>
<path d="M29.3846 29.559H28.3359V30.6066H29.3846V29.559Z" fill="#34552A"/>
<path d="M29.3846 28.5103H28.3359V29.559H29.3846V28.5103Z" fill="#34552A"/>
<path d="M29.3846 27.4617H28.3359V28.5103H29.3846V27.4617Z" fill="#34552A"/>
<path d="M29.3846 26.413H28.3359V27.4616H29.3846V26.413Z" fill="#34552A"/>
<path d="M29.3846 25.3654H28.3359V26.413H29.3846V25.3654Z" fill="#34552A"/>
<path d="M29.3846 24.3167H28.3359V25.3654H29.3846V24.3167Z" fill="#34552A"/>
<path d="M29.3846 23.268H28.3359V24.3167H29.3846V23.268Z" fill="#34552A"/>
<path d="M29.3846 22.2194H28.3359V23.268H29.3846V22.2194Z" fill="#34552A"/>
<path d="M29.3846 21.1707H28.3359V22.2193H29.3846V21.1707Z" fill="#231F20"/>
<path d="M29.3846 20.123H28.3359V21.1706H29.3846V20.123Z" fill="#231F20"/>
<path d="M29.3846 19.0744H28.3359V20.1231H29.3846V19.0744Z" fill="#231F20"/>
<path d="M28.3377 32.704H27.2891V33.7527H28.3377V32.704Z" fill="#231F20"/>
<path d="M28.3377 31.6553H27.2891V32.704H28.3377V31.6553Z" fill="#231F20"/>
<path d="M28.3377 30.6066H27.2891V31.6553H28.3377V30.6066Z" fill="#34552A"/>
<path d="M28.3377 29.559H27.2891V30.6066H28.3377V29.559Z" fill="#34552A"/>
<path d="M28.3377 28.5103H27.2891V29.559H28.3377V28.5103Z" fill="#A7D858"/>
<path d="M28.3377 27.4617H27.2891V28.5103H28.3377V27.4617Z" fill="#A7D858"/>
<path d="M28.3377 26.413H27.2891V27.4616H28.3377V26.413Z" fill="#A7D858"/>
<path d="M28.3377 25.3654H27.2891V26.413H28.3377V25.3654Z" fill="#A7D858"/>
<path d="M28.3377 24.3167H27.2891V25.3654H28.3377V24.3167Z" fill="#A7D858"/>
<path d="M28.3377 23.268H27.2891V24.3167H28.3377V23.268Z" fill="#A7D858"/>
<path d="M28.3377 22.2194H27.2891V23.268H28.3377V22.2194Z" fill="#34552A"/>
<path d="M28.3377 21.1707H27.2891V22.2193H28.3377V21.1707Z" fill="#34552A"/>
<path d="M28.3377 20.123H27.2891V21.1706H28.3377V20.123Z" fill="#34552A"/>
<path d="M28.3377 19.0744H27.2891V20.1231H28.3377V19.0744Z" fill="#34552A"/>
<path d="M28.3377 18.0257H27.2891V19.0744H28.3377V18.0257Z" fill="#231F20"/>
<path d="M28.3377 16.977H27.2891V18.0257H28.3377V16.977Z" fill="#231F20"/>
<path d="M27.2898 33.7527H26.2422V34.8014H27.2898V33.7527Z" fill="#231F20"/>
<path d="M27.2898 32.704H26.2422V33.7527H27.2898V32.704Z" fill="#34552A"/>
<path d="M27.2898 31.6553H26.2422V32.704H27.2898V31.6553Z" fill="#34552A"/>
<path d="M27.2898 30.6066H26.2422V31.6553H27.2898V30.6066Z" fill="#34552A"/>
<path d="M27.2898 29.559H26.2422V30.6066H27.2898V29.559Z" fill="#A7D858"/>
<path d="M27.2898 28.5103H26.2422V29.559H27.2898V28.5103Z" fill="#A7D858"/>
<path d="M27.2898 27.4617H26.2422V28.5103H27.2898V27.4617Z" fill="#A7D858"/>
<path d="M27.2898 26.413H26.2422V27.4616H27.2898V26.413Z" fill="#A7D858"/>
<path d="M27.2898 25.3654H26.2422V26.413H27.2898V25.3654Z" fill="#A7D858"/>
<path d="M27.2898 24.3167H26.2422V25.3654H27.2898V24.3167Z" fill="#A7D858"/>
<path d="M27.2898 23.268H26.2422V24.3167H27.2898V23.268Z" fill="#A7D858"/>
<path d="M27.2898 22.2194H26.2422V23.268H27.2898V22.2194Z" fill="#A7D858"/>
<path d="M27.2898 21.1707H26.2422V22.2193H27.2898V21.1707Z" fill="#A7D858"/>
<path d="M27.2898 20.123H26.2422V21.1706H27.2898V20.123Z" fill="#A7D858"/>
<path d="M27.2898 19.0744H26.2422V20.1231H27.2898V19.0744Z" fill="#34552A"/>
<path d="M27.2898 18.0257H26.2422V19.0744H27.2898V18.0257Z" fill="#34552A"/>
<path d="M27.2898 16.977H26.2422V18.0257H27.2898V16.977Z" fill="#34552A"/>
<path d="M27.2898 15.9294H26.2422V16.977H27.2898V15.9294Z" fill="#231F20"/>
<path d="M27.2898 14.8807H26.2422V15.9294H27.2898V14.8807Z" fill="#231F20"/>
<path d="M26.244 34.8013H25.1953V35.8489H26.244V34.8013Z" fill="#231F20"/>
<path d="M26.244 33.7527H25.1953V34.8014H26.244V33.7527Z" fill="#34552A"/>
<path d="M26.244 32.704H25.1953V33.7527H26.244V32.704Z" fill="#34552A"/>
<path d="M26.244 31.6553H25.1953V32.704H26.244V31.6553Z" fill="#A7D858"/>
<path d="M26.244 30.6066H25.1953V31.6553H26.244V30.6066Z" fill="#A7D858"/>
<path d="M26.244 29.559H25.1953V30.6066H26.244V29.559Z" fill="#A7D858"/>
<path d="M26.244 28.5103H25.1953V29.559H26.244V28.5103Z" fill="#A7D858"/>
<path d="M26.244 27.4617H25.1953V28.5103H26.244V27.4617Z" fill="#A7D858"/>
<path d="M26.244 26.413H25.1953V27.4616H26.244V26.413Z" fill="#DEE86B"/>
<path d="M26.244 25.3654H25.1953V26.413H26.244V25.3654Z" fill="#DEE86B"/>
<path d="M26.244 24.3167H25.1953V25.3654H26.244V24.3167Z" fill="#DEE86B"/>
<path d="M26.244 23.268H25.1953V24.3167H26.244V23.268Z" fill="#A7D858"/>
<path d="M26.244 22.2194H25.1953V23.268H26.244V22.2194Z" fill="#A7D858"/>
<path d="M26.244 21.1707H25.1953V22.2193H26.244V21.1707Z" fill="#A7D858"/>
<path d="M26.244 20.123H25.1953V21.1706H26.244V20.123Z" fill="#A7D858"/>
<path d="M26.244 19.0744H25.1953V20.1231H26.244V19.0744Z" fill="#A7D858"/>
<path d="M26.244 18.0257H25.1953V19.0744H26.244V18.0257Z" fill="#A7D858"/>
<path d="M26.244 16.977H25.1953V18.0257H26.244V16.977Z" fill="#34552A"/>
<path d="M26.244 15.9294H25.1953V16.977H26.244V15.9294Z" fill="#34552A"/>
<path d="M26.244 14.8807H25.1953V15.9294H26.244V14.8807Z" fill="#34552A"/>
<path d="M26.244 13.832H25.1953V14.8807H26.244V13.832Z" fill="#231F20"/>
<path d="M25.1971 35.8489H24.1484V36.8976H25.1971V35.8489Z" fill="#231F20"/>
<path d="M25.1971 34.8013H24.1484V35.8489H25.1971V34.8013Z" fill="#34552A"/>
<path d="M25.1971 33.7527H24.1484V34.8014H25.1971V33.7527Z" fill="#34552A"/>
<path d="M25.1971 32.704H24.1484V33.7527H25.1971V32.704Z" fill="#A7D858"/>
<path d="M25.1971 31.6553H24.1484V32.704H25.1971V31.6553Z" fill="#A7D858"/>
<path d="M25.1971 30.6066H24.1484V31.6553H25.1971V30.6066Z" fill="#A7D858"/>
<path d="M25.1971 29.559H24.1484V30.6066H25.1971V29.559Z" fill="#A7D858"/>
<path d="M25.1971 28.5103H24.1484V29.559H25.1971V28.5103Z" fill="#DEE86B"/>
<path d="M25.1971 27.4617H24.1484V28.5103H25.1971V27.4617Z" fill="#DEE86B"/>
<path d="M25.1971 26.413H24.1484V27.4616H25.1971V26.413Z" fill="#DEE86B"/>
<path d="M25.1971 25.3654H24.1484V26.413H25.1971V25.3654Z" fill="#DEE86B"/>
<path d="M25.1971 24.3167H24.1484V25.3654H25.1971V24.3167Z" fill="#DEE86B"/>
<path d="M25.1971 23.268H24.1484V24.3167H25.1971V23.268Z" fill="#DEE86B"/>
<path d="M25.1971 22.2194H24.1484V23.268H25.1971V22.2194Z" fill="#DEE86B"/>
<path d="M25.1971 21.1707H24.1484V22.2193H25.1971V21.1707Z" fill="#DEE86B"/>
<path d="M25.1971 20.123H24.1484V21.1706H25.1971V20.123Z" fill="#DEE86B"/>
<path d="M25.1971 19.0744H24.1484V20.1231H25.1971V19.0744Z" fill="#A7D858"/>
<path d="M25.1971 18.0257H24.1484V19.0744H25.1971V18.0257Z" fill="#A7D858"/>
<path d="M25.1971 16.977H24.1484V18.0257H25.1971V16.977Z" fill="#A7D858"/>
<path d="M25.1971 15.9294H24.1484V16.977H25.1971V15.9294Z" fill="#A7D858"/>
<path d="M25.1971 14.8807H24.1484V15.9294H25.1971V14.8807Z" fill="#34552A"/>
<path d="M25.1971 13.832H24.1484V14.8807H25.1971V13.832Z" fill="#34552A"/>
<path d="M25.1971 12.7834H24.1484V13.8321H25.1971V12.7834Z" fill="#231F20"/>
<path d="M25.1971 11.7347H24.1484V12.7834H25.1971V11.7347Z" fill="#231F20"/>
<path d="M25.1971 10.6871H24.1484V11.7347H25.1971V10.6871Z" fill="#231F20"/>
<path d="M25.1971 9.63843H24.1484V10.6871H25.1971V9.63843Z" fill="#231F20"/>
<path d="M25.1971 8.58972H24.1484V9.6384H25.1971V8.58972Z" fill="#231F20"/>
<path d="M25.1971 7.54108H24.1484V8.58976H25.1971V7.54108Z" fill="#231F20"/>
<path d="M24.1424 36.8976H23.0938V37.9463H24.1424V36.8976Z" fill="#231F20"/>
<path d="M24.1424 35.8489H23.0938V36.8976H24.1424V35.8489Z" fill="#231F20"/>
<path d="M24.1424 34.8013H23.0938V35.8489H24.1424V34.8013Z" fill="#34552A"/>
<path d="M24.1424 33.7527H23.0938V34.8014H24.1424V33.7527Z" fill="#A7D858"/>
<path d="M24.1424 32.704H23.0938V33.7527H24.1424V32.704Z" fill="#A7D858"/>
<path d="M24.1424 31.6553H23.0938V32.704H24.1424V31.6553Z" fill="#A7D858"/>
<path d="M24.1424 30.6066H23.0938V31.6553H24.1424V30.6066Z" fill="#A7D858"/>
<path d="M24.1424 29.559H23.0938V30.6066H24.1424V29.559Z" fill="#DEE86B"/>
<path d="M24.1424 28.5103H23.0938V29.559H24.1424V28.5103Z" fill="#DEE86B"/>
<path d="M24.1424 27.4617H23.0938V28.5103H24.1424V27.4617Z" fill="#DEE86B"/>
<path d="M24.1424 26.413H23.0938V27.4616H24.1424V26.413Z" fill="#DEE86B"/>
<path d="M24.1424 25.3654H23.0938V26.413H24.1424V25.3654Z" fill="#DEE86B"/>
<path d="M24.1424 24.3167H23.0938V25.3654H24.1424V24.3167Z" fill="#DEE86B"/>
<path d="M24.1424 23.268H23.0938V24.3167H24.1424V23.268Z" fill="#DEE86B"/>
<path d="M24.1424 22.2194H23.0938V23.268H24.1424V22.2194Z" fill="#DEE86B"/>
<path d="M24.1424 21.1707H23.0938V22.2193H24.1424V21.1707Z" fill="#DEE86B"/>
<path d="M24.1424 20.123H23.0938V21.1706H24.1424V20.123Z" fill="#DEE86B"/>
<path d="M24.1424 19.0744H23.0938V20.1231H24.1424V19.0744Z" fill="#DEE86B"/>
<path d="M24.1424 18.0257H23.0938V19.0744H24.1424V18.0257Z" fill="#A7D858"/>
<path d="M24.1424 16.977H23.0938V18.0257H24.1424V16.977Z" fill="#A7D858"/>
<path d="M24.1424 15.9294H23.0938V16.977H24.1424V15.9294Z" fill="#A7D858"/>
<path d="M24.1424 14.8807H23.0938V15.9294H24.1424V14.8807Z" fill="#A7D858"/>
<path d="M24.1424 13.832H23.0938V14.8807H24.1424V13.832Z" fill="#A7D858"/>
<path d="M24.1424 12.7834H23.0938V13.8321H24.1424V12.7834Z" fill="#34552A"/>
<path d="M24.1424 11.7347H23.0938V12.7834H24.1424V11.7347Z" fill="#34552A"/>
<path d="M24.1424 10.6871H23.0938V11.7347H24.1424V10.6871Z" fill="#34552A"/>
<path d="M24.1424 9.63843H23.0938V10.6871H24.1424V9.63843Z" fill="#34552A"/>
<path d="M24.1424 8.58972H23.0938V9.6384H24.1424V8.58972Z" fill="#34552A"/>
<path d="M24.1424 7.54108H23.0938V8.58976H24.1424V7.54108Z" fill="#34552A"/>
<path d="M24.1424 6.49347H23.0938V7.54107H24.1424V6.49347Z" fill="#231F20"/>
<path d="M24.1424 5.44476H23.0938V6.49344H24.1424V5.44476Z" fill="#231F20"/>
<path d="M23.0956 36.8976H22.0469V37.9463H23.0956V36.8976Z" fill="#231F20"/>
<path d="M23.0956 35.8489H22.0469V36.8976H23.0956V35.8489Z" fill="#34552A"/>
<path d="M23.0956 34.8013H22.0469V35.8489H23.0956V34.8013Z" fill="#34552A"/>
<path d="M23.0956 33.7527H22.0469V34.8014H23.0956V33.7527Z" fill="#A7D858"/>
<path d="M23.0956 32.704H22.0469V33.7527H23.0956V32.704Z" fill="#A7D858"/>
<path d="M23.0956 31.6553H22.0469V32.704H23.0956V31.6553Z" fill="#A7D858"/>
<path d="M23.0956 30.6066H22.0469V31.6553H23.0956V30.6066Z" fill="#DEE86B"/>
<path d="M23.0956 29.559H22.0469V30.6066H23.0956V29.559Z" fill="#DEE86B"/>
<path d="M23.0956 28.5103H22.0469V29.559H23.0956V28.5103Z" fill="#DEE86B"/>
<path d="M23.0956 27.4617H22.0469V28.5103H23.0956V27.4617Z" fill="#DEE86B"/>
<path d="M23.0956 26.413H22.0469V27.4616H23.0956V26.413Z" fill="#DEE86B"/>
<path d="M23.0956 25.3654H22.0469V26.413H23.0956V25.3654Z" fill="#DEE86B"/>
<path d="M23.0956 24.3167H22.0469V25.3654H23.0956V24.3167Z" fill="#DEE86B"/>
<path d="M23.0956 23.268H22.0469V24.3167H23.0956V23.268Z" fill="#DEE86B"/>
<path d="M23.0956 22.2194H22.0469V23.268H23.0956V22.2194Z" fill="#DEE86B"/>
<path d="M23.0956 21.1707H22.0469V22.2193H23.0956V21.1707Z" fill="#DEE86B"/>
<path d="M23.0956 20.123H22.0469V21.1706H23.0956V20.123Z" fill="#DEE86B"/>
<path d="M23.0956 19.0744H22.0469V20.1231H23.0956V19.0744Z" fill="#DEE86B"/>
<path d="M23.0956 18.0257H22.0469V19.0744H23.0956V18.0257Z" fill="#DEE86B"/>
<path d="M23.0956 16.977H22.0469V18.0257H23.0956V16.977Z" fill="#DEE86B"/>
<path d="M23.0956 15.9294H22.0469V16.977H23.0956V15.9294Z" fill="#A7D858"/>
<path d="M23.0956 14.8807H22.0469V15.9294H23.0956V14.8807Z" fill="#A7D858"/>
<path d="M23.0956 13.832H22.0469V14.8807H23.0956V13.832Z" fill="#A7D858"/>
<path d="M23.0956 12.7834H22.0469V13.8321H23.0956V12.7834Z" fill="#A7D858"/>
<path d="M23.0956 11.7347H22.0469V12.7834H23.0956V11.7347Z" fill="#A7D858"/>
<path d="M23.0956 10.6871H22.0469V11.7347H23.0956V10.6871Z" fill="#A7D858"/>
<path d="M23.0956 9.63843H22.0469V10.6871H23.0956V9.63843Z" fill="#A7D858"/>
<path d="M23.0956 8.58972H22.0469V9.6384H23.0956V8.58972Z" fill="#A7D858"/>
<path d="M23.0956 7.54108H22.0469V8.58976H23.0956V7.54108Z" fill="#A7D858"/>
<path d="M23.0956 6.49347H22.0469V7.54107H23.0956V6.49347Z" fill="#34552A"/>
<path d="M23.0956 5.44476H22.0469V6.49344H23.0956V5.44476Z" fill="#34552A"/>
<path d="M23.0956 4.39612H22.0469V5.4448H23.0956V4.39612Z" fill="#231F20"/>
<path d="M22.0476 37.9463H21V38.995H22.0476V37.9463Z" fill="#231F20"/>
<path d="M22.0476 36.8976H21V37.9463H22.0476V36.8976Z" fill="#34552A"/>
<path d="M22.0476 35.8489H21V36.8976H22.0476V35.8489Z" fill="#34552A"/>
<path d="M22.0476 34.8013H21V35.8489H22.0476V34.8013Z" fill="#A7D858"/>
<path d="M22.0476 33.7527H21V34.8014H22.0476V33.7527Z" fill="#A7D858"/>
<path d="M22.0476 32.704H21V33.7527H22.0476V32.704Z" fill="#A7D858"/>
<path d="M22.0476 31.6553H21V32.704H22.0476V31.6553Z" fill="#DEE86B"/>
<path d="M22.0476 30.6066H21V31.6553H22.0476V30.6066Z" fill="#DEE86B"/>
<path d="M22.0476 29.559H21V30.6066H22.0476V29.559Z" fill="#DEE86B"/>
<path d="M22.0476 28.5103H21V29.559H22.0476V28.5103Z" fill="#DEE86B"/>
<path d="M22.0476 27.4617H21V28.5103H22.0476V27.4617Z" fill="#DEE86B"/>
<path d="M22.0476 26.413H21V27.4616H22.0476V26.413Z" fill="#DEE86B"/>
<path d="M22.0476 25.3654H21V26.413H22.0476V25.3654Z" fill="#DEE86B"/>
<path d="M22.0476 24.3167H21V25.3654H22.0476V24.3167Z" fill="#DEE86B"/>
<path d="M22.0476 23.268H21V24.3167H22.0476V23.268Z" fill="#DEE86B"/>
<path d="M22.0476 22.2194H21V23.268H22.0476V22.2194Z" fill="#DEE86B"/>
<path d="M22.0476 21.1707H21V22.2193H22.0476V21.1707Z" fill="#DEE86B"/>
<path d="M22.0476 20.123H21V21.1706H22.0476V20.123Z" fill="#DEE86B"/>
<path d="M22.0476 19.0744H21V20.1231H22.0476V19.0744Z" fill="#DEE86B"/>
<path d="M22.0476 18.0257H21V19.0744H22.0476V18.0257Z" fill="#DEE86B"/>
<path d="M22.0476 16.977H21V18.0257H22.0476V16.977Z" fill="#DEE86B"/>
<path d="M22.0476 15.9294H21V16.977H22.0476V15.9294Z" fill="#DEE86B"/>
<path d="M22.0476 14.8807H21V15.9294H22.0476V14.8807Z" fill="#DEE86B"/>
<path d="M22.0476 13.832H21V14.8807H22.0476V13.832Z" fill="#DEE86B"/>
<path d="M22.0476 12.7834H21V13.8321H22.0476V12.7834Z" fill="#A7D858"/>
<path d="M22.0476 11.7347H21V12.7834H22.0476V11.7347Z" fill="#A7D858"/>
<path d="M22.0476 10.6871H21V11.7347H22.0476V10.6871Z" fill="#A7D858"/>
<path d="M22.0476 9.63843H21V10.6871H22.0476V9.63843Z" fill="#A7D858"/>
<path d="M22.0476 8.58972H21V9.6384H22.0476V8.58972Z" fill="#A7D858"/>
<path d="M22.0476 7.54108H21V8.58976H22.0476V7.54108Z" fill="#A7D858"/>
<path d="M22.0476 6.49347H21V7.54107H22.0476V6.49347Z" fill="#A7D858"/>
<path d="M22.0476 5.44476H21V6.49344H22.0476V5.44476Z" fill="#34552A"/>
<path d="M22.0476 4.39612H21V5.4448H22.0476V4.39612Z" fill="#34552A"/>
<path d="M22.0476 3.34741H21V4.39609H22.0476V3.34741Z" fill="#231F20"/>
<path d="M22.0476 2.29871H21V3.34739H22.0476V2.29871Z" fill="#231F20"/>
<path d="M21.0018 37.9463H19.9531V38.995H21.0018V37.9463Z" fill="#231F20"/>
<path d="M21.0018 36.8976H19.9531V37.9463H21.0018V36.8976Z" fill="#34552A"/>
<path d="M21.0018 35.8489H19.9531V36.8976H21.0018V35.8489Z" fill="#A7D858"/>
<path d="M21.0018 34.8013H19.9531V35.8489H21.0018V34.8013Z" fill="#A7D858"/>
<path d="M21.0018 33.7527H19.9531V34.8014H21.0018V33.7527Z" fill="#A7D858"/>
<path d="M21.0018 32.704H19.9531V33.7527H21.0018V32.704Z" fill="#DEE86B"/>
<path d="M21.0018 31.6553H19.9531V32.704H21.0018V31.6553Z" fill="#DEE86B"/>
<path d="M21.0018 30.6066H19.9531V31.6553H21.0018V30.6066Z" fill="#DEE86B"/>
<path d="M21.0018 29.559H19.9531V30.6066H21.0018V29.559Z" fill="#DEE86B"/>
<path d="M21.0018 28.5103H19.9531V29.559H21.0018V28.5103Z" fill="#DEE86B"/>
<path d="M21.0018 27.4617H19.9531V28.5103H21.0018V27.4617Z" fill="#231F20"/>
<path d="M21.0018 26.413H19.9531V27.4616H21.0018V26.413Z" fill="#231F20"/>
<path d="M21.0018 25.3654H19.9531V26.413H21.0018V25.3654Z" fill="#231F20"/>
<path d="M21.0018 24.3167H19.9531V25.3654H21.0018V24.3167Z" fill="#231F20"/>
<path d="M21.0018 23.268H19.9531V24.3167H21.0018V23.268Z" fill="#231F20"/>
<path d="M21.0018 22.2194H19.9531V23.268H21.0018V22.2194Z" fill="#231F20"/>
<path d="M21.0018 21.1707H19.9531V22.2193H21.0018V21.1707Z" fill="#231F20"/>
<path d="M21.0018 20.123H19.9531V21.1706H21.0018V20.123Z" fill="#DEE86B"/>
<path d="M21.0018 19.0744H19.9531V20.1231H21.0018V19.0744Z" fill="#DEE86B"/>
<path d="M21.0018 18.0257H19.9531V19.0744H21.0018V18.0257Z" fill="#DEE86B"/>
<path d="M21.0018 16.977H19.9531V18.0257H21.0018V16.977Z" fill="#DEE86B"/>
<path d="M21.0018 15.9294H19.9531V16.977H21.0018V15.9294Z" fill="#DEE86B"/>
<path d="M21.0018 14.8807H19.9531V15.9294H21.0018V14.8807Z" fill="#DEE86B"/>
<path d="M21.0018 13.832H19.9531V14.8807H21.0018V13.832Z" fill="#DEE86B"/>
<path d="M21.0018 12.7834H19.9531V13.8321H21.0018V12.7834Z" fill="#DEE86B"/>
<path d="M21.0018 11.7347H19.9531V12.7834H21.0018V11.7347Z" fill="#DEE86B"/>
<path d="M21.0018 10.6871H19.9531V11.7347H21.0018V10.6871Z" fill="#DEE86B"/>
<path d="M21.0018 9.63843H19.9531V10.6871H21.0018V9.63843Z" fill="#DEE86B"/>
<path d="M21.0018 8.58972H19.9531V9.6384H21.0018V8.58972Z" fill="#A7D858"/>
<path d="M21.0018 7.54108H19.9531V8.58976H21.0018V7.54108Z" fill="#A7D858"/>
<path d="M21.0018 6.49347H19.9531V7.54107H21.0018V6.49347Z" fill="#A7D858"/>
<path d="M21.0018 5.44476H19.9531V6.49344H21.0018V5.44476Z" fill="#A7D858"/>
<path d="M21.0018 4.39612H19.9531V5.4448H21.0018V4.39612Z" fill="#34552A"/>
<path d="M21.0018 3.34741H19.9531V4.39609H21.0018V3.34741Z" fill="#34552A"/>
<path d="M21.0018 2.29871H19.9531V3.34739H21.0018V2.29871Z" fill="#231F20"/>
<path d="M19.9549 37.9463H18.9062V38.995H19.9549V37.9463Z" fill="#231F20"/>
<path d="M19.9549 36.8976H18.9062V37.9463H19.9549V36.8976Z" fill="#34552A"/>
<path d="M19.9549 35.8489H18.9062V36.8976H19.9549V35.8489Z" fill="#A7D858"/>
<path d="M19.9549 34.8013H18.9062V35.8489H19.9549V34.8013Z" fill="#A7D858"/>
<path d="M19.9549 33.7527H18.9062V34.8014H19.9549V33.7527Z" fill="#A7D858"/>
<path d="M19.9549 32.704H18.9062V33.7527H19.9549V32.704Z" fill="#DEE86B"/>
<path d="M19.9549 31.6553H18.9062V32.704H19.9549V31.6553Z" fill="#DEE86B"/>
<path d="M19.9549 30.6066H18.9062V31.6553H19.9549V30.6066Z" fill="#DEE86B"/>
<path d="M19.9549 29.559H18.9062V30.6066H19.9549V29.559Z" fill="#DEE86B"/>
<path d="M19.9549 28.5103H18.9062V29.559H19.9549V28.5103Z" fill="#231F20"/>
<path d="M19.9549 27.4617H18.9062V28.5103H19.9549V27.4617Z" fill="#7F401D"/>
<path d="M19.9549 26.413H18.9062V27.4616H19.9549V26.413Z" fill="#7F401D"/>
<path d="M19.9549 25.3654H18.9062V26.413H19.9549V25.3654Z" fill="#7F401D"/>
<path d="M19.9549 24.3167H18.9062V25.3654H19.9549V24.3167Z" fill="#7F401D"/>
<path d="M19.9549 23.268H18.9062V24.3167H19.9549V23.268Z" fill="#7F401D"/>
<path d="M19.9549 22.2194H18.9062V23.268H19.9549V22.2194Z" fill="#7F401D"/>
<path d="M19.9549 21.1707H18.9062V22.2193H19.9549V21.1707Z" fill="#7F401D"/>
<path d="M19.9549 20.123H18.9062V21.1706H19.9549V20.123Z" fill="#231F20"/>
<path d="M19.9549 19.0744H18.9062V20.1231H19.9549V19.0744Z" fill="#DEE86B"/>
<path d="M19.9549 18.0257H18.9062V19.0744H19.9549V18.0257Z" fill="#DEE86B"/>
<path d="M19.9549 16.977H18.9062V18.0257H19.9549V16.977Z" fill="#DEE86B"/>
<path d="M19.9549 15.9294H18.9062V16.977H19.9549V15.9294Z" fill="#DEE86B"/>
<path d="M19.9549 14.8807H18.9062V15.9294H19.9549V14.8807Z" fill="#DEE86B"/>
<path d="M19.9549 13.832H18.9062V14.8807H19.9549V13.832Z" fill="#DEE86B"/>
<path d="M19.9549 12.7834H18.9062V13.8321H19.9549V12.7834Z" fill="#DEE86B"/>
<path d="M19.9549 11.7347H18.9062V12.7834H19.9549V11.7347Z" fill="#DEE86B"/>
<path d="M19.9549 10.6871H18.9062V11.7347H19.9549V10.6871Z" fill="#DEE86B"/>
<path d="M19.9549 9.63843H18.9062V10.6871H19.9549V9.63843Z" fill="#DEE86B"/>
<path d="M19.9549 8.58972H18.9062V9.6384H19.9549V8.58972Z" fill="#DEE86B"/>
<path d="M19.9549 7.54108H18.9062V8.58976H19.9549V7.54108Z" fill="#DEE86B"/>
<path d="M19.9549 6.49347H18.9062V7.54107H19.9549V6.49347Z" fill="#A7D858"/>
<path d="M19.9549 5.44476H18.9062V6.49344H19.9549V5.44476Z" fill="#A7D858"/>
<path d="M19.9549 4.39612H18.9062V5.4448H19.9549V4.39612Z" fill="#A7D858"/>
<path d="M19.9549 3.34741H18.9062V4.39609H19.9549V3.34741Z" fill="#34552A"/>
<path d="M19.9549 2.29871H18.9062V3.34739H19.9549V2.29871Z" fill="#34552A"/>
<path d="M19.9549 1.25116H18.9062V2.29876H19.9549V1.25116Z" fill="#231F20"/>
<path d="M18.9002 37.9463H17.8516V38.995H18.9002V37.9463Z" fill="#231F20"/>
<path d="M18.9002 36.8976H17.8516V37.9463H18.9002V36.8976Z" fill="#34552A"/>
<path d="M18.9002 35.8489H17.8516V36.8976H18.9002V35.8489Z" fill="#A7D858"/>
<path d="M18.9002 34.8013H17.8516V35.8489H18.9002V34.8013Z" fill="#A7D858"/>
<path d="M18.9002 33.7527H17.8516V34.8014H18.9002V33.7527Z" fill="#DEE86B"/>
<path d="M18.9002 32.704H17.8516V33.7527H18.9002V32.704Z" fill="#DEE86B"/>
<path d="M18.9002 31.6553H17.8516V32.704H18.9002V31.6553Z" fill="#DEE86B"/>
<path d="M18.9002 30.6066H17.8516V31.6553H18.9002V30.6066Z" fill="#DEE86B"/>
<path d="M18.9002 29.559H17.8516V30.6066H18.9002V29.559Z" fill="#231F20"/>
<path d="M18.9002 28.5103H17.8516V29.559H18.9002V28.5103Z" fill="#7F401D"/>
<path d="M18.9002 27.4617H17.8516V28.5103H18.9002V27.4617Z" fill="#7F401D"/>
<path d="M18.9002 26.413H17.8516V27.4616H18.9002V26.413Z" fill="#7F401D"/>
<path d="M18.9002 25.3654H17.8516V26.413H18.9002V25.3654Z" fill="#7F401D"/>
<path d="M18.9002 24.3167H17.8516V25.3654H18.9002V24.3167Z" fill="#7F401D"/>
<path d="M18.9002 23.268H17.8516V24.3167H18.9002V23.268Z" fill="#7F401D"/>
<path d="M18.9002 22.2194H17.8516V23.268H18.9002V22.2194Z" fill="#7F401D"/>
<path d="M18.9002 21.1707H17.8516V22.2193H18.9002V21.1707Z" fill="#7F401D"/>
<path d="M18.9002 20.123H17.8516V21.1706H18.9002V20.123Z" fill="#7F401D"/>
<path d="M18.9002 19.0744H17.8516V20.1231H18.9002V19.0744Z" fill="#231F20"/>
<path d="M18.9002 18.0257H17.8516V19.0744H18.9002V18.0257Z" fill="#DEE86B"/>
<path d="M18.9002 16.977H17.8516V18.0257H18.9002V16.977Z" fill="#DEE86B"/>
<path d="M18.9002 15.9294H17.8516V16.977H18.9002V15.9294Z" fill="#DEE86B"/>
<path d="M18.9002 14.8807H17.8516V15.9294H18.9002V14.8807Z" fill="#DEE86B"/>
<path d="M18.9002 13.832H17.8516V14.8807H18.9002V13.832Z" fill="#DEE86B"/>
<path d="M18.9002 12.7834H17.8516V13.8321H18.9002V12.7834Z" fill="#DEE86B"/>
<path d="M18.9002 11.7347H17.8516V12.7834H18.9002V11.7347Z" fill="#DEE86B"/>
<path d="M18.9002 10.6871H17.8516V11.7347H18.9002V10.6871Z" fill="#DEE86B"/>
<path d="M18.9002 9.63843H17.8516V10.6871H18.9002V9.63843Z" fill="#DEE86B"/>
<path d="M18.9002 8.58972H17.8516V9.6384H18.9002V8.58972Z" fill="#DEE86B"/>
<path d="M18.9002 7.54108H17.8516V8.58976H18.9002V7.54108Z" fill="#DEE86B"/>
<path d="M18.9002 6.49347H17.8516V7.54107H18.9002V6.49347Z" fill="#DEE86B"/>
<path d="M18.9002 5.44476H17.8516V6.49344H18.9002V5.44476Z" fill="#A7D858"/>
<path d="M18.9002 4.39612H17.8516V5.4448H18.9002V4.39612Z" fill="#A7D858"/>
<path d="M18.9002 3.34741H17.8516V4.39609H18.9002V3.34741Z" fill="#A7D858"/>
<path d="M18.9002 2.29871H17.8516V3.34739H18.9002V2.29871Z" fill="#34552A"/>
<path d="M18.9002 1.25116H17.8516V2.29876H18.9002V1.25116Z" fill="#34552A"/>
<path d="M18.9002 0.202454H17.8516V1.25113H18.9002V0.202454Z" fill="#231F20"/>
<path d="M17.8523 37.9463H16.8047V38.995H17.8523V37.9463Z" fill="#231F20"/>
<path d="M17.8523 36.8976H16.8047V37.9463H17.8523V36.8976Z" fill="#34552A"/>
<path d="M17.8523 35.8489H16.8047V36.8976H17.8523V35.8489Z" fill="#A7D858"/>
<path d="M17.8523 34.8013H16.8047V35.8489H17.8523V34.8013Z" fill="#A7D858"/>
<path d="M17.8523 33.7527H16.8047V34.8014H17.8523V33.7527Z" fill="#DEE86B"/>
<path d="M17.8523 32.704H16.8047V33.7527H17.8523V32.704Z" fill="#DEE86B"/>
<path d="M17.8523 31.6553H16.8047V32.704H17.8523V31.6553Z" fill="#DEE86B"/>
<path d="M17.8523 30.6066H16.8047V31.6553H17.8523V30.6066Z" fill="#231F20"/>
<path d="M17.8523 29.559H16.8047V30.6066H17.8523V29.559Z" fill="#7F401D"/>
<path d="M17.8523 28.5103H16.8047V29.559H17.8523V28.5103Z" fill="#7F401D"/>
<path d="M17.8523 27.4617H16.8047V28.5103H17.8523V27.4617Z" fill="#7F401D"/>
<path d="M17.8523 26.413H16.8047V27.4616H17.8523V26.413Z" fill="#7F401D"/>
<path d="M17.8523 25.3654H16.8047V26.413H17.8523V25.3654Z" fill="#7F401D"/>
<path d="M17.8523 24.3167H16.8047V25.3654H17.8523V24.3167Z" fill="#7F401D"/>
<path d="M17.8523 23.268H16.8047V24.3167H17.8523V23.268Z" fill="#7F401D"/>
<path d="M17.8523 22.2194H16.8047V23.268H17.8523V22.2194Z" fill="#7F401D"/>
<path d="M17.8523 21.1707H16.8047V22.2193H17.8523V21.1707Z" fill="#7F401D"/>
<path d="M17.8523 20.123H16.8047V21.1706H17.8523V20.123Z" fill="#7F401D"/>
<path d="M17.8523 19.0744H16.8047V20.1231H17.8523V19.0744Z" fill="#7F401D"/>
<path d="M17.8523 18.0257H16.8047V19.0744H17.8523V18.0257Z" fill="#231F20"/>
<path d="M17.8523 16.977H16.8047V18.0257H17.8523V16.977Z" fill="#DEE86B"/>
<path d="M17.8523 15.9294H16.8047V16.977H17.8523V15.9294Z" fill="#DEE86B"/>
<path d="M17.8523 14.8807H16.8047V15.9294H17.8523V14.8807Z" fill="#DEE86B"/>
<path d="M17.8523 13.832H16.8047V14.8807H17.8523V13.832Z" fill="#DEE86B"/>
<path d="M17.8523 12.7834H16.8047V13.8321H17.8523V12.7834Z" fill="#DEE86B"/>
<path d="M17.8523 11.7347H16.8047V12.7834H17.8523V11.7347Z" fill="#DEE86B"/>
<path d="M17.8523 10.6871H16.8047V11.7347H17.8523V10.6871Z" fill="#DEE86B"/>
<path d="M17.8523 9.63843H16.8047V10.6871H17.8523V9.63843Z" fill="#DEE86B"/>
<path d="M17.8523 8.58972H16.8047V9.6384H17.8523V8.58972Z" fill="#DEE86B"/>
<path d="M17.8523 7.54108H16.8047V8.58976H17.8523V7.54108Z" fill="#DEE86B"/>
<path d="M17.8523 6.49347H16.8047V7.54107H17.8523V6.49347Z" fill="#DEE86B"/>
<path d="M17.8523 5.44476H16.8047V6.49344H17.8523V5.44476Z" fill="#DEE86B"/>
<path d="M17.8523 4.39612H16.8047V5.4448H17.8523V4.39612Z" fill="#A7D858"/>
<path d="M17.8523 3.34741H16.8047V4.39609H17.8523V3.34741Z" fill="#A7D858"/>
<path d="M17.8523 2.29871H16.8047V3.34739H17.8523V2.29871Z" fill="#A7D858"/>
<path d="M17.8523 1.25116H16.8047V2.29876H17.8523V1.25116Z" fill="#34552A"/>
<path d="M17.8523 0.202454H16.8047V1.25113H17.8523V0.202454Z" fill="#231F20"/>
<path d="M16.8065 37.9463H15.7578V38.995H16.8065V37.9463Z" fill="#231F20"/>
<path d="M16.8065 36.8976H15.7578V37.9463H16.8065V36.8976Z" fill="#34552A"/>
<path d="M16.8065 35.8489H15.7578V36.8976H16.8065V35.8489Z" fill="#A7D858"/>
<path d="M16.8065 34.8013H15.7578V35.8489H16.8065V34.8013Z" fill="#A7D858"/>
<path d="M16.8065 33.7527H15.7578V34.8014H16.8065V33.7527Z" fill="#DEE86B"/>
<path d="M16.8065 32.704H15.7578V33.7527H16.8065V32.704Z" fill="#DEE86B"/>
<path d="M16.8065 31.6553H15.7578V32.704H16.8065V31.6553Z" fill="#DEE86B"/>
<path d="M16.8065 30.6066H15.7578V31.6553H16.8065V30.6066Z" fill="#231F20"/>
<path d="M16.8065 29.559H15.7578V30.6066H16.8065V29.559Z" fill="#7F401D"/>
<path d="M16.8065 28.5103H15.7578V29.559H16.8065V28.5103Z" fill="#7F401D"/>
<path d="M16.8065 27.4617H15.7578V28.5103H16.8065V27.4617Z" fill="#7F401D"/>
<path d="M16.8065 26.413H15.7578V27.4616H16.8065V26.413Z" fill="#7F401D"/>
<path d="M16.8065 25.3654H15.7578V26.413H16.8065V25.3654Z" fill="#7F401D"/>
<path d="M16.8065 24.3167H15.7578V25.3654H16.8065V24.3167Z" fill="#7F401D"/>
<path d="M16.8065 23.268H15.7578V24.3167H16.8065V23.268Z" fill="#7F401D"/>
<path d="M16.8065 22.2194H15.7578V23.268H16.8065V22.2194Z" fill="#7F401D"/>
<path d="M16.8065 21.1707H15.7578V22.2193H16.8065V21.1707Z" fill="#7F401D"/>
<path d="M16.8065 20.123H15.7578V21.1706H16.8065V20.123Z" fill="#7F401D"/>
<path d="M16.8065 19.0744H15.7578V20.1231H16.8065V19.0744Z" fill="#7F401D"/>
<path d="M16.8065 18.0257H15.7578V19.0744H16.8065V18.0257Z" fill="#231F20"/>
<path d="M16.8065 16.977H15.7578V18.0257H16.8065V16.977Z" fill="#DEE86B"/>
<path d="M16.8065 15.9294H15.7578V16.977H16.8065V15.9294Z" fill="#DEE86B"/>
<path d="M16.8065 14.8807H15.7578V15.9294H16.8065V14.8807Z" fill="#DEE86B"/>
<path d="M16.8065 13.832H15.7578V14.8807H16.8065V13.832Z" fill="#DEE86B"/>
<path d="M16.8065 12.7834H15.7578V13.8321H16.8065V12.7834Z" fill="#DEE86B"/>
<path d="M16.8065 11.7347H15.7578V12.7834H16.8065V11.7347Z" fill="#DEE86B"/>
<path d="M16.8065 10.6871H15.7578V11.7347H16.8065V10.6871Z" fill="#DEE86B"/>
<path d="M16.8065 9.63843H15.7578V10.6871H16.8065V9.63843Z" fill="#DEE86B"/>
<path d="M16.8065 8.58972H15.7578V9.6384H16.8065V8.58972Z" fill="#DEE86B"/>
<path d="M16.8065 7.54108H15.7578V8.58976H16.8065V7.54108Z" fill="#DEE86B"/>
<path d="M16.8065 6.49347H15.7578V7.54107H16.8065V6.49347Z" fill="#DEE86B"/>
<path d="M16.8065 5.44476H15.7578V6.49344H16.8065V5.44476Z" fill="#DEE86B"/>
<path d="M16.8065 4.39612H15.7578V5.4448H16.8065V4.39612Z" fill="#A7D858"/>
<path d="M16.8065 3.34741H15.7578V4.39609H16.8065V3.34741Z" fill="#A7D858"/>
<path d="M16.8065 2.29871H15.7578V3.34739H16.8065V2.29871Z" fill="#A7D858"/>
<path d="M16.8065 1.25116H15.7578V2.29876H16.8065V1.25116Z" fill="#34552A"/>
<path d="M16.8065 0.202454H15.7578V1.25113H16.8065V0.202454Z" fill="#231F20"/>
<path d="M15.7596 37.9463H14.7109V38.995H15.7596V37.9463Z" fill="#231F20"/>
<path d="M15.7596 36.8976H14.7109V37.9463H15.7596V36.8976Z" fill="#34552A"/>
<path d="M15.7596 35.8489H14.7109V36.8976H15.7596V35.8489Z" fill="#A7D858"/>
<path d="M15.7596 34.8013H14.7109V35.8489H15.7596V34.8013Z" fill="#A7D858"/>
<path d="M15.7596 33.7527H14.7109V34.8014H15.7596V33.7527Z" fill="#DEE86B"/>
<path d="M15.7596 32.704H14.7109V33.7527H15.7596V32.704Z" fill="#DEE86B"/>
<path d="M15.7596 31.6553H14.7109V32.704H15.7596V31.6553Z" fill="#DEE86B"/>
<path d="M15.7596 30.6066H14.7109V31.6553H15.7596V30.6066Z" fill="#231F20"/>
<path d="M15.7596 29.559H14.7109V30.6066H15.7596V29.559Z" fill="#7F401D"/>
<path d="M15.7596 28.5103H14.7109V29.559H15.7596V28.5103Z" fill="#7F401D"/>
<path d="M15.7596 27.4617H14.7109V28.5103H15.7596V27.4617Z" fill="#7F401D"/>
<path d="M15.7596 26.413H14.7109V27.4616H15.7596V26.413Z" fill="#7F401D"/>
<path d="M15.7596 25.3654H14.7109V26.413H15.7596V25.3654Z" fill="#7F401D"/>
<path d="M15.7596 24.3167H14.7109V25.3654H15.7596V24.3167Z" fill="#7F401D"/>
<path d="M15.7596 23.268H14.7109V24.3167H15.7596V23.268Z" fill="#7F401D"/>
<path d="M15.7596 22.2194H14.7109V23.268H15.7596V22.2194Z" fill="#7F401D"/>
<path d="M15.7596 21.1707H14.7109V22.2193H15.7596V21.1707Z" fill="#7F401D"/>
<path d="M15.7596 20.123H14.7109V21.1706H15.7596V20.123Z" fill="#7F401D"/>
<path d="M15.7596 19.0744H14.7109V20.1231H15.7596V19.0744Z" fill="#7F401D"/>
<path d="M15.7596 18.0257H14.7109V19.0744H15.7596V18.0257Z" fill="#231F20"/>
<path d="M15.7596 16.977H14.7109V18.0257H15.7596V16.977Z" fill="#DEE86B"/>
<path d="M15.7596 15.9294H14.7109V16.977H15.7596V15.9294Z" fill="#DEE86B"/>
<path d="M15.7596 14.8807H14.7109V15.9294H15.7596V14.8807Z" fill="#DEE86B"/>
<path d="M15.7596 13.832H14.7109V14.8807H15.7596V13.832Z" fill="#DEE86B"/>
<path d="M15.7596 12.7834H14.7109V13.8321H15.7596V12.7834Z" fill="#DEE86B"/>
<path d="M15.7596 11.7347H14.7109V12.7834H15.7596V11.7347Z" fill="#DEE86B"/>
<path d="M15.7596 10.6871H14.7109V11.7347H15.7596V10.6871Z" fill="#DEE86B"/>
<path d="M15.7596 9.63843H14.7109V10.6871H15.7596V9.63843Z" fill="#DEE86B"/>
<path d="M15.7596 8.58972H14.7109V9.6384H15.7596V8.58972Z" fill="#DEE86B"/>
<path d="M15.7596 7.54108H14.7109V8.58976H15.7596V7.54108Z" fill="#DEE86B"/>
<path d="M15.7596 6.49347H14.7109V7.54107H15.7596V6.49347Z" fill="#DEE86B"/>
<path d="M15.7596 5.44476H14.7109V6.49344H15.7596V5.44476Z" fill="#DEE86B"/>
<path d="M15.7596 4.39612H14.7109V5.4448H15.7596V4.39612Z" fill="#DEE86B"/>
<path d="M15.7596 3.34741H14.7109V4.39609H15.7596V3.34741Z" fill="#A7D858"/>
<path d="M15.7596 2.29871H14.7109V3.34739H15.7596V2.29871Z" fill="#A7D858"/>
<path d="M15.7596 1.25116H14.7109V2.29876H15.7596V1.25116Z" fill="#34552A"/>
<path d="M15.7596 0.202454H14.7109V1.25113H15.7596V0.202454Z" fill="#231F20"/>
<path d="M14.7127 37.9463H13.6641V38.995H14.7127V37.9463Z" fill="#231F20"/>
<path d="M14.7127 36.8976H13.6641V37.9463H14.7127V36.8976Z" fill="#34552A"/>
<path d="M14.7127 35.8489H13.6641V36.8976H14.7127V35.8489Z" fill="#A7D858"/>
<path d="M14.7127 34.8013H13.6641V35.8489H14.7127V34.8013Z" fill="#DEE86B"/>
<path d="M14.7127 33.7527H13.6641V34.8014H14.7127V33.7527Z" fill="#DEE86B"/>
<path d="M14.7127 32.704H13.6641V33.7527H14.7127V32.704Z" fill="#DEE86B"/>
<path d="M14.7127 31.6553H13.6641V32.704H14.7127V31.6553Z" fill="#DEE86B"/>
<path d="M14.7127 30.6066H13.6641V31.6553H14.7127V30.6066Z" fill="#231F20"/>
<path d="M14.7127 29.559H13.6641V30.6066H14.7127V29.559Z" fill="#7F401D"/>
<path d="M14.7127 28.5103H13.6641V29.559H14.7127V28.5103Z" fill="#7F401D"/>
<path d="M14.7127 27.4617H13.6641V28.5103H14.7127V27.4617Z" fill="#7F401D"/>
<path d="M14.7127 26.413H13.6641V27.4616H14.7127V26.413Z" fill="#7F401D"/>
<path d="M14.7127 25.3654H13.6641V26.413H14.7127V25.3654Z" fill="#7F401D"/>
<path d="M14.7127 24.3167H13.6641V25.3654H14.7127V24.3167Z" fill="#7F401D"/>
<path d="M14.7127 23.268H13.6641V24.3167H14.7127V23.268Z" fill="#7F401D"/>
<path d="M14.7127 22.2194H13.6641V23.268H14.7127V22.2194Z" fill="#7F401D"/>
<path d="M14.7127 21.1707H13.6641V22.2193H14.7127V21.1707Z" fill="#7F401D"/>
<path d="M14.7127 20.123H13.6641V21.1706H14.7127V20.123Z" fill="#7F401D"/>
<path d="M14.7127 19.0744H13.6641V20.1231H14.7127V19.0744Z" fill="#7F401D"/>
<path d="M14.7127 18.0257H13.6641V19.0744H14.7127V18.0257Z" fill="#231F20"/>
<path d="M14.7127 16.977H13.6641V18.0257H14.7127V16.977Z" fill="#DEE86B"/>
<path d="M14.7127 15.9294H13.6641V16.977H14.7127V15.9294Z" fill="#DEE86B"/>
<path d="M14.7127 14.8807H13.6641V15.9294H14.7127V14.8807Z" fill="#DEE86B"/>
<path d="M14.7127 13.832H13.6641V14.8807H14.7127V13.832Z" fill="#DEE86B"/>
<path d="M14.7127 12.7834H13.6641V13.8321H14.7127V12.7834Z" fill="#DEE86B"/>
<path d="M14.7127 11.7347H13.6641V12.7834H14.7127V11.7347Z" fill="#DEE86B"/>
<path d="M14.7127 10.6871H13.6641V11.7347H14.7127V10.6871Z" fill="#DEE86B"/>
<path d="M14.7127 9.63843H13.6641V10.6871H14.7127V9.63843Z" fill="#DEE86B"/>
<path d="M14.7127 8.58972H13.6641V9.6384H14.7127V8.58972Z" fill="#DEE86B"/>
<path d="M14.7127 7.54108H13.6641V8.58976H14.7127V7.54108Z" fill="#DEE86B"/>
<path d="M14.7127 6.49347H13.6641V7.54107H14.7127V6.49347Z" fill="#DEE86B"/>
<path d="M14.7127 5.44476H13.6641V6.49344H14.7127V5.44476Z" fill="#DEE86B"/>
<path d="M14.7127 4.39612H13.6641V5.4448H14.7127V4.39612Z" fill="#A7D858"/>
<path d="M14.7127 3.34741H13.6641V4.39609H14.7127V3.34741Z" fill="#A7D858"/>
<path d="M14.7127 2.29871H13.6641V3.34739H14.7127V2.29871Z" fill="#A7D858"/>
<path d="M14.7127 1.25116H13.6641V2.29876H14.7127V1.25116Z" fill="#34552A"/>
<path d="M14.7127 0.202454H13.6641V1.25113H14.7127V0.202454Z" fill="#231F20"/>
<path d="M13.6581 37.9463H12.6094V38.995H13.6581V37.9463Z" fill="#231F20"/>
<path d="M13.6581 36.8976H12.6094V37.9463H13.6581V36.8976Z" fill="#34552A"/>
<path d="M13.6581 35.8489H12.6094V36.8976H13.6581V35.8489Z" fill="#A7D858"/>
<path d="M13.6581 34.8013H12.6094V35.8489H13.6581V34.8013Z" fill="#A7D858"/>
<path d="M13.6581 33.7527H12.6094V34.8014H13.6581V33.7527Z" fill="#DEE86B"/>
<path d="M13.6581 32.704H12.6094V33.7527H13.6581V32.704Z" fill="#DEE86B"/>
<path d="M13.6581 31.6553H12.6094V32.704H13.6581V31.6553Z" fill="#DEE86B"/>
<path d="M13.6581 30.6066H12.6094V31.6553H13.6581V30.6066Z" fill="#DEE86B"/>
<path d="M13.6581 29.559H12.6094V30.6066H13.6581V29.559Z" fill="#231F20"/>
<path d="M13.6581 28.5103H12.6094V29.559H13.6581V28.5103Z" fill="#7F401D"/>
<path d="M13.6581 27.4617H12.6094V28.5103H13.6581V27.4617Z" fill="#7F401D"/>
<path d="M13.6581 26.413H12.6094V27.4616H13.6581V26.413Z" fill="#7F401D"/>
<path d="M13.6581 25.3654H12.6094V26.413H13.6581V25.3654Z" fill="#7F401D"/>
<path d="M13.6581 24.3167H12.6094V25.3654H13.6581V24.3167Z" fill="#7F401D"/>
<path d="M13.6581 23.268H12.6094V24.3167H13.6581V23.268Z" fill="#7F401D"/>
<path d="M13.6581 22.2194H12.6094V23.268H13.6581V22.2194Z" fill="#7F401D"/>
<path d="M13.6581 21.1707H12.6094V22.2193H13.6581V21.1707Z" fill="#7F401D"/>
<path d="M13.6581 20.123H12.6094V21.1706H13.6581V20.123Z" fill="#7F401D"/>
<path d="M13.6581 19.0744H12.6094V20.1231H13.6581V19.0744Z" fill="#231F20"/>
<path d="M13.6581 18.0257H12.6094V19.0744H13.6581V18.0257Z" fill="#DEE86B"/>
<path d="M13.6581 16.977H12.6094V18.0257H13.6581V16.977Z" fill="#DEE86B"/>
<path d="M13.6581 15.9294H12.6094V16.977H13.6581V15.9294Z" fill="#DEE86B"/>
<path d="M13.6581 14.8807H12.6094V15.9294H13.6581V14.8807Z" fill="#DEE86B"/>
<path d="M13.6581 13.832H12.6094V14.8807H13.6581V13.832Z" fill="#DEE86B"/>
<path d="M13.6581 12.7834H12.6094V13.8321H13.6581V12.7834Z" fill="#DEE86B"/>
<path d="M13.6581 11.7347H12.6094V12.7834H13.6581V11.7347Z" fill="#DEE86B"/>
<path d="M13.6581 10.6871H12.6094V11.7347H13.6581V10.6871Z" fill="#DEE86B"/>
<path d="M13.6581 9.63843H12.6094V10.6871H13.6581V9.63843Z" fill="#DEE86B"/>
<path d="M13.6581 8.58972H12.6094V9.6384H13.6581V8.58972Z" fill="#DEE86B"/>
<path d="M13.6581 7.54108H12.6094V8.58976H13.6581V7.54108Z" fill="#DEE86B"/>
<path d="M13.6581 6.49347H12.6094V7.54107H13.6581V6.49347Z" fill="#DEE86B"/>
<path d="M13.6581 5.44476H12.6094V6.49344H13.6581V5.44476Z" fill="#DEE86B"/>
<path d="M13.6581 4.39612H12.6094V5.4448H13.6581V4.39612Z" fill="#A7D858"/>
<path d="M13.6581 3.34741H12.6094V4.39609H13.6581V3.34741Z" fill="#A7D858"/>
<path d="M13.6581 2.29871H12.6094V3.34739H13.6581V2.29871Z" fill="#A7D858"/>
<path d="M13.6581 1.25116H12.6094V2.29876H13.6581V1.25116Z" fill="#34552A"/>
<path d="M13.6581 0.202454H12.6094V1.25113H13.6581V0.202454Z" fill="#231F20"/>
<path d="M12.6101 37.9463H11.5625V38.995H12.6101V37.9463Z" fill="#231F20"/>
<path d="M12.6101 36.8976H11.5625V37.9463H12.6101V36.8976Z" fill="#34552A"/>
<path d="M12.6101 35.8489H11.5625V36.8976H12.6101V35.8489Z" fill="#A7D858"/>
<path d="M12.6101 34.8013H11.5625V35.8489H12.6101V34.8013Z" fill="#A7D858"/>
<path d="M12.6101 33.7527H11.5625V34.8014H12.6101V33.7527Z" fill="#DEE86B"/>
<path d="M12.6101 32.704H11.5625V33.7527H12.6101V32.704Z" fill="#DEE86B"/>
<path d="M12.6101 31.6553H11.5625V32.704H12.6101V31.6553Z" fill="#DEE86B"/>
<path d="M12.6101 30.6066H11.5625V31.6553H12.6101V30.6066Z" fill="#DEE86B"/>
<path d="M12.6101 29.559H11.5625V30.6066H12.6101V29.559Z" fill="#DEE86B"/>
<path d="M12.6101 28.5103H11.5625V29.559H12.6101V28.5103Z" fill="#231F20"/>
<path d="M12.6101 27.4617H11.5625V28.5103H12.6101V27.4617Z" fill="#7F401D"/>
<path d="M12.6101 26.413H11.5625V27.4616H12.6101V26.413Z" fill="#7F401D"/>
<path d="M12.6101 25.3654H11.5625V26.413H12.6101V25.3654Z" fill="#7F401D"/>
<path d="M12.6101 24.3167H11.5625V25.3654H12.6101V24.3167Z" fill="#7F401D"/>
<path d="M12.6101 23.268H11.5625V24.3167H12.6101V23.268Z" fill="#7F401D"/>
<path d="M12.6101 22.2194H11.5625V23.268H12.6101V22.2194Z" fill="#7F401D"/>
<path d="M12.6101 21.1707H11.5625V22.2193H12.6101V21.1707Z" fill="#7F401D"/>
<path d="M12.6101 20.123H11.5625V21.1706H12.6101V20.123Z" fill="#231F20"/>
<path d="M12.6101 19.0744H11.5625V20.1231H12.6101V19.0744Z" fill="#DEE86B"/>
<path d="M12.6101 18.0257H11.5625V19.0744H12.6101V18.0257Z" fill="#DEE86B"/>
<path d="M12.6101 16.977H11.5625V18.0257H12.6101V16.977Z" fill="#DEE86B"/>
<path d="M12.6101 15.9294H11.5625V16.977H12.6101V15.9294Z" fill="#DEE86B"/>
<path d="M12.6101 14.8807H11.5625V15.9294H12.6101V14.8807Z" fill="#DEE86B"/>
<path d="M12.6101 13.832H11.5625V14.8807H12.6101V13.832Z" fill="#DEE86B"/>
<path d="M12.6101 12.7834H11.5625V13.8321H12.6101V12.7834Z" fill="#DEE86B"/>
<path d="M12.6101 11.7347H11.5625V12.7834H12.6101V11.7347Z" fill="#DEE86B"/>
<path d="M12.6101 10.6871H11.5625V11.7347H12.6101V10.6871Z" fill="#DEE86B"/>
<path d="M12.6101 9.63843H11.5625V10.6871H12.6101V9.63843Z" fill="#DEE86B"/>
<path d="M12.6101 8.58972H11.5625V9.6384H12.6101V8.58972Z" fill="#DEE86B"/>
<path d="M12.6101 7.54108H11.5625V8.58976H12.6101V7.54108Z" fill="#DEE86B"/>
<path d="M12.6101 6.49347H11.5625V7.54107H12.6101V6.49347Z" fill="#DEE86B"/>
<path d="M12.6101 5.44476H11.5625V6.49344H12.6101V5.44476Z" fill="#A7D858"/>
<path d="M12.6101 4.39612H11.5625V5.4448H12.6101V4.39612Z" fill="#A7D858"/>
<path d="M12.6101 3.34741H11.5625V4.39609H12.6101V3.34741Z" fill="#A7D858"/>
<path d="M12.6101 2.29871H11.5625V3.34739H12.6101V2.29871Z" fill="#34552A"/>
<path d="M12.6101 1.25116H11.5625V2.29876H12.6101V1.25116Z" fill="#34552A"/>
<path d="M12.6101 0.202454H11.5625V1.25113H12.6101V0.202454Z" fill="#231F20"/>
<path d="M11.5643 37.9463H10.5156V38.995H11.5643V37.9463Z" fill="#231F20"/>
<path d="M11.5643 36.8976H10.5156V37.9463H11.5643V36.8976Z" fill="#34552A"/>
<path d="M11.5643 35.8489H10.5156V36.8976H11.5643V35.8489Z" fill="#34552A"/>
<path d="M11.5643 34.8013H10.5156V35.8489H11.5643V34.8013Z" fill="#A7D858"/>
<path d="M11.5643 33.7527H10.5156V34.8014H11.5643V33.7527Z" fill="#A7D858"/>
<path d="M11.5643 32.704H10.5156V33.7527H11.5643V32.704Z" fill="#DEE86B"/>
<path d="M11.5643 31.6553H10.5156V32.704H11.5643V31.6553Z" fill="#DEE86B"/>
<path d="M11.5643 30.6066H10.5156V31.6553H11.5643V30.6066Z" fill="#DEE86B"/>
<path d="M11.5643 29.559H10.5156V30.6066H11.5643V29.559Z" fill="#DEE86B"/>
<path d="M11.5643 28.5103H10.5156V29.559H11.5643V28.5103Z" fill="#DEE86B"/>
<path d="M11.5643 27.4617H10.5156V28.5103H11.5643V27.4617Z" fill="#231F20"/>
<path d="M11.5643 26.413H10.5156V27.4616H11.5643V26.413Z" fill="#231F20"/>
<path d="M11.5643 25.3654H10.5156V26.413H11.5643V25.3654Z" fill="#231F20"/>
<path d="M11.5643 24.3167H10.5156V25.3654H11.5643V24.3167Z" fill="#231F20"/>
<path d="M11.5643 23.268H10.5156V24.3167H11.5643V23.268Z" fill="#231F20"/>
<path d="M11.5643 22.2194H10.5156V23.268H11.5643V22.2194Z" fill="#231F20"/>
<path d="M11.5643 21.1707H10.5156V22.2193H11.5643V21.1707Z" fill="#231F20"/>
<path d="M11.5643 20.123H10.5156V21.1706H11.5643V20.123Z" fill="#DEE86B"/>
<path d="M11.5643 19.0744H10.5156V20.1231H11.5643V19.0744Z" fill="#DEE86B"/>
<path d="M11.5643 18.0257H10.5156V19.0744H11.5643V18.0257Z" fill="#DEE86B"/>
<path d="M11.5643 16.977H10.5156V18.0257H11.5643V16.977Z" fill="#DEE86B"/>
<path d="M11.5643 15.9294H10.5156V16.977H11.5643V15.9294Z" fill="#DEE86B"/>
<path d="M11.5643 14.8807H10.5156V15.9294H11.5643V14.8807Z" fill="#DEE86B"/>
<path d="M11.5643 13.832H10.5156V14.8807H11.5643V13.832Z" fill="#DEE86B"/>
<path d="M11.5643 12.7834H10.5156V13.8321H11.5643V12.7834Z" fill="#DEE86B"/>
<path d="M11.5643 11.7347H10.5156V12.7834H11.5643V11.7347Z" fill="#DEE86B"/>
<path d="M11.5643 10.6871H10.5156V11.7347H11.5643V10.6871Z" fill="#DEE86B"/>
<path d="M11.5643 9.63843H10.5156V10.6871H11.5643V9.63843Z" fill="#DEE86B"/>
<path d="M11.5643 8.58972H10.5156V9.6384H11.5643V8.58972Z" fill="#DEE86B"/>
<path d="M11.5643 7.54108H10.5156V8.58976H11.5643V7.54108Z" fill="#DEE86B"/>
<path d="M11.5643 6.49347H10.5156V7.54107H11.5643V6.49347Z" fill="#A7D858"/>
<path d="M11.5643 5.44476H10.5156V6.49344H11.5643V5.44476Z" fill="#A7D858"/>
<path d="M11.5643 4.39612H10.5156V5.4448H11.5643V4.39612Z" fill="#A7D858"/>
<path d="M11.5643 3.34741H10.5156V4.39609H11.5643V3.34741Z" fill="#34552A"/>
<path d="M11.5643 2.29871H10.5156V3.34739H11.5643V2.29871Z" fill="#34552A"/>
<path d="M11.5643 1.25116H10.5156V2.29876H11.5643V1.25116Z" fill="#231F20"/>
<path d="M10.5174 36.8976H9.46875V37.9463H10.5174V36.8976Z" fill="#231F20"/>
<path d="M10.5174 35.8489H9.46875V36.8976H10.5174V35.8489Z" fill="#34552A"/>
<path d="M10.5174 34.8013H9.46875V35.8489H10.5174V34.8013Z" fill="#A7D858"/>
<path d="M10.5174 33.7527H9.46875V34.8014H10.5174V33.7527Z" fill="#A7D858"/>
<path d="M10.5174 32.704H9.46875V33.7527H10.5174V32.704Z" fill="#A7D858"/>
<path d="M10.5174 31.6553H9.46875V32.704H10.5174V31.6553Z" fill="#DEE86B"/>
<path d="M10.5174 30.6066H9.46875V31.6553H10.5174V30.6066Z" fill="#DEE86B"/>
<path d="M10.5174 29.559H9.46875V30.6066H10.5174V29.559Z" fill="#DEE86B"/>
<path d="M10.5174 28.5103H9.46875V29.559H10.5174V28.5103Z" fill="#DEE86B"/>
<path d="M10.5174 27.4617H9.46875V28.5103H10.5174V27.4617Z" fill="#DEE86B"/>
<path d="M10.5174 26.413H9.46875V27.4616H10.5174V26.413Z" fill="#DEE86B"/>
<path d="M10.5174 25.3654H9.46875V26.413H10.5174V25.3654Z" fill="#DEE86B"/>
<path d="M10.5174 24.3167H9.46875V25.3654H10.5174V24.3167Z" fill="#DEE86B"/>
<path d="M10.5174 23.268H9.46875V24.3167H10.5174V23.268Z" fill="#DEE86B"/>
<path d="M10.5174 22.2194H9.46875V23.268H10.5174V22.2194Z" fill="#DEE86B"/>
<path d="M10.5174 21.1707H9.46875V22.2193H10.5174V21.1707Z" fill="#DEE86B"/>
<path d="M10.5174 20.123H9.46875V21.1706H10.5174V20.123Z" fill="#DEE86B"/>
<path d="M10.5174 19.0744H9.46875V20.1231H10.5174V19.0744Z" fill="#DEE86B"/>
<path d="M10.5174 18.0257H9.46875V19.0744H10.5174V18.0257Z" fill="#DEE86B"/>
<path d="M10.5174 16.977H9.46875V18.0257H10.5174V16.977Z" fill="#DEE86B"/>
<path d="M10.5174 15.9294H9.46875V16.977H10.5174V15.9294Z" fill="#DEE86B"/>
<path d="M10.5174 14.8807H9.46875V15.9294H10.5174V14.8807Z" fill="#DEE86B"/>
<path d="M10.5174 13.832H9.46875V14.8807H10.5174V13.832Z" fill="#DEE86B"/>
<path d="M10.5174 12.7834H9.46875V13.8321H10.5174V12.7834Z" fill="#DEE86B"/>
<path d="M10.5174 11.7347H9.46875V12.7834H10.5174V11.7347Z" fill="#DEE86B"/>
<path d="M10.5174 10.6871H9.46875V11.7347H10.5174V10.6871Z" fill="#DEE86B"/>
<path d="M10.5174 9.63843H9.46875V10.6871H10.5174V9.63843Z" fill="#DEE86B"/>
<path d="M10.5174 8.58972H9.46875V9.6384H10.5174V8.58972Z" fill="#A7D858"/>
<path d="M10.5174 7.54108H9.46875V8.58976H10.5174V7.54108Z" fill="#A7D858"/>
<path d="M10.5174 6.49347H9.46875V7.54107H10.5174V6.49347Z" fill="#A7D858"/>
<path d="M10.5174 5.44476H9.46875V6.49344H10.5174V5.44476Z" fill="#A7D858"/>
<path d="M10.5174 4.39612H9.46875V5.4448H10.5174V4.39612Z" fill="#34552A"/>
<path d="M10.5174 3.34741H9.46875V4.39609H10.5174V3.34741Z" fill="#34552A"/>
<path d="M10.5174 2.29871H9.46875V3.34739H10.5174V2.29871Z" fill="#231F20"/>
<path d="M9.47055 36.8976H8.42188V37.9463H9.47055V36.8976Z" fill="#231F20"/>
<path d="M9.47055 35.8489H8.42188V36.8976H9.47055V35.8489Z" fill="#34552A"/>
<path d="M9.47055 34.8013H8.42188V35.8489H9.47055V34.8013Z" fill="#34552A"/>
<path d="M9.47055 33.7527H8.42188V34.8014H9.47055V33.7527Z" fill="#A7D858"/>
<path d="M9.47055 32.704H8.42188V33.7527H9.47055V32.704Z" fill="#A7D858"/>
<path d="M9.47055 31.6553H8.42188V32.704H9.47055V31.6553Z" fill="#DEE86B"/>
<path d="M9.47055 30.6066H8.42188V31.6553H9.47055V30.6066Z" fill="#DEE86B"/>
<path d="M9.47055 29.559H8.42188V30.6066H9.47055V29.559Z" fill="#DEE86B"/>
<path d="M9.47055 28.5103H8.42188V29.559H9.47055V28.5103Z" fill="#DEE86B"/>
<path d="M9.47055 27.4617H8.42188V28.5103H9.47055V27.4617Z" fill="#DEE86B"/>
<path d="M9.47055 26.413H8.42188V27.4616H9.47055V26.413Z" fill="#DEE86B"/>
<path d="M9.47055 25.3654H8.42188V26.413H9.47055V25.3654Z" fill="#DEE86B"/>
<path d="M9.47055 24.3167H8.42188V25.3654H9.47055V24.3167Z" fill="#DEE86B"/>
<path d="M9.47055 23.268H8.42188V24.3167H9.47055V23.268Z" fill="#DEE86B"/>
<path d="M9.47055 22.2194H8.42188V23.268H9.47055V22.2194Z" fill="#DEE86B"/>
<path d="M9.47055 21.1707H8.42188V22.2193H9.47055V21.1707Z" fill="#DEE86B"/>
<path d="M9.47055 20.123H8.42188V21.1706H9.47055V20.123Z" fill="#DEE86B"/>
<path d="M9.47055 19.0744H8.42188V20.1231H9.47055V19.0744Z" fill="#DEE86B"/>
<path d="M9.47055 18.0257H8.42188V19.0744H9.47055V18.0257Z" fill="#DEE86B"/>
<path d="M9.47055 16.977H8.42188V18.0257H9.47055V16.977Z" fill="#DEE86B"/>
<path d="M9.47055 15.9294H8.42188V16.977H9.47055V15.9294Z" fill="#DEE86B"/>
<path d="M9.47055 14.8807H8.42188V15.9294H9.47055V14.8807Z" fill="#DEE86B"/>
<path d="M9.47055 13.832H8.42188V14.8807H9.47055V13.832Z" fill="#A7D858"/>
<path d="M9.47055 12.7834H8.42188V13.8321H9.47055V12.7834Z" fill="#A7D858"/>
<path d="M9.47055 11.7347H8.42188V12.7834H9.47055V11.7347Z" fill="#A7D858"/>
<path d="M9.47055 10.6871H8.42188V11.7347H9.47055V10.6871Z" fill="#A7D858"/>
<path d="M9.47055 9.63843H8.42188V10.6871H9.47055V9.63843Z" fill="#A7D858"/>
<path d="M9.47055 8.58972H8.42188V9.6384H9.47055V8.58972Z" fill="#A7D858"/>
<path d="M9.47055 7.54108H8.42188V8.58976H9.47055V7.54108Z" fill="#A7D858"/>
<path d="M9.47055 6.49347H8.42188V7.54107H9.47055V6.49347Z" fill="#A7D858"/>
<path d="M9.47055 4.39612H8.42188V5.4448H9.47055V4.39612Z" fill="#34552A"/>
<path d="M9.47055 3.34741H8.42188V4.39609H9.47055V3.34741Z" fill="#231F20"/>
<path d="M9.47055 2.29871H8.42188V3.34739H9.47055V2.29871Z" fill="#231F20"/>
<path d="M8.41479 35.8489H7.36719V36.8976H8.41479V35.8489Z" fill="#231F20"/>
<path d="M8.41479 34.8013H7.36719V35.8489H8.41479V34.8013Z" fill="#34552A"/>
<path d="M8.41479 33.7527H7.36719V34.8014H8.41479V33.7527Z" fill="#34552A"/>
<path d="M8.41479 32.704H7.36719V33.7527H8.41479V32.704Z" fill="#A7D858"/>
<path d="M8.41479 31.6553H7.36719V32.704H8.41479V31.6553Z" fill="#A7D858"/>
<path d="M8.41479 30.6066H7.36719V31.6553H8.41479V30.6066Z" fill="#DEE86B"/>
<path d="M8.41479 29.559H7.36719V30.6066H8.41479V29.559Z" fill="#DEE86B"/>
<path d="M8.41479 28.5103H7.36719V29.559H8.41479V28.5103Z" fill="#DEE86B"/>
<path d="M8.41479 27.4617H7.36719V28.5103H8.41479V27.4617Z" fill="#DEE86B"/>
<path d="M8.41479 26.413H7.36719V27.4616H8.41479V26.413Z" fill="#DEE86B"/>
<path d="M8.41479 25.3654H7.36719V26.413H8.41479V25.3654Z" fill="#DEE86B"/>
<path d="M8.41479 24.3167H7.36719V25.3654H8.41479V24.3167Z" fill="#DEE86B"/>
<path d="M8.41479 23.268H7.36719V24.3167H8.41479V23.268Z" fill="#DEE86B"/>
<path d="M8.41479 22.2194H7.36719V23.268H8.41479V22.2194Z" fill="#DEE86B"/>
<path d="M8.41479 21.1707H7.36719V22.2193H8.41479V21.1707Z" fill="#DEE86B"/>
<path d="M8.41479 20.123H7.36719V21.1706H8.41479V20.123Z" fill="#DEE86B"/>
<path d="M8.41479 19.0744H7.36719V20.1231H8.41479V19.0744Z" fill="#DEE86B"/>
<path d="M8.41479 18.0257H7.36719V19.0744H8.41479V18.0257Z" fill="#DEE86B"/>
<path d="M8.41479 16.977H7.36719V18.0257H8.41479V16.977Z" fill="#DEE86B"/>
<path d="M8.41479 15.9294H7.36719V16.977H8.41479V15.9294Z" fill="#A7D858"/>
<path d="M8.41479 14.8807H7.36719V15.9294H8.41479V14.8807Z" fill="#A7D858"/>
<path d="M8.41479 13.832H7.36719V14.8807H8.41479V13.832Z" fill="#A7D858"/>
<path d="M8.41479 12.7834H7.36719V13.8321H8.41479V12.7834Z" fill="#A7D858"/>
<path d="M8.41479 11.7347H7.36719V12.7834H8.41479V11.7347Z" fill="#A7D858"/>
<path d="M8.41479 10.6871H7.36719V11.7347H8.41479V10.6871Z" fill="#A7D858"/>
<path d="M8.41479 9.63843H7.36719V10.6871H8.41479V9.63843Z" fill="#A7D858"/>
<path d="M8.41479 7.54108H7.36719V8.58976H8.41479V7.54108Z" fill="#34552A"/>
<path d="M8.41479 6.49347H7.36719V7.54107H8.41479V6.49347Z" fill="#34552A"/>
<path d="M8.41479 5.44476H7.36719V6.49344H8.41479V5.44476Z" fill="#34552A"/>
<path d="M8.41479 4.39612H7.36719V5.4448H8.41479V4.39612Z" fill="#231F20"/>
<path d="M7.36899 35.8489H6.32031V36.8976H7.36899V35.8489Z" fill="#231F20"/>
<path d="M7.36899 34.8013H6.32031V35.8489H7.36899V34.8013Z" fill="#231F20"/>
<path d="M7.36899 33.7527H6.32031V34.8014H7.36899V33.7527Z" fill="#34552A"/>
<path d="M7.36899 32.704H6.32031V33.7527H7.36899V32.704Z" fill="#A7D858"/>
<path d="M7.36899 31.6553H6.32031V32.704H7.36899V31.6553Z" fill="#A7D858"/>
<path d="M7.36899 30.6066H6.32031V31.6553H7.36899V30.6066Z" fill="#A7D858"/>
<path d="M7.36899 29.559H6.32031V30.6066H7.36899V29.559Z" fill="#DEE86B"/>
<path d="M7.36899 28.5103H6.32031V29.559H7.36899V28.5103Z" fill="#DEE86B"/>
<path d="M7.36899 27.4617H6.32031V28.5103H7.36899V27.4617Z" fill="#DEE86B"/>
<path d="M7.36899 26.413H6.32031V27.4616H7.36899V26.413Z" fill="#DEE86B"/>
<path d="M7.36899 25.3654H6.32031V26.413H7.36899V25.3654Z" fill="#DEE86B"/>
<path d="M7.36899 24.3167H6.32031V25.3654H7.36899V24.3167Z" fill="#DEE86B"/>
<path d="M7.36899 23.268H6.32031V24.3167H7.36899V23.268Z" fill="#DEE86B"/>
<path d="M7.36899 22.2194H6.32031V23.268H7.36899V22.2194Z" fill="#DEE86B"/>
<path d="M7.36899 21.1707H6.32031V22.2193H7.36899V21.1707Z" fill="#DEE86B"/>
<path d="M7.36899 20.123H6.32031V21.1706H7.36899V20.123Z" fill="#DEE86B"/>
<path d="M7.36899 19.0744H6.32031V20.1231H7.36899V19.0744Z" fill="#DEE86B"/>
<path d="M7.36899 18.0257H6.32031V19.0744H7.36899V18.0257Z" fill="#A7D858"/>
<path d="M7.36899 16.977H6.32031V18.0257H7.36899V16.977Z" fill="#A7D858"/>
<path d="M7.36899 15.9294H6.32031V16.977H7.36899V15.9294Z" fill="#A7D858"/>
<path d="M7.36899 14.8807H6.32031V15.9294H7.36899V14.8807Z" fill="#A7D858"/>
<path d="M7.36899 13.832H6.32031V14.8807H7.36899V13.832Z" fill="#34552A"/>
<path d="M7.36899 12.7834H6.32031V13.8321H7.36899V12.7834Z" fill="#34552A"/>
<path d="M7.36899 11.7347H6.32031V12.7834H7.36899V11.7347Z" fill="#34552A"/>
<path d="M7.36899 10.6871H6.32031V11.7347H7.36899V10.6871Z" fill="#34552A"/>
<path d="M7.36899 9.63843H6.32031V10.6871H7.36899V9.63843Z" fill="#34552A"/>
<path d="M7.36899 8.58972H6.32031V9.6384H7.36899V8.58972Z" fill="#34552A"/>
<path d="M7.36899 7.54108H6.32031V8.58976H7.36899V7.54108Z" fill="#34552A"/>
<path d="M7.36899 6.49347H6.32031V7.54107H7.36899V6.49347Z" fill="#231F20"/>
<path d="M7.36899 5.44476H6.32031V6.49344H7.36899V5.44476Z" fill="#231F20"/>
<path d="M6.32212 34.8013H5.27344V35.8489H6.32212V34.8013Z" fill="#231F20"/>
<path d="M6.32212 33.7527H5.27344V34.8014H6.32212V33.7527Z" fill="#34552A"/>
<path d="M6.32212 32.704H5.27344V33.7527H6.32212V32.704Z" fill="#34552A"/>
<path d="M6.32212 31.6553H5.27344V32.704H6.32212V31.6553Z" fill="#A7D858"/>
<path d="M6.32212 30.6066H5.27344V31.6553H6.32212V30.6066Z" fill="#A7D858"/>
<path d="M6.32212 29.559H5.27344V30.6066H6.32212V29.559Z" fill="#A7D858"/>
<path d="M6.32212 28.5103H5.27344V29.559H6.32212V28.5103Z" fill="#DEE86B"/>
<path d="M6.32212 27.4617H5.27344V28.5103H6.32212V27.4617Z" fill="#DEE86B"/>
<path d="M6.32212 26.413H5.27344V27.4616H6.32212V26.413Z" fill="#DEE86B"/>
<path d="M6.32212 25.3654H5.27344V26.413H6.32212V25.3654Z" fill="#DEE86B"/>
<path d="M6.32212 24.3167H5.27344V25.3654H6.32212V24.3167Z" fill="#DEE86B"/>
<path d="M6.32212 23.268H5.27344V24.3167H6.32212V23.268Z" fill="#DEE86B"/>
<path d="M6.32212 22.2194H5.27344V23.268H6.32212V22.2194Z" fill="#DEE86B"/>
<path d="M6.32212 21.1707H5.27344V22.2193H6.32212V21.1707Z" fill="#DEE86B"/>
<path d="M6.32212 20.123H5.27344V21.1706H6.32212V20.123Z" fill="#A7D858"/>
<path d="M6.32212 19.0744H5.27344V20.1231H6.32212V19.0744Z" fill="#A7D858"/>
<path d="M6.32212 18.0257H5.27344V19.0744H6.32212V18.0257Z" fill="#A7D858"/>
<path d="M6.32212 16.977H5.27344V18.0257H6.32212V16.977Z" fill="#A7D858"/>
<path d="M6.32212 14.8807H5.27344V15.9294H6.32212V14.8807Z" fill="#34552A"/>
<path d="M6.32212 13.832H5.27344V14.8807H6.32212V13.832Z" fill="#34552A"/>
<path d="M6.32212 12.7834H5.27344V13.8321H6.32212V12.7834Z" fill="#231F20"/>
<path d="M6.32212 11.7347H5.27344V12.7834H6.32212V11.7347Z" fill="#231F20"/>
<path d="M6.32212 10.6871H5.27344V11.7347H6.32212V10.6871Z" fill="#231F20"/>
<path d="M6.32212 9.63843H5.27344V10.6871H6.32212V9.63843Z" fill="#231F20"/>
<path d="M6.32212 8.58972H5.27344V9.6384H6.32212V8.58972Z" fill="#231F20"/>
<path d="M6.32212 7.54108H5.27344V8.58976H6.32212V7.54108Z" fill="#231F20"/>
<path d="M5.27524 33.7527H4.22656V34.8014H5.27524V33.7527Z" fill="#231F20"/>
<path d="M5.27524 32.704H4.22656V33.7527H5.27524V32.704Z" fill="#34552A"/>
<path d="M5.27524 31.6553H4.22656V32.704H5.27524V31.6553Z" fill="#34552A"/>
<path d="M5.27524 29.559H4.22656V30.6066H5.27524V29.559Z" fill="#A7D858"/>
<path d="M5.27524 28.5103H4.22656V29.559H5.27524V28.5103Z" fill="#A7D858"/>
<path d="M5.27524 27.4617H4.22656V28.5103H5.27524V27.4617Z" fill="#A7D858"/>
<path d="M5.27524 26.413H4.22656V27.4616H5.27524V26.413Z" fill="#DEE86B"/>
<path d="M5.27524 25.3654H4.22656V26.413H5.27524V25.3654Z" fill="#DEE86B"/>
<path d="M5.27524 24.3167H4.22656V25.3654H5.27524V24.3167Z" fill="#DEE86B"/>
<path d="M5.27524 23.268H4.22656V24.3167H5.27524V23.268Z" fill="#DEE86B"/>
<path d="M5.27524 22.2194H4.22656V23.268H5.27524V22.2194Z" fill="#A7D858"/>
<path d="M5.27524 21.1707H4.22656V22.2193H5.27524V21.1707Z" fill="#A7D858"/>
<path d="M5.27524 20.123H4.22656V21.1706H5.27524V20.123Z" fill="#A7D858"/>
<path d="M5.27524 19.0744H4.22656V20.1231H5.27524V19.0744Z" fill="#A7D858"/>
<path d="M5.27524 18.0257H4.22656V19.0744H5.27524V18.0257Z" fill="#A7D858"/>
<path d="M5.27524 16.977H4.22656V18.0257H5.27524V16.977Z" fill="#34552A"/>
<path d="M5.27524 15.9294H4.22656V16.977H5.27524V15.9294Z" fill="#34552A"/>
<path d="M5.27524 14.8807H4.22656V15.9294H5.27524V14.8807Z" fill="#34552A"/>
<path d="M5.27524 13.832H4.22656V14.8807H5.27524V13.832Z" fill="#231F20"/>
<path d="M4.22837 32.704H3.17969V33.7527H4.22837V32.704Z" fill="#231F20"/>
<path d="M4.22837 31.6553H3.17969V32.704H4.22837V31.6553Z" fill="#34552A"/>
<path d="M4.22837 30.6066H3.17969V31.6553H4.22837V30.6066Z" fill="#34552A"/>
<path d="M4.22837 29.559H3.17969V30.6066H4.22837V29.559Z" fill="#34552A"/>
<path d="M4.22837 28.5103H3.17969V29.559H4.22837V28.5103Z" fill="#A7D858"/>
<path d="M4.22837 27.4617H3.17969V28.5103H4.22837V27.4617Z" fill="#A7D858"/>
<path d="M4.22837 26.413H3.17969V27.4616H4.22837V26.413Z" fill="#A7D858"/>
<path d="M4.22837 25.3654H3.17969V26.413H4.22837V25.3654Z" fill="#A7D858"/>
<path d="M4.22837 24.3167H3.17969V25.3654H4.22837V24.3167Z" fill="#A7D858"/>
<path d="M4.22837 23.268H3.17969V24.3167H4.22837V23.268Z" fill="#A7D858"/>
<path d="M4.22837 22.2194H3.17969V23.268H4.22837V22.2194Z" fill="#A7D858"/>
<path d="M4.22837 21.1707H3.17969V22.2193H4.22837V21.1707Z" fill="#A7D858"/>
<path d="M4.22837 19.0744H3.17969V20.1231H4.22837V19.0744Z" fill="#34552A"/>
<path d="M4.22837 18.0257H3.17969V19.0744H4.22837V18.0257Z" fill="#34552A"/>
<path d="M4.22837 16.977H3.17969V18.0257H4.22837V16.977Z" fill="#34552A"/>
<path d="M4.22837 15.9294H3.17969V16.977H4.22837V15.9294Z" fill="#231F20"/>
<path d="M4.22837 14.8807H3.17969V15.9294H4.22837V14.8807Z" fill="#231F20"/>
<path d="M3.1726 31.6553H2.125V32.704H3.1726V31.6553Z" fill="#231F20"/>
<path d="M3.1726 30.6066H2.125V31.6553H3.1726V30.6066Z" fill="#231F20"/>
<path d="M3.1726 29.559H2.125V30.6066H3.1726V29.559Z" fill="#34552A"/>
<path d="M3.1726 28.5103H2.125V29.559H3.1726V28.5103Z" fill="#34552A"/>
<path d="M3.1726 27.4617H2.125V28.5103H3.1726V27.4617Z" fill="#A7D858"/>
<path d="M3.1726 26.413H2.125V27.4616H3.1726V26.413Z" fill="#A7D858"/>
<path d="M3.1726 25.3654H2.125V26.413H3.1726V25.3654Z" fill="#A7D858"/>
<path d="M3.1726 24.3167H2.125V25.3654H3.1726V24.3167Z" fill="#A7D858"/>
<path d="M3.1726 22.2194H2.125V23.268H3.1726V22.2194Z" fill="#34552A"/>
<path d="M3.1726 21.1707H2.125V22.2193H3.1726V21.1707Z" fill="#34552A"/>
<path d="M3.1726 20.123H2.125V21.1706H3.1726V20.123Z" fill="#34552A"/>
<path d="M3.1726 19.0744H2.125V20.1231H3.1726V19.0744Z" fill="#34552A"/>
<path d="M3.1726 18.0257H2.125V19.0744H3.1726V18.0257Z" fill="#231F20"/>
<path d="M3.1726 16.977H2.125V18.0257H3.1726V16.977Z" fill="#231F20"/>
<path d="M2.1268 29.559H1.07812V30.6066H2.1268V29.559Z" fill="#231F20"/>
<path d="M2.1268 28.5103H1.07812V29.559H2.1268V28.5103Z" fill="#34552A"/>
<path d="M2.1268 27.4617H1.07812V28.5103H2.1268V27.4617Z" fill="#34552A"/>
<path d="M2.1268 26.413H1.07812V27.4616H2.1268V26.413Z" fill="#34552A"/>
<path d="M2.1268 25.3654H1.07812V26.413H2.1268V25.3654Z" fill="#34552A"/>
<path d="M2.1268 24.3167H1.07812V25.3654H2.1268V24.3167Z" fill="#34552A"/>
<path d="M2.1268 23.268H1.07812V24.3167H2.1268V23.268Z" fill="#34552A"/>
<path d="M2.1268 22.2194H1.07812V23.268H2.1268V22.2194Z" fill="#34552A"/>
<path d="M2.1268 21.1707H1.07812V22.2193H2.1268V21.1707Z" fill="#231F20"/>
<path d="M2.1268 20.123H1.07812V21.1706H2.1268V20.123Z" fill="#231F20"/>
<path d="M2.1268 19.0744H1.07812V20.1231H2.1268V19.0744Z" fill="#231F20"/>
<path d="M1.07993 28.5103H0.03125V29.559H1.07993V28.5103Z" fill="#231F20"/>
<path d="M1.07993 27.4617H0.03125V28.5103H1.07993V27.4617Z" fill="#231F20"/>
<path d="M1.07993 26.413H0.03125V27.4616H1.07993V26.413Z" fill="#231F20"/>
<path d="M1.07993 25.3654H0.03125V26.413H1.07993V25.3654Z" fill="#231F20"/>
<path d="M1.07993 24.3167H0.03125V25.3654H1.07993V24.3167Z" fill="#231F20"/>
<path d="M1.07993 23.268H0.03125V24.3167H1.07993V23.268Z" fill="#231F20"/>
<path d="M1.07993 22.2194H0.03125V23.268H1.07993V22.2194Z" fill="#231F20"/>
</svg>
