<svg width="45" height="42" viewBox="0 0 45 42" fill="none" xmlns="http://www.w3.org/2000/svg">
<path d="M44.0409 26.3649H42.9922V27.4135H44.0409V26.3649Z" fill="#231F20"/>
<path d="M42.994 28.4622H41.9453V29.5098H42.994V28.4622Z" fill="#231F20"/>
<path d="M40.9002 32.6559H39.8516V33.7046H40.9002V32.6559Z" fill="#231F20"/>
<path d="M41.9471 30.5585H40.8984V31.6072H41.9471V30.5585Z" fill="#231F20"/>
<path d="M44.0409 25.3162H42.9922V26.3649H44.0409V25.3162Z" fill="#231F20"/>
<path d="M44.0409 24.2686H42.9922V25.3162H44.0409V24.2686Z" fill="#231F20"/>
<path d="M44.0409 23.2199H42.9922V24.2686H44.0409V23.2199Z" fill="#231F20"/>
<path d="M44.0409 22.1713H42.9922V23.2199H44.0409V22.1713Z" fill="#231F20"/>
<path d="M44.0409 21.1226H42.9922V22.1712H44.0409V21.1226Z" fill="#231F20"/>
<path d="M44.0409 20.0739H42.9922V21.1225H44.0409V20.0739Z" fill="#231F20"/>
<path d="M44.0409 19.0263H42.9922V20.0739H44.0409V19.0263Z" fill="#231F20"/>
<path d="M44.0409 17.9776H42.9922V19.0263H44.0409V17.9776Z" fill="#231F20"/>
<path d="M44.0409 16.9289H42.9922V17.9776H44.0409V16.9289Z" fill="#231F20"/>
<path d="M44.0409 15.8802H42.9922V16.9289H44.0409V15.8802Z" fill="#231F20"/>
<path d="M44.0409 14.8315H42.9922V15.8802H44.0409V14.8315Z" fill="#231F20"/>
<path d="M42.994 27.4136H41.9453V28.4623H42.994V27.4136Z" fill="#231F20"/>
<path d="M42.994 26.3649H41.9453V27.4135H42.994V26.3649Z" fill="#F69022"/>
<path d="M42.994 25.3162H41.9453V26.3649H42.994V25.3162Z" fill="#F69022"/>
<path d="M42.994 24.2686H41.9453V25.3162H42.994V24.2686Z" fill="#F69022"/>
<path d="M42.994 23.2199H41.9453V24.2686H42.994V23.2199Z" fill="#F69022"/>
<path d="M42.994 22.1713H41.9453V23.2199H42.994V22.1713Z" fill="#F69022"/>
<path d="M42.994 21.1226H41.9453V22.1712H42.994V21.1226Z" fill="#F69022"/>
<path d="M42.994 20.0739H41.9453V21.1225H42.994V20.0739Z" fill="#F69022"/>
<path d="M42.994 19.0263H41.9453V20.0739H42.994V19.0263Z" fill="#F69022"/>
<path d="M42.994 17.9776H41.9453V19.0263H42.994V17.9776Z" fill="#F69022"/>
<path d="M42.994 16.9289H41.9453V17.9776H42.994V16.9289Z" fill="#F69022"/>
<path d="M42.994 15.8802H41.9453V16.9289H42.994V15.8802Z" fill="#F69022"/>
<path d="M42.994 14.8315H41.9453V15.8802H42.994V14.8315Z" fill="#F69022"/>
<path d="M42.994 13.7839H41.9453V14.8315H42.994V13.7839Z" fill="#231F20"/>
<path d="M42.994 12.7353H41.9453V13.784H42.994V12.7353Z" fill="#231F20"/>
<path d="M42.994 11.6866H41.9453V12.7353H42.994V11.6866Z" fill="#231F20"/>
<path d="M41.9471 29.5098H40.8984V30.5585H41.9471V29.5098Z" fill="#231F20"/>
<path d="M41.9471 28.4622H40.8984V29.5098H41.9471V28.4622Z" fill="#F69022"/>
<path d="M41.9471 27.4136H40.8984V28.4623H41.9471V27.4136Z" fill="#F69022"/>
<path d="M41.9471 26.3649H40.8984V27.4135H41.9471V26.3649Z" fill="#F69022"/>
<path d="M41.9471 25.3162H40.8984V26.3649H41.9471V25.3162Z" fill="#FFE44F"/>
<path d="M41.9471 24.2686H40.8984V25.3162H41.9471V24.2686Z" fill="#FFE44F"/>
<path d="M41.9471 23.2199H40.8984V24.2686H41.9471V23.2199Z" fill="#FFE44F"/>
<path d="M41.9471 22.1713H40.8984V23.2199H41.9471V22.1713Z" fill="#FFE44F"/>
<path d="M41.9471 21.1226H40.8984V22.1712H41.9471V21.1226Z" fill="#FFE44F"/>
<path d="M41.9471 20.0739H40.8984V21.1225H41.9471V20.0739Z" fill="#FFE44F"/>
<path d="M41.9471 19.0263H40.8984V20.0739H41.9471V19.0263Z" fill="#FFE44F"/>
<path d="M41.9471 17.9776H40.8984V19.0263H41.9471V17.9776Z" fill="#FFE44F"/>
<path d="M41.9471 16.9289H40.8984V17.9776H41.9471V16.9289Z" fill="#FFE44F"/>
<path d="M41.9471 15.8802H40.8984V16.9289H41.9471V15.8802Z" fill="#FFE44F"/>
<path d="M41.9471 14.8315H40.8984V15.8802H41.9471V14.8315Z" fill="#F69022"/>
<path d="M41.9471 13.7839H40.8984V14.8315H41.9471V13.7839Z" fill="#F69022"/>
<path d="M41.9471 12.7353H40.8984V13.784H41.9471V12.7353Z" fill="#F69022"/>
<path d="M41.9471 11.6866H40.8984V12.7353H41.9471V11.6866Z" fill="#F69022"/>
<path d="M41.9471 10.6379H40.8984V11.6866H41.9471V10.6379Z" fill="#231F20"/>
<path d="M40.9002 31.6072H39.8516V32.6559H40.9002V31.6072Z" fill="#231F20"/>
<path d="M40.9002 30.5585H39.8516V31.6072H40.9002V30.5585Z" fill="#F69022"/>
<path d="M40.9002 29.5098H39.8516V30.5585H40.9002V29.5098Z" fill="#F69022"/>
<path d="M40.9002 28.4622H39.8516V29.5098H40.9002V28.4622Z" fill="#F69022"/>
<path d="M40.9002 27.4136H39.8516V28.4623H40.9002V27.4136Z" fill="#FFE44F"/>
<path d="M40.9002 26.3649H39.8516V27.4135H40.9002V26.3649Z" fill="#FFE44F"/>
<path d="M40.9002 25.3162H39.8516V26.3649H40.9002V25.3162Z" fill="#FFE44F"/>
<path d="M40.9002 24.2686H39.8516V25.3162H40.9002V24.2686Z" fill="#FFE44F"/>
<path d="M40.9002 23.2199H39.8516V24.2686H40.9002V23.2199Z" fill="#FFE44F"/>
<path d="M40.9002 22.1713H39.8516V23.2199H40.9002V22.1713Z" fill="#FFE44F"/>
<path d="M40.9002 21.1226H39.8516V22.1712H40.9002V21.1226Z" fill="#FFE44F"/>
<path d="M40.9002 20.0739H39.8516V21.1225H40.9002V20.0739Z" fill="#FFE44F"/>
<path d="M40.9002 19.0263H39.8516V20.0739H40.9002V19.0263Z" fill="#FFE44F"/>
<path d="M40.9002 17.9776H39.8516V19.0263H40.9002V17.9776Z" fill="#FFE44F"/>
<path d="M40.9002 16.9289H39.8516V17.9776H40.9002V16.9289Z" fill="#FFE44F"/>
<path d="M40.9002 15.8802H39.8516V16.9289H40.9002V15.8802Z" fill="#FFE44F"/>
<path d="M40.9002 14.8315H39.8516V15.8802H40.9002V14.8315Z" fill="#FFE44F"/>
<path d="M40.9002 13.7839H39.8516V14.8315H40.9002V13.7839Z" fill="#FFE44F"/>
<path d="M40.9002 12.7353H39.8516V13.784H40.9002V12.7353Z" fill="#FFE44F"/>
<path d="M40.9002 11.6866H39.8516V12.7353H40.9002V11.6866Z" fill="#F69022"/>
<path d="M40.9002 10.6379H39.8516V11.6866H40.9002V10.6379Z" fill="#F69022"/>
<path d="M40.9002 9.59033H39.8516V10.6379H40.9002V9.59033Z" fill="#231F20"/>
<path d="M40.9002 8.54163H39.8516V9.59031H40.9002V8.54163Z" fill="#231F20"/>
<path d="M39.8445 33.7045H38.7969V34.7521H39.8445V33.7045Z" fill="#231F20"/>
<path d="M39.8445 32.6559H38.7969V33.7046H39.8445V32.6559Z" fill="#F69022"/>
<path d="M39.8445 31.6072H38.7969V32.6559H39.8445V31.6072Z" fill="#F69022"/>
<path d="M39.8445 30.5585H38.7969V31.6072H39.8445V30.5585Z" fill="#F69022"/>
<path d="M39.8445 29.5098H38.7969V30.5585H39.8445V29.5098Z" fill="#FFE44F"/>
<path d="M39.8445 28.4622H38.7969V29.5098H39.8445V28.4622Z" fill="#FFE44F"/>
<path d="M39.8445 27.4136H38.7969V28.4623H39.8445V27.4136Z" fill="#FFE44F"/>
<path d="M39.8445 26.3649H38.7969V27.4135H39.8445V26.3649Z" fill="#FFE44F"/>
<path d="M39.8445 25.3162H38.7969V26.3649H39.8445V25.3162Z" fill="#FFE44F"/>
<path d="M39.8445 24.2686H38.7969V25.3162H39.8445V24.2686Z" fill="#FFE44F"/>
<path d="M39.8445 23.2199H38.7969V24.2686H39.8445V23.2199Z" fill="#FFE44F"/>
<path d="M39.8445 22.1713H38.7969V23.2199H39.8445V22.1713Z" fill="#FFE44F"/>
<path d="M39.8445 21.1226H38.7969V22.1712H39.8445V21.1226Z" fill="#FFE44F"/>
<path d="M39.8445 20.0739H38.7969V21.1225H39.8445V20.0739Z" fill="#FFE44F"/>
<path d="M39.8445 19.0263H38.7969V20.0739H39.8445V19.0263Z" fill="#FFE44F"/>
<path d="M39.8445 17.9776H38.7969V19.0263H39.8445V17.9776Z" fill="#FFE44F"/>
<path d="M39.8445 16.9289H38.7969V17.9776H39.8445V16.9289Z" fill="#FFE44F"/>
<path d="M39.8445 15.8802H38.7969V16.9289H39.8445V15.8802Z" fill="#FFE44F"/>
<path d="M39.8445 14.8315H38.7969V15.8802H39.8445V14.8315Z" fill="#FFE44F"/>
<path d="M39.8445 13.7839H38.7969V14.8315H39.8445V13.7839Z" fill="#FFE44F"/>
<path d="M39.8445 12.7353H38.7969V13.784H39.8445V12.7353Z" fill="#FFE44F"/>
<path d="M39.8445 11.6866H38.7969V12.7353H39.8445V11.6866Z" fill="#FFE44F"/>
<path d="M39.8445 10.6379H38.7969V11.6866H39.8445V10.6379Z" fill="#F69022"/>
<path d="M39.8445 9.59033H38.7969V10.6379H39.8445V9.59033Z" fill="#F69022"/>
<path d="M39.8445 8.54163H38.7969V9.59031H39.8445V8.54163Z" fill="#F69022"/>
<path d="M39.8445 7.49298H38.7969V8.54166H39.8445V7.49298Z" fill="#231F20"/>
<path d="M38.7987 34.7522H37.75V35.8009H38.7987V34.7522Z" fill="#231F20"/>
<path d="M38.7987 33.7045H37.75V34.7521H38.7987V33.7045Z" fill="#F69022"/>
<path d="M38.7987 32.6559H37.75V33.7046H38.7987V32.6559Z" fill="#F69022"/>
<path d="M38.7987 31.6072H37.75V32.6559H38.7987V31.6072Z" fill="#FFE44F"/>
<path d="M38.7987 30.5585H37.75V31.6072H38.7987V30.5585Z" fill="#FFE44F"/>
<path d="M38.7987 29.5098H37.75V30.5585H38.7987V29.5098Z" fill="#FFE44F"/>
<path d="M38.7987 28.4622H37.75V29.5098H38.7987V28.4622Z" fill="#FFE44F"/>
<path d="M38.7987 27.4136H37.75V28.4623H38.7987V27.4136Z" fill="#FFE44F"/>
<path d="M38.7987 26.3649H37.75V27.4135H38.7987V26.3649Z" fill="#FFE44F"/>
<path d="M38.7987 25.3162H37.75V26.3649H38.7987V25.3162Z" fill="#FFE44F"/>
<path d="M38.7987 24.2686H37.75V25.3162H38.7987V24.2686Z" fill="#F69022"/>
<path d="M38.7987 23.2199H37.75V24.2686H38.7987V23.2199Z" fill="#F69022"/>
<path d="M38.7987 22.1713H37.75V23.2199H38.7987V22.1713Z" fill="#FFE44F"/>
<path d="M38.7987 21.1226H37.75V22.1712H38.7987V21.1226Z" fill="#FFE44F"/>
<path d="M38.7987 20.0739H37.75V21.1225H38.7987V20.0739Z" fill="#F69022"/>
<path d="M38.7987 19.0263H37.75V20.0739H38.7987V19.0263Z" fill="#FFE44F"/>
<path d="M38.7987 17.9776H37.75V19.0263H38.7987V17.9776Z" fill="#F69022"/>
<path d="M38.7987 16.9289H37.75V17.9776H38.7987V16.9289Z" fill="#F69022"/>
<path d="M38.7987 15.8802H37.75V16.9289H38.7987V15.8802Z" fill="#FFE44F"/>
<path d="M38.7987 14.8315H37.75V15.8802H38.7987V14.8315Z" fill="#FFE44F"/>
<path d="M38.7987 13.7839H37.75V14.8315H38.7987V13.7839Z" fill="#FFE44F"/>
<path d="M38.7987 12.7353H37.75V13.784H38.7987V12.7353Z" fill="#FFE44F"/>
<path d="M38.7987 11.6866H37.75V12.7353H38.7987V11.6866Z" fill="#FFE44F"/>
<path d="M38.7987 10.6379H37.75V11.6866H38.7987V10.6379Z" fill="#FFE44F"/>
<path d="M38.7987 9.59033H37.75V10.6379H38.7987V9.59033Z" fill="#FFE44F"/>
<path d="M38.7987 8.54163H37.75V9.59031H38.7987V8.54163Z" fill="#F69022"/>
<path d="M38.7987 7.49298H37.75V8.54166H38.7987V7.49298Z" fill="#F69022"/>
<path d="M38.7987 6.44427H37.75V7.49295H38.7987V6.44427Z" fill="#231F20"/>
<path d="M37.7518 35.8008H36.7031V36.8495H37.7518V35.8008Z" fill="#231F20"/>
<path d="M37.7518 34.7522H36.7031V35.8009H37.7518V34.7522Z" fill="#F69022"/>
<path d="M37.7518 33.7045H36.7031V34.7521H37.7518V33.7045Z" fill="#F69022"/>
<path d="M37.7518 32.6559H36.7031V33.7046H37.7518V32.6559Z" fill="#FFE44F"/>
<path d="M37.7518 31.6072H36.7031V32.6559H37.7518V31.6072Z" fill="#FFE44F"/>
<path d="M37.7518 30.5585H36.7031V31.6072H37.7518V30.5585Z" fill="#FFE44F"/>
<path d="M37.7518 29.5098H36.7031V30.5585H37.7518V29.5098Z" fill="#FFE44F"/>
<path d="M37.7518 28.4622H36.7031V29.5098H37.7518V28.4622Z" fill="#FFE44F"/>
<path d="M37.7518 27.4136H36.7031V28.4623H37.7518V27.4136Z" fill="#FFE44F"/>
<path d="M37.7518 26.3649H36.7031V27.4135H37.7518V26.3649Z" fill="#F69022"/>
<path d="M37.7518 25.3162H36.7031V26.3649H37.7518V25.3162Z" fill="#F69022"/>
<path d="M37.7518 24.2686H36.7031V25.3162H37.7518V24.2686Z" fill="#FFE44F"/>
<path d="M37.7518 23.2199H36.7031V24.2686H37.7518V23.2199Z" fill="#FFE44F"/>
<path d="M37.7518 22.1713H36.7031V23.2199H37.7518V22.1713Z" fill="#FFE44F"/>
<path d="M37.7518 21.1226H36.7031V22.1712H37.7518V21.1226Z" fill="#FFE44F"/>
<path d="M37.7518 20.0739H36.7031V21.1225H37.7518V20.0739Z" fill="#FFE44F"/>
<path d="M37.7518 19.0263H36.7031V20.0739H37.7518V19.0263Z" fill="#FFE44F"/>
<path d="M37.7518 17.9776H36.7031V19.0263H37.7518V17.9776Z" fill="#FFE44F"/>
<path d="M37.7518 16.9289H36.7031V17.9776H37.7518V16.9289Z" fill="#FFE44F"/>
<path d="M37.7518 15.8802H36.7031V16.9289H37.7518V15.8802Z" fill="#FFE44F"/>
<path d="M37.7518 14.8315H36.7031V15.8802H37.7518V14.8315Z" fill="#FFE44F"/>
<path d="M37.7518 13.7839H36.7031V14.8315H37.7518V13.7839Z" fill="#FFE44F"/>
<path d="M37.7518 12.7353H36.7031V13.784H37.7518V12.7353Z" fill="#FFE44F"/>
<path d="M37.7518 11.6866H36.7031V12.7353H37.7518V11.6866Z" fill="#FFE44F"/>
<path d="M37.7518 10.6379H36.7031V11.6866H37.7518V10.6379Z" fill="#FFE44F"/>
<path d="M37.7518 9.59033H36.7031V10.6379H37.7518V9.59033Z" fill="#FFE44F"/>
<path d="M37.7518 8.54163H36.7031V9.59031H37.7518V8.54163Z" fill="#FFE44F"/>
<path d="M37.7518 7.49298H36.7031V8.54166H37.7518V7.49298Z" fill="#F69022"/>
<path d="M37.7518 6.44427H36.7031V7.49295H37.7518V6.44427Z" fill="#F69022"/>
<path d="M37.7518 5.39557H36.7031V6.44425H37.7518V5.39557Z" fill="#231F20"/>
<path d="M36.7049 36.8495H35.6562V37.8982H36.7049V36.8495Z" fill="#231F20"/>
<path d="M36.7049 35.8008H35.6562V36.8495H36.7049V35.8008Z" fill="#F69022"/>
<path d="M36.7049 34.7522H35.6562V35.8009H36.7049V34.7522Z" fill="#F69022"/>
<path d="M36.7049 33.7045H35.6562V34.7521H36.7049V33.7045Z" fill="#FFE44F"/>
<path d="M36.7049 32.6559H35.6562V33.7046H36.7049V32.6559Z" fill="#FFE44F"/>
<path d="M36.7049 31.6072H35.6562V32.6559H36.7049V31.6072Z" fill="#FFE44F"/>
<path d="M36.7049 30.5585H35.6562V31.6072H36.7049V30.5585Z" fill="#FFE44F"/>
<path d="M36.7049 29.5098H35.6562V30.5585H36.7049V29.5098Z" fill="#FFE44F"/>
<path d="M36.7049 28.4622H35.6562V29.5098H36.7049V28.4622Z" fill="#FFE44F"/>
<path d="M36.7049 27.4136H35.6562V28.4623H36.7049V27.4136Z" fill="#F69022"/>
<path d="M36.7049 26.3649H35.6562V27.4135H36.7049V26.3649Z" fill="#FFE44F"/>
<path d="M36.7049 25.3162H35.6562V26.3649H36.7049V25.3162Z" fill="#FFE44F"/>
<path d="M36.7049 24.2686H35.6562V25.3162H36.7049V24.2686Z" fill="#FFE44F"/>
<path d="M36.7049 23.2199H35.6562V24.2686H36.7049V23.2199Z" fill="#FFE44F"/>
<path d="M36.7049 22.1713H35.6562V23.2199H36.7049V22.1713Z" fill="#FFE44F"/>
<path d="M36.7049 21.1226H35.6562V22.1712H36.7049V21.1226Z" fill="#FFE44F"/>
<path d="M36.7049 20.0739H35.6562V21.1225H36.7049V20.0739Z" fill="#FFE44F"/>
<path d="M36.7049 19.0263H35.6562V20.0739H36.7049V19.0263Z" fill="#FFE44F"/>
<path d="M36.7049 17.9776H35.6562V19.0263H36.7049V17.9776Z" fill="#FFE44F"/>
<path d="M36.7049 16.9289H35.6562V17.9776H36.7049V16.9289Z" fill="#FFE44F"/>
<path d="M36.7049 15.8802H35.6562V16.9289H36.7049V15.8802Z" fill="#FFE44F"/>
<path d="M36.7049 14.8315H35.6562V15.8802H36.7049V14.8315Z" fill="#FFE44F"/>
<path d="M36.7049 13.7839H35.6562V14.8315H36.7049V13.7839Z" fill="#F69022"/>
<path d="M36.7049 12.7353H35.6562V13.784H36.7049V12.7353Z" fill="#FFE44F"/>
<path d="M36.7049 11.6866H35.6562V12.7353H36.7049V11.6866Z" fill="#FFE44F"/>
<path d="M36.7049 10.6379H35.6562V11.6866H36.7049V10.6379Z" fill="#FFE44F"/>
<path d="M36.7049 9.59033H35.6562V10.6379H36.7049V9.59033Z" fill="#FFE44F"/>
<path d="M36.7049 8.54163H35.6562V9.59031H36.7049V8.54163Z" fill="#FFE44F"/>
<path d="M36.7049 7.49298H35.6562V8.54166H36.7049V7.49298Z" fill="#FFE44F"/>
<path d="M36.7049 6.44427H35.6562V7.49295H36.7049V6.44427Z" fill="#F69022"/>
<path d="M36.7049 5.39557H35.6562V6.44425H36.7049V5.39557Z" fill="#F69022"/>
<path d="M35.657 36.8495H34.6094V37.8982H35.657V36.8495Z" fill="#231F20"/>
<path d="M35.657 35.8008H34.6094V36.8495H35.657V35.8008Z" fill="#F69022"/>
<path d="M35.657 34.7522H34.6094V35.8009H35.657V34.7522Z" fill="#FFE44F"/>
<path d="M35.657 33.7045H34.6094V34.7521H35.657V33.7045Z" fill="#FFE44F"/>
<path d="M35.657 32.6559H34.6094V33.7046H35.657V32.6559Z" fill="#FFE44F"/>
<path d="M35.657 31.6072H34.6094V32.6559H35.657V31.6072Z" fill="#FFE44F"/>
<path d="M35.657 30.5585H34.6094V31.6072H35.657V30.5585Z" fill="#FFE44F"/>
<path d="M35.657 29.5098H34.6094V30.5585H35.657V29.5098Z" fill="#F69022"/>
<path d="M35.657 28.4622H34.6094V29.5098H35.657V28.4622Z" fill="#F69022"/>
<path d="M35.657 27.4136H34.6094V28.4623H35.657V27.4136Z" fill="#FFE44F"/>
<path d="M35.657 26.3649H34.6094V27.4135H35.657V26.3649Z" fill="#FFE44F"/>
<path d="M35.657 25.3162H34.6094V26.3649H35.657V25.3162Z" fill="#FFE44F"/>
<path d="M35.657 24.2686H34.6094V25.3162H35.657V24.2686Z" fill="#FFE44F"/>
<path d="M35.657 23.2199H34.6094V24.2686H35.657V23.2199Z" fill="#FFE44F"/>
<path d="M35.657 22.1713H34.6094V23.2199H35.657V22.1713Z" fill="#FFE44F"/>
<path d="M35.657 21.1226H34.6094V22.1712H35.657V21.1226Z" fill="#FFE44F"/>
<path d="M35.657 20.0739H34.6094V21.1225H35.657V20.0739Z" fill="#FFE44F"/>
<path d="M35.657 19.0263H34.6094V20.0739H35.657V19.0263Z" fill="#FFE44F"/>
<path d="M35.657 17.9776H34.6094V19.0263H35.657V17.9776Z" fill="#FFE44F"/>
<path d="M35.657 16.9289H34.6094V17.9776H35.657V16.9289Z" fill="#FFE44F"/>
<path d="M35.657 15.8802H34.6094V16.9289H35.657V15.8802Z" fill="#FFE44F"/>
<path d="M35.657 14.8315H34.6094V15.8802H35.657V14.8315Z" fill="#FFE44F"/>
<path d="M35.657 13.7839H34.6094V14.8315H35.657V13.7839Z" fill="#FFE44F"/>
<path d="M35.657 12.7353H34.6094V13.784H35.657V12.7353Z" fill="#F69022"/>
<path d="M35.657 11.6866H34.6094V12.7353H35.657V11.6866Z" fill="#F69022"/>
<path d="M35.657 10.6379H34.6094V11.6866H35.657V10.6379Z" fill="#FFE44F"/>
<path d="M35.657 9.59033H34.6094V10.6379H35.657V9.59033Z" fill="#FFE44F"/>
<path d="M35.657 8.54163H34.6094V9.59031H35.657V8.54163Z" fill="#FFE44F"/>
<path d="M35.657 7.49298H34.6094V8.54166H35.657V7.49298Z" fill="#FFE44F"/>
<path d="M35.657 6.44427H34.6094V7.49295H35.657V6.44427Z" fill="#FFE44F"/>
<path d="M35.657 5.39557H34.6094V6.44425H35.657V5.39557Z" fill="#F69022"/>
<path d="M35.657 4.34802H34.6094V5.39562H35.657V4.34802Z" fill="#231F20"/>
<path d="M34.6034 37.8982H33.5547V38.9458H34.6034V37.8982Z" fill="#231F20"/>
<path d="M34.6034 36.8495H33.5547V37.8982H34.6034V36.8495Z" fill="#F69022"/>
<path d="M34.6034 35.8008H33.5547V36.8495H34.6034V35.8008Z" fill="#F69022"/>
<path d="M34.6034 34.7522H33.5547V35.8009H34.6034V34.7522Z" fill="#FFE44F"/>
<path d="M34.6034 33.7045H33.5547V34.7521H34.6034V33.7045Z" fill="#FFE44F"/>
<path d="M34.6034 32.6559H33.5547V33.7046H34.6034V32.6559Z" fill="#FFE44F"/>
<path d="M34.6034 31.6072H33.5547V32.6559H34.6034V31.6072Z" fill="#F69022"/>
<path d="M34.6034 30.5585H33.5547V31.6072H34.6034V30.5585Z" fill="#F69022"/>
<path d="M34.6034 29.5098H33.5547V30.5585H34.6034V29.5098Z" fill="#FFE44F"/>
<path d="M34.6034 28.4622H33.5547V29.5098H34.6034V28.4622Z" fill="#FFE44F"/>
<path d="M34.6034 27.4136H33.5547V28.4623H34.6034V27.4136Z" fill="#FFE44F"/>
<path d="M34.6034 26.3649H33.5547V27.4135H34.6034V26.3649Z" fill="#FFE44F"/>
<path d="M34.6034 25.3162H33.5547V26.3649H34.6034V25.3162Z" fill="#FFE44F"/>
<path d="M34.6034 24.2686H33.5547V25.3162H34.6034V24.2686Z" fill="#FFE44F"/>
<path d="M34.6034 23.2199H33.5547V24.2686H34.6034V23.2199Z" fill="#FFE44F"/>
<path d="M34.6034 22.1713H33.5547V23.2199H34.6034V22.1713Z" fill="#FFE44F"/>
<path d="M34.6034 21.1226H33.5547V22.1712H34.6034V21.1226Z" fill="#FFE44F"/>
<path d="M34.6034 20.0739H33.5547V21.1225H34.6034V20.0739Z" fill="#FFE44F"/>
<path d="M34.6034 19.0263H33.5547V20.0739H34.6034V19.0263Z" fill="#FFE44F"/>
<path d="M34.6034 17.9776H33.5547V19.0263H34.6034V17.9776Z" fill="#FFE44F"/>
<path d="M34.6034 16.9289H33.5547V17.9776H34.6034V16.9289Z" fill="#FFE44F"/>
<path d="M34.6034 15.8802H33.5547V16.9289H34.6034V15.8802Z" fill="#FFE44F"/>
<path d="M34.6034 14.8315H33.5547V15.8802H34.6034V14.8315Z" fill="#FFE44F"/>
<path d="M34.6034 13.7839H33.5547V14.8315H34.6034V13.7839Z" fill="#FFE44F"/>
<path d="M34.6034 12.7353H33.5547V13.784H34.6034V12.7353Z" fill="#FFE44F"/>
<path d="M34.6034 11.6866H33.5547V12.7353H34.6034V11.6866Z" fill="#FFE44F"/>
<path d="M34.6034 10.6379H33.5547V11.6866H34.6034V10.6379Z" fill="#F69022"/>
<path d="M34.6034 9.59033H33.5547V10.6379H34.6034V9.59033Z" fill="#F69022"/>
<path d="M34.6034 8.54163H33.5547V9.59031H34.6034V8.54163Z" fill="#FFE44F"/>
<path d="M34.6034 7.49298H33.5547V8.54166H34.6034V7.49298Z" fill="#FFE44F"/>
<path d="M34.6034 6.44427H33.5547V7.49295H34.6034V6.44427Z" fill="#FFE44F"/>
<path d="M34.6034 5.39557H33.5547V6.44425H34.6034V5.39557Z" fill="#FFE44F"/>
<path d="M34.6034 4.34802H33.5547V5.39562H34.6034V4.34802Z" fill="#F69022"/>
<path d="M34.6034 3.29932H33.5547V4.348H34.6034V3.29932Z" fill="#231F20"/>
<path d="M33.5565 38.9458H32.5078V39.9945H33.5565V38.9458Z" fill="#231F20"/>
<path d="M33.5565 37.8982H32.5078V38.9458H33.5565V37.8982Z" fill="#231F20"/>
<path d="M33.5565 36.8495H32.5078V37.8982H33.5565V36.8495Z" fill="#F69022"/>
<path d="M33.5565 35.8008H32.5078V36.8495H33.5565V35.8008Z" fill="#FFE44F"/>
<path d="M33.5565 34.7522H32.5078V35.8009H33.5565V34.7522Z" fill="#FFE44F"/>
<path d="M33.5565 33.7045H32.5078V34.7521H33.5565V33.7045Z" fill="#FFE44F"/>
<path d="M33.5565 32.6559H32.5078V33.7046H33.5565V32.6559Z" fill="#F69022"/>
<path d="M33.5565 31.6072H32.5078V32.6559H33.5565V31.6072Z" fill="#FFE44F"/>
<path d="M33.5565 30.5585H32.5078V31.6072H33.5565V30.5585Z" fill="#FFE44F"/>
<path d="M33.5565 29.5098H32.5078V30.5585H33.5565V29.5098Z" fill="#FFE44F"/>
<path d="M33.5565 28.4622H32.5078V29.5098H33.5565V28.4622Z" fill="#FFE44F"/>
<path d="M33.5565 27.4136H32.5078V28.4623H33.5565V27.4136Z" fill="#FFE44F"/>
<path d="M33.5565 26.3649H32.5078V27.4135H33.5565V26.3649Z" fill="#FFE44F"/>
<path d="M33.5565 25.3162H32.5078V26.3649H33.5565V25.3162Z" fill="#FFE44F"/>
<path d="M33.5565 24.2686H32.5078V25.3162H33.5565V24.2686Z" fill="#231F20"/>
<path d="M33.5565 23.2199H32.5078V24.2686H33.5565V23.2199Z" fill="#231F20"/>
<path d="M33.5565 22.1713H32.5078V23.2199H33.5565V22.1713Z" fill="#231F20"/>
<path d="M33.5565 21.1226H32.5078V22.1712H33.5565V21.1226Z" fill="#231F20"/>
<path d="M33.5565 20.0739H32.5078V21.1225H33.5565V20.0739Z" fill="#231F20"/>
<path d="M33.5565 19.0263H32.5078V20.0739H33.5565V19.0263Z" fill="#231F20"/>
<path d="M33.5565 17.9776H32.5078V19.0263H33.5565V17.9776Z" fill="#231F20"/>
<path d="M33.5565 16.9289H32.5078V17.9776H33.5565V16.9289Z" fill="#231F20"/>
<path d="M33.5565 15.8802H32.5078V16.9289H33.5565V15.8802Z" fill="#231F20"/>
<path d="M33.5565 14.8315H32.5078V15.8802H33.5565V14.8315Z" fill="#FFE44F"/>
<path d="M33.5565 13.7839H32.5078V14.8315H33.5565V13.7839Z" fill="#FFE44F"/>
<path d="M33.5565 12.7353H32.5078V13.784H33.5565V12.7353Z" fill="#FFE44F"/>
<path d="M33.5565 11.6866H32.5078V12.7353H33.5565V11.6866Z" fill="#FFE44F"/>
<path d="M33.5565 10.6379H32.5078V11.6866H33.5565V10.6379Z" fill="#FFE44F"/>
<path d="M33.5565 9.59033H32.5078V10.6379H33.5565V9.59033Z" fill="#FFE44F"/>
<path d="M33.5565 8.54163H32.5078V9.59031H33.5565V8.54163Z" fill="#F69022"/>
<path d="M33.5565 7.49298H32.5078V8.54166H33.5565V7.49298Z" fill="#FFE44F"/>
<path d="M33.5565 6.44427H32.5078V7.49295H33.5565V6.44427Z" fill="#FFE44F"/>
<path d="M33.5565 5.39557H32.5078V6.44425H33.5565V5.39557Z" fill="#FFE44F"/>
<path d="M33.5565 4.34802H32.5078V5.39562H33.5565V4.34802Z" fill="#F69022"/>
<path d="M33.5565 3.29932H32.5078V4.348H33.5565V3.29932Z" fill="#231F20"/>
<path d="M32.5096 38.9458H31.4609V39.9945H32.5096V38.9458Z" fill="#231F20"/>
<path d="M32.5096 37.8982H31.4609V38.9458H32.5096V37.8982Z" fill="#F69022"/>
<path d="M32.5096 36.8495H31.4609V37.8982H32.5096V36.8495Z" fill="#FFE44F"/>
<path d="M32.5096 35.8008H31.4609V36.8495H32.5096V35.8008Z" fill="#FFE44F"/>
<path d="M32.5096 34.7522H31.4609V35.8009H32.5096V34.7522Z" fill="#FFE44F"/>
<path d="M32.5096 33.7045H31.4609V34.7521H32.5096V33.7045Z" fill="#F69022"/>
<path d="M32.5096 32.6559H31.4609V33.7046H32.5096V32.6559Z" fill="#FFE44F"/>
<path d="M32.5096 31.6072H31.4609V32.6559H32.5096V31.6072Z" fill="#FFE44F"/>
<path d="M32.5096 30.5585H31.4609V31.6072H32.5096V30.5585Z" fill="#FFE44F"/>
<path d="M32.5096 29.5098H31.4609V30.5585H32.5096V29.5098Z" fill="#FFE44F"/>
<path d="M32.5096 28.4622H31.4609V29.5098H32.5096V28.4622Z" fill="#FFE44F"/>
<path d="M32.5096 27.4136H31.4609V28.4623H32.5096V27.4136Z" fill="#FFE44F"/>
<path d="M32.5096 26.3649H31.4609V27.4135H32.5096V26.3649Z" fill="#231F20"/>
<path d="M32.5096 25.3162H31.4609V26.3649H32.5096V25.3162Z" fill="#231F20"/>
<path d="M32.5096 22.1713H31.4609V23.2199H32.5096V22.1713Z" fill="#231F20"/>
<path d="M32.5096 21.1226H31.4609V22.1712H32.5096V21.1226Z" fill="#F69022"/>
<path d="M32.5096 20.0739H31.4609V21.1225H32.5096V20.0739Z" fill="#F69022"/>
<path d="M32.5096 19.0263H31.4609V20.0739H32.5096V19.0263Z" fill="#F69022"/>
<path d="M32.5096 17.9776H31.4609V19.0263H32.5096V17.9776Z" fill="#F69022"/>
<path d="M32.5096 16.9289H31.4609V17.9776H32.5096V16.9289Z" fill="#F69022"/>
<path d="M32.5096 15.8802H31.4609V16.9289H32.5096V15.8802Z" fill="#231F20"/>
<path d="M32.5096 14.8315H31.4609V15.8802H32.5096V14.8315Z" fill="#231F20"/>
<path d="M32.5096 13.7839H31.4609V14.8315H32.5096V13.7839Z" fill="#FFE44F"/>
<path d="M32.5096 12.7353H31.4609V13.784H32.5096V12.7353Z" fill="#FFE44F"/>
<path d="M32.5096 11.6866H31.4609V12.7353H32.5096V11.6866Z" fill="#FFE44F"/>
<path d="M32.5096 10.6379H31.4609V11.6866H32.5096V10.6379Z" fill="#FFE44F"/>
<path d="M32.5096 9.59033H31.4609V10.6379H32.5096V9.59033Z" fill="#FFE44F"/>
<path d="M32.5096 8.54163H31.4609V9.59031H32.5096V8.54163Z" fill="#F69022"/>
<path d="M32.5096 7.49298H31.4609V8.54166H32.5096V7.49298Z" fill="#FFE44F"/>
<path d="M32.5096 6.44427H31.4609V7.49295H32.5096V6.44427Z" fill="#FFE44F"/>
<path d="M32.5096 5.39557H31.4609V6.44425H32.5096V5.39557Z" fill="#FFE44F"/>
<path d="M32.5096 4.34802H31.4609V5.39562H32.5096V4.34802Z" fill="#F69022"/>
<path d="M32.5096 3.29932H31.4609V4.348H32.5096V3.29932Z" fill="#231F20"/>
<path d="M31.4627 38.9458H30.4141V39.9945H31.4627V38.9458Z" fill="#231F20"/>
<path d="M31.4627 37.8982H30.4141V38.9458H31.4627V37.8982Z" fill="#F69022"/>
<path d="M31.4627 36.8495H30.4141V37.8982H31.4627V36.8495Z" fill="#FFE44F"/>
<path d="M31.4627 35.8008H30.4141V36.8495H31.4627V35.8008Z" fill="#FFE44F"/>
<path d="M31.4627 34.7522H30.4141V35.8009H31.4627V34.7522Z" fill="#F69022"/>
<path d="M31.4627 33.7045H30.4141V34.7521H31.4627V33.7045Z" fill="#FFE44F"/>
<path d="M31.4627 32.6559H30.4141V33.7046H31.4627V32.6559Z" fill="#FFE44F"/>
<path d="M31.4627 31.6072H30.4141V32.6559H31.4627V31.6072Z" fill="#FFE44F"/>
<path d="M31.4627 30.5585H30.4141V31.6072H31.4627V30.5585Z" fill="#FFE44F"/>
<path d="M31.4627 29.5098H30.4141V30.5585H31.4627V29.5098Z" fill="#FFE44F"/>
<path d="M31.4627 28.4622H30.4141V29.5098H31.4627V28.4622Z" fill="#FFE44F"/>
<path d="M31.4627 27.4136H30.4141V28.4623H31.4627V27.4136Z" fill="#231F20"/>
<path d="M31.4627 24.2686H30.4141V25.3162H31.4627V24.2686Z" fill="#231F20"/>
<path d="M31.4627 23.2199H30.4141V24.2686H31.4627V23.2199Z" fill="#231F20"/>
<path d="M31.4627 22.1713H30.4141V23.2199H31.4627V22.1713Z" fill="#F69022"/>
<path d="M31.4627 21.1226H30.4141V22.1712H31.4627V21.1226Z" fill="#F69022"/>
<path d="M31.4627 20.0739H30.4141V21.1225H31.4627V20.0739Z" fill="#F69022"/>
<path d="M31.4627 19.0263H30.4141V20.0739H31.4627V19.0263Z" fill="#F69022"/>
<path d="M31.4627 17.9776H30.4141V19.0263H31.4627V17.9776Z" fill="#F69022"/>
<path d="M31.4627 16.9289H30.4141V17.9776H31.4627V16.9289Z" fill="#F69022"/>
<path d="M31.4627 15.8802H30.4141V16.9289H31.4627V15.8802Z" fill="#F69022"/>
<path d="M31.4627 14.8315H30.4141V15.8802H31.4627V14.8315Z" fill="#F69022"/>
<path d="M31.4627 13.7839H30.4141V14.8315H31.4627V13.7839Z" fill="#231F20"/>
<path d="M31.4627 12.7353H30.4141V13.784H31.4627V12.7353Z" fill="#231F20"/>
<path d="M31.4627 11.6866H30.4141V12.7353H31.4627V11.6866Z" fill="#FFE44F"/>
<path d="M31.4627 10.6379H30.4141V11.6866H31.4627V10.6379Z" fill="#FFE44F"/>
<path d="M31.4627 9.59033H30.4141V10.6379H31.4627V9.59033Z" fill="#FFE44F"/>
<path d="M31.4627 8.54163H30.4141V9.59031H31.4627V8.54163Z" fill="#FFE44F"/>
<path d="M31.4627 7.49298H30.4141V8.54166H31.4627V7.49298Z" fill="#F69022"/>
<path d="M31.4627 6.44427H30.4141V7.49295H31.4627V6.44427Z" fill="#FFE44F"/>
<path d="M31.4627 5.39557H30.4141V6.44425H31.4627V5.39557Z" fill="#FFE44F"/>
<path d="M31.4627 4.34802H30.4141V5.39562H31.4627V4.34802Z" fill="#FFE44F"/>
<path d="M31.4627 3.29932H30.4141V4.348H31.4627V3.29932Z" fill="#231F20"/>
<path d="M30.4148 39.9945H29.3672V41.0432H30.4148V39.9945Z" fill="#231F20"/>
<path d="M30.4148 38.9458H29.3672V39.9945H30.4148V38.9458Z" fill="#F69022"/>
<path d="M30.4148 37.8982H29.3672V38.9458H30.4148V37.8982Z" fill="#FFE44F"/>
<path d="M30.4148 36.8495H29.3672V37.8982H30.4148V36.8495Z" fill="#FFE44F"/>
<path d="M30.4148 35.8008H29.3672V36.8495H30.4148V35.8008Z" fill="#F69022"/>
<path d="M30.4148 34.7522H29.3672V35.8009H30.4148V34.7522Z" fill="#F69022"/>
<path d="M30.4148 33.7045H29.3672V34.7521H30.4148V33.7045Z" fill="#FFE44F"/>
<path d="M30.4148 32.6559H29.3672V33.7046H30.4148V32.6559Z" fill="#FFE44F"/>
<path d="M30.4148 31.6072H29.3672V32.6559H30.4148V31.6072Z" fill="#FFE44F"/>
<path d="M30.4148 30.5585H29.3672V31.6072H30.4148V30.5585Z" fill="#FFE44F"/>
<path d="M30.4148 29.5098H29.3672V30.5585H30.4148V29.5098Z" fill="#FFE44F"/>
<path d="M30.4148 28.4622H29.3672V29.5098H30.4148V28.4622Z" fill="#231F20"/>
<path d="M30.4148 25.3162H29.3672V26.3649H30.4148V25.3162Z" fill="#231F20"/>
<path d="M30.4148 24.2686H29.3672V25.3162H30.4148V24.2686Z" fill="#F69022"/>
<path d="M30.4148 23.2199H29.3672V24.2686H30.4148V23.2199Z" fill="#F69022"/>
<path d="M30.4148 22.1713H29.3672V23.2199H30.4148V22.1713Z" fill="#F69022"/>
<path d="M30.4148 21.1226H29.3672V22.1712H30.4148V21.1226Z" fill="#F69022"/>
<path d="M30.4148 20.0739H29.3672V21.1225H30.4148V20.0739Z" fill="#F69022"/>
<path d="M30.4148 19.0263H29.3672V20.0739H30.4148V19.0263Z" fill="#F69022"/>
<path d="M30.4148 17.9776H29.3672V19.0263H30.4148V17.9776Z" fill="#F69022"/>
<path d="M30.4148 16.9289H29.3672V17.9776H30.4148V16.9289Z" fill="#F69022"/>
<path d="M30.4148 15.8802H29.3672V16.9289H30.4148V15.8802Z" fill="#F69022"/>
<path d="M30.4148 14.8315H29.3672V15.8802H30.4148V14.8315Z" fill="#F69022"/>
<path d="M30.4148 13.7839H29.3672V14.8315H30.4148V13.7839Z" fill="#F69022"/>
<path d="M30.4148 12.7353H29.3672V13.784H30.4148V12.7353Z" fill="#F69022"/>
<path d="M30.4148 11.6866H29.3672V12.7353H30.4148V11.6866Z" fill="#231F20"/>
<path d="M30.4148 10.6379H29.3672V11.6866H30.4148V10.6379Z" fill="#231F20"/>
<path d="M30.4148 9.59033H29.3672V10.6379H30.4148V9.59033Z" fill="#FFE44F"/>
<path d="M30.4148 8.54163H29.3672V9.59031H30.4148V8.54163Z" fill="#FFE44F"/>
<path d="M30.4148 7.49298H29.3672V8.54166H30.4148V7.49298Z" fill="#FFE44F"/>
<path d="M30.4148 6.44427H29.3672V7.49295H30.4148V6.44427Z" fill="#F69022"/>
<path d="M30.4148 5.39557H29.3672V6.44425H30.4148V5.39557Z" fill="#FFE44F"/>
<path d="M30.4148 4.34802H29.3672V5.39562H30.4148V4.34802Z" fill="#FFE44F"/>
<path d="M30.4148 3.29932H29.3672V4.348H30.4148V3.29932Z" fill="#231F20"/>
<path d="M29.3612 39.9945H28.3125V41.0432H29.3612V39.9945Z" fill="#231F20"/>
<path d="M29.3612 38.9458H28.3125V39.9945H29.3612V38.9458Z" fill="#F69022"/>
<path d="M29.3612 37.8982H28.3125V38.9458H29.3612V37.8982Z" fill="#FFE44F"/>
<path d="M29.3612 36.8495H28.3125V37.8982H29.3612V36.8495Z" fill="#F69022"/>
<path d="M29.3612 35.8008H28.3125V36.8495H29.3612V35.8008Z" fill="#F69022"/>
<path d="M29.3612 34.7522H28.3125V35.8009H29.3612V34.7522Z" fill="#FFE44F"/>
<path d="M29.3612 33.7045H28.3125V34.7521H29.3612V33.7045Z" fill="#FFE44F"/>
<path d="M29.3612 32.6559H28.3125V33.7046H29.3612V32.6559Z" fill="#FFE44F"/>
<path d="M29.3612 31.6072H28.3125V32.6559H29.3612V31.6072Z" fill="#FFE44F"/>
<path d="M29.3612 30.5585H28.3125V31.6072H29.3612V30.5585Z" fill="#FFE44F"/>
<path d="M29.3612 29.5098H28.3125V30.5585H29.3612V29.5098Z" fill="#231F20"/>
<path d="M29.3612 27.4136H28.3125V28.4623H29.3612V27.4136Z" fill="#231F20"/>
<path d="M29.3612 26.3649H28.3125V27.4135H29.3612V26.3649Z" fill="#231F20"/>
<path d="M29.3612 25.3162H28.3125V26.3649H29.3612V25.3162Z" fill="#F69022"/>
<path d="M29.3612 24.2686H28.3125V25.3162H29.3612V24.2686Z" fill="#F69022"/>
<path d="M29.3612 23.2199H28.3125V24.2686H29.3612V23.2199Z" fill="#F69022"/>
<path d="M29.3612 22.1713H28.3125V23.2199H29.3612V22.1713Z" fill="#F69022"/>
<path d="M29.3612 21.1226H28.3125V22.1712H29.3612V21.1226Z" fill="#F69022"/>
<path d="M29.3612 20.0739H28.3125V21.1225H29.3612V20.0739Z" fill="#F69022"/>
<path d="M29.3612 19.0263H28.3125V20.0739H29.3612V19.0263Z" fill="#F69022"/>
<path d="M29.3612 17.9776H28.3125V19.0263H29.3612V17.9776Z" fill="#F69022"/>
<path d="M29.3612 16.9289H28.3125V17.9776H29.3612V16.9289Z" fill="#FFE44F"/>
<path d="M29.3612 15.8802H28.3125V16.9289H29.3612V15.8802Z" fill="#FFE44F"/>
<path d="M29.3612 14.8315H28.3125V15.8802H29.3612V14.8315Z" fill="#F69022"/>
<path d="M29.3612 13.7839H28.3125V14.8315H29.3612V13.7839Z" fill="#F69022"/>
<path d="M29.3612 12.7353H28.3125V13.784H29.3612V12.7353Z" fill="#F69022"/>
<path d="M29.3612 11.6866H28.3125V12.7353H29.3612V11.6866Z" fill="#F69022"/>
<path d="M29.3612 10.6379H28.3125V11.6866H29.3612V10.6379Z" fill="#F69022"/>
<path d="M29.3612 9.59033H28.3125V10.6379H29.3612V9.59033Z" fill="#231F20"/>
<path d="M29.3612 8.54163H28.3125V9.59031H29.3612V8.54163Z" fill="#231F20"/>
<path d="M29.3612 7.49298H28.3125V8.54166H29.3612V7.49298Z" fill="#FFE44F"/>
<path d="M29.3612 6.44427H28.3125V7.49295H29.3612V6.44427Z" fill="#3DB341"/>
<path d="M29.3612 5.39557H28.3125V6.44425H29.3612V5.39557Z" fill="#3DB341"/>
<path d="M29.3612 4.34802H28.3125V5.39562H29.3612V4.34802Z" fill="#231F20"/>
<path d="M28.3143 39.9945H27.2656V41.0432H28.3143V39.9945Z" fill="#231F20"/>
<path d="M28.3143 38.9458H27.2656V39.9945H28.3143V38.9458Z" fill="#F69022"/>
<path d="M28.3143 37.8982H27.2656V38.9458H28.3143V37.8982Z" fill="#FFE44F"/>
<path d="M28.3143 36.8495H27.2656V37.8982H28.3143V36.8495Z" fill="#F69022"/>
<path d="M28.3143 35.8008H27.2656V36.8495H28.3143V35.8008Z" fill="#FFE44F"/>
<path d="M28.3143 34.7522H27.2656V35.8009H28.3143V34.7522Z" fill="#FFE44F"/>
<path d="M28.3143 33.7045H27.2656V34.7521H28.3143V33.7045Z" fill="#FFE44F"/>
<path d="M28.3143 32.6559H27.2656V33.7046H28.3143V32.6559Z" fill="#FFE44F"/>
<path d="M28.3143 31.6072H27.2656V32.6559H28.3143V31.6072Z" fill="#231F20"/>
<path d="M28.3143 30.5585H27.2656V31.6072H28.3143V30.5585Z" fill="#231F20"/>
<path d="M28.3143 28.4622H27.2656V29.5098H28.3143V28.4622Z" fill="#231F20"/>
<path d="M28.3143 27.4136H27.2656V28.4623H28.3143V27.4136Z" fill="#F69022"/>
<path d="M28.3143 26.3649H27.2656V27.4135H28.3143V26.3649Z" fill="#F69022"/>
<path d="M28.3143 25.3162H27.2656V26.3649H28.3143V25.3162Z" fill="#F69022"/>
<path d="M28.3143 24.2686H27.2656V25.3162H28.3143V24.2686Z" fill="#F69022"/>
<path d="M28.3143 23.2199H27.2656V24.2686H28.3143V23.2199Z" fill="#F69022"/>
<path d="M28.3143 22.1713H27.2656V23.2199H28.3143V22.1713Z" fill="#F69022"/>
<path d="M28.3143 21.1226H27.2656V22.1712H28.3143V21.1226Z" fill="#F69022"/>
<path d="M28.3143 20.0739H27.2656V21.1225H28.3143V20.0739Z" fill="#FFE44F"/>
<path d="M28.3143 19.0263H27.2656V20.0739H28.3143V19.0263Z" fill="#FFE44F"/>
<path d="M28.3143 17.9776H27.2656V19.0263H28.3143V17.9776Z" fill="#FFE44F"/>
<path d="M28.3143 16.9289H27.2656V17.9776H28.3143V16.9289Z" fill="#FFE44F"/>
<path d="M28.3143 15.8802H27.2656V16.9289H28.3143V15.8802Z" fill="#FFE44F"/>
<path d="M28.3143 14.8315H27.2656V15.8802H28.3143V14.8315Z" fill="#FFE44F"/>
<path d="M28.3143 13.7839H27.2656V14.8315H28.3143V13.7839Z" fill="#FFE44F"/>
<path d="M28.3143 12.7353H27.2656V13.784H28.3143V12.7353Z" fill="#FFE44F"/>
<path d="M28.3143 11.6866H27.2656V12.7353H28.3143V11.6866Z" fill="#F69022"/>
<path d="M28.3143 10.6379H27.2656V11.6866H28.3143V10.6379Z" fill="#F69022"/>
<path d="M28.3143 9.59033H27.2656V10.6379H28.3143V9.59033Z" fill="#F69022"/>
<path d="M28.3143 8.54163H27.2656V9.59031H28.3143V8.54163Z" fill="#F69022"/>
<path d="M28.3143 7.49298H27.2656V8.54166H28.3143V7.49298Z" fill="#231F20"/>
<path d="M28.3143 6.44427H27.2656V7.49295H28.3143V6.44427Z" fill="#3DB341"/>
<path d="M28.3143 5.39557H27.2656V6.44425H28.3143V5.39557Z" fill="#3DB341"/>
<path d="M28.3143 4.34802H27.2656V5.39562H28.3143V4.34802Z" fill="#231F20"/>
<path d="M27.2674 39.9945H26.2188V41.0432H27.2674V39.9945Z" fill="#231F20"/>
<path d="M27.2674 38.9458H26.2188V39.9945H27.2674V38.9458Z" fill="#F69022"/>
<path d="M27.2674 37.8982H26.2188V38.9458H27.2674V37.8982Z" fill="#FFE44F"/>
<path d="M27.2674 36.8495H26.2188V37.8982H27.2674V36.8495Z" fill="#F69022"/>
<path d="M27.2674 35.8008H26.2188V36.8495H27.2674V35.8008Z" fill="#FFE44F"/>
<path d="M27.2674 34.7522H26.2188V35.8009H27.2674V34.7522Z" fill="#FFE44F"/>
<path d="M27.2674 33.7045H26.2188V34.7521H27.2674V33.7045Z" fill="#FFE44F"/>
<path d="M27.2674 32.6559H26.2188V33.7046H27.2674V32.6559Z" fill="#FFE44F"/>
<path d="M27.2674 31.6072H26.2188V32.6559H27.2674V31.6072Z" fill="#231F20"/>
<path d="M27.2674 29.5098H26.2188V30.5585H27.2674V29.5098Z" fill="#231F20"/>
<path d="M27.2674 28.4622H26.2188V29.5098H27.2674V28.4622Z" fill="#F69022"/>
<path d="M27.2674 27.4136H26.2188V28.4623H27.2674V27.4136Z" fill="#F69022"/>
<path d="M27.2674 26.3649H26.2188V27.4135H27.2674V26.3649Z" fill="#F69022"/>
<path d="M27.2674 25.3162H26.2188V26.3649H27.2674V25.3162Z" fill="#F69022"/>
<path d="M27.2674 24.2686H26.2188V25.3162H27.2674V24.2686Z" fill="#F69022"/>
<path d="M27.2674 23.2199H26.2188V24.2686H27.2674V23.2199Z" fill="#FFE44F"/>
<path d="M27.2674 22.1713H26.2188V23.2199H27.2674V22.1713Z" fill="#FFE44F"/>
<path d="M27.2674 21.1226H26.2188V22.1712H27.2674V21.1226Z" fill="#FFE44F"/>
<path d="M27.2674 20.0739H26.2188V21.1225H27.2674V20.0739Z" fill="#FFE44F"/>
<path d="M27.2674 19.0263H26.2188V20.0739H27.2674V19.0263Z" fill="#FFE44F"/>
<path d="M27.2674 17.9776H26.2188V19.0263H27.2674V17.9776Z" fill="#FFE44F"/>
<path d="M27.2674 16.9289H26.2188V17.9776H27.2674V16.9289Z" fill="#FFE44F"/>
<path d="M27.2674 15.8802H26.2188V16.9289H27.2674V15.8802Z" fill="#FFE44F"/>
<path d="M27.2674 14.8315H26.2188V15.8802H27.2674V14.8315Z" fill="#FFE44F"/>
<path d="M27.2674 13.7839H26.2188V14.8315H27.2674V13.7839Z" fill="#FFE44F"/>
<path d="M27.2674 12.7353H26.2188V13.784H27.2674V12.7353Z" fill="#FFE44F"/>
<path d="M27.2674 11.6866H26.2188V12.7353H27.2674V11.6866Z" fill="#FFE44F"/>
<path d="M27.2674 10.6379H26.2188V11.6866H27.2674V10.6379Z" fill="#FFE44F"/>
<path d="M27.2674 9.59033H26.2188V10.6379H27.2674V9.59033Z" fill="#F69022"/>
<path d="M27.2674 8.54163H26.2188V9.59031H27.2674V8.54163Z" fill="#F69022"/>
<path d="M27.2674 7.49298H26.2188V8.54166H27.2674V7.49298Z" fill="#231F20"/>
<path d="M27.2674 6.44427H26.2188V7.49295H27.2674V6.44427Z" fill="#231F20"/>
<path d="M27.2674 5.39557H26.2188V6.44425H27.2674V5.39557Z" fill="#3DB341"/>
<path d="M27.2674 4.34802H26.2188V5.39562H27.2674V4.34802Z" fill="#231F20"/>
<path d="M26.2195 39.9945H25.1719V41.0432H26.2195V39.9945Z" fill="#231F20"/>
<path d="M26.2195 38.9458H25.1719V39.9945H26.2195V38.9458Z" fill="#F69022"/>
<path d="M26.2195 37.8982H25.1719V38.9458H26.2195V37.8982Z" fill="#F69022"/>
<path d="M26.2195 36.8495H25.1719V37.8982H26.2195V36.8495Z" fill="#FFE44F"/>
<path d="M26.2195 35.8008H25.1719V36.8495H26.2195V35.8008Z" fill="#FFE44F"/>
<path d="M26.2195 34.7522H25.1719V35.8009H26.2195V34.7522Z" fill="#FFE44F"/>
<path d="M26.2195 33.7045H25.1719V34.7521H26.2195V33.7045Z" fill="#FFE44F"/>
<path d="M26.2195 32.6559H25.1719V33.7046H26.2195V32.6559Z" fill="#231F20"/>
<path d="M26.2195 30.5585H25.1719V31.6072H26.2195V30.5585Z" fill="#231F20"/>
<path d="M26.2195 29.5098H25.1719V30.5585H26.2195V29.5098Z" fill="#F69022"/>
<path d="M26.2195 28.4622H25.1719V29.5098H26.2195V28.4622Z" fill="#F69022"/>
<path d="M26.2195 27.4136H25.1719V28.4623H26.2195V27.4136Z" fill="#F69022"/>
<path d="M26.2195 26.3649H25.1719V27.4135H26.2195V26.3649Z" fill="#F69022"/>
<path d="M26.2195 25.3162H25.1719V26.3649H26.2195V25.3162Z" fill="#F69022"/>
<path d="M26.2195 24.2686H25.1719V25.3162H26.2195V24.2686Z" fill="#FFE44F"/>
<path d="M26.2195 23.2199H25.1719V24.2686H26.2195V23.2199Z" fill="#FFE44F"/>
<path d="M26.2195 22.1713H25.1719V23.2199H26.2195V22.1713Z" fill="#FFE44F"/>
<path d="M26.2195 21.1226H25.1719V22.1712H26.2195V21.1226Z" fill="#FFE44F"/>
<path d="M26.2195 20.0739H25.1719V21.1225H26.2195V20.0739Z" fill="#FFE44F"/>
<path d="M26.2195 19.0263H25.1719V20.0739H26.2195V19.0263Z" fill="#FFE44F"/>
<path d="M26.2195 17.9776H25.1719V19.0263H26.2195V17.9776Z" fill="#FFE44F"/>
<path d="M26.2195 16.9289H25.1719V17.9776H26.2195V16.9289Z" fill="#FFE44F"/>
<path d="M26.2195 15.8802H25.1719V16.9289H26.2195V15.8802Z" fill="#FFE44F"/>
<path d="M26.2195 14.8315H25.1719V15.8802H26.2195V14.8315Z" fill="#FFE44F"/>
<path d="M26.2195 13.7839H25.1719V14.8315H26.2195V13.7839Z" fill="#FFE44F"/>
<path d="M26.2195 12.7353H25.1719V13.784H26.2195V12.7353Z" fill="#FFE44F"/>
<path d="M26.2195 11.6866H25.1719V12.7353H26.2195V11.6866Z" fill="#FFE44F"/>
<path d="M26.2195 10.6379H25.1719V11.6866H26.2195V10.6379Z" fill="#FFE44F"/>
<path d="M26.2195 9.59033H25.1719V10.6379H26.2195V9.59033Z" fill="#FFE44F"/>
<path d="M26.2195 8.54163H25.1719V9.59031H26.2195V8.54163Z" fill="#F69022"/>
<path d="M26.2195 7.49298H25.1719V8.54166H26.2195V7.49298Z" fill="#F69022"/>
<path d="M26.2195 6.44427H25.1719V7.49295H26.2195V6.44427Z" fill="#231F20"/>
<path d="M26.2195 5.39557H25.1719V6.44425H26.2195V5.39557Z" fill="#3DB341"/>
<path d="M26.2195 4.34802H25.1719V5.39562H26.2195V4.34802Z" fill="#3DB341"/>
<path d="M26.2195 3.29932H25.1719V4.348H26.2195V3.29932Z" fill="#231F20"/>
<path d="M25.1737 39.9945H24.125V41.0432H25.1737V39.9945Z" fill="#231F20"/>
<path d="M25.1737 38.9458H24.125V39.9945H25.1737V38.9458Z" fill="#F69022"/>
<path d="M25.1737 37.8982H24.125V38.9458H25.1737V37.8982Z" fill="#F69022"/>
<path d="M25.1737 36.8495H24.125V37.8982H25.1737V36.8495Z" fill="#231F20"/>
<path d="M25.1737 35.8008H24.125V36.8495H25.1737V35.8008Z" fill="#FFE44F"/>
<path d="M25.1737 34.7522H24.125V35.8009H25.1737V34.7522Z" fill="#FFE44F"/>
<path d="M25.1737 33.7045H24.125V34.7521H25.1737V33.7045Z" fill="#231F20"/>
<path d="M25.1737 30.5585H24.125V31.6072H25.1737V30.5585Z" fill="#231F20"/>
<path d="M25.1737 29.5098H24.125V30.5585H25.1737V29.5098Z" fill="#F69022"/>
<path d="M25.1737 28.4622H24.125V29.5098H25.1737V28.4622Z" fill="#F69022"/>
<path d="M25.1737 27.4136H24.125V28.4623H25.1737V27.4136Z" fill="#F69022"/>
<path d="M25.1737 26.3649H24.125V27.4135H25.1737V26.3649Z" fill="#F69022"/>
<path d="M25.1737 25.3162H24.125V26.3649H25.1737V25.3162Z" fill="#FFE44F"/>
<path d="M25.1737 24.2686H24.125V25.3162H25.1737V24.2686Z" fill="#FFE44F"/>
<path d="M25.1737 23.2199H24.125V24.2686H25.1737V23.2199Z" fill="#FFE44F"/>
<path d="M25.1737 22.1713H24.125V23.2199H25.1737V22.1713Z" fill="#FFE44F"/>
<path d="M25.1737 21.1226H24.125V22.1712H25.1737V21.1226Z" fill="#FFE44F"/>
<path d="M25.1737 20.0739H24.125V21.1225H25.1737V20.0739Z" fill="#FFE44F"/>
<path d="M25.1737 19.0263H24.125V20.0739H25.1737V19.0263Z" fill="#FFE44F"/>
<path d="M25.1737 17.9776H24.125V19.0263H25.1737V17.9776Z" fill="#FFE44F"/>
<path d="M25.1737 16.9289H24.125V17.9776H25.1737V16.9289Z" fill="#FFE44F"/>
<path d="M25.1737 15.8802H24.125V16.9289H25.1737V15.8802Z" fill="#FFE44F"/>
<path d="M25.1737 14.8315H24.125V15.8802H25.1737V14.8315Z" fill="#FFE44F"/>
<path d="M25.1737 13.7839H24.125V14.8315H25.1737V13.7839Z" fill="#231F20"/>
<path d="M25.1737 12.7353H24.125V13.784H25.1737V12.7353Z" fill="#231F20"/>
<path d="M25.1737 11.6866H24.125V12.7353H25.1737V11.6866Z" fill="#231F20"/>
<path d="M25.1737 10.6379H24.125V11.6866H25.1737V10.6379Z" fill="#231F20"/>
<path d="M25.1737 9.59033H24.125V10.6379H25.1737V9.59033Z" fill="#231F20"/>
<path d="M25.1737 8.54163H24.125V9.59031H25.1737V8.54163Z" fill="#231F20"/>
<path d="M25.1737 7.49298H24.125V8.54166H25.1737V7.49298Z" fill="#231F20"/>
<path d="M25.1737 6.44427H24.125V7.49295H25.1737V6.44427Z" fill="#3DB341"/>
<path d="M25.1737 5.39557H24.125V6.44425H25.1737V5.39557Z" fill="#231F20"/>
<path d="M25.1737 4.34802H24.125V5.39562H25.1737V4.34802Z" fill="#3DB341"/>
<path d="M25.1737 3.29932H24.125V4.348H25.1737V3.29932Z" fill="#231F20"/>
<path d="M24.119 38.9458H23.0703V39.9945H24.119V38.9458Z" fill="#231F20"/>
<path d="M24.119 37.8982H23.0703V38.9458H24.119V37.8982Z" fill="#231F20"/>
<path d="M24.119 36.8495H23.0703V37.8982H24.119V36.8495Z" fill="#231F20"/>
<path d="M24.119 35.8008H23.0703V36.8495H24.119V35.8008Z" fill="#231F20"/>
<path d="M24.119 34.7522H23.0703V35.8009H24.119V34.7522Z" fill="#231F20"/>
<path d="M24.119 31.6072H23.0703V32.6559H24.119V31.6072Z" fill="#231F20"/>
<path d="M24.119 30.5585H23.0703V31.6072H24.119V30.5585Z" fill="#F69022"/>
<path d="M24.119 29.5098H23.0703V30.5585H24.119V29.5098Z" fill="#F69022"/>
<path d="M24.119 28.4622H23.0703V29.5098H24.119V28.4622Z" fill="#F69022"/>
<path d="M24.119 27.4136H23.0703V28.4623H24.119V27.4136Z" fill="#F69022"/>
<path d="M24.119 26.3649H23.0703V27.4135H24.119V26.3649Z" fill="#FFE44F"/>
<path d="M24.119 25.3162H23.0703V26.3649H24.119V25.3162Z" fill="#FFE44F"/>
<path d="M24.119 24.2686H23.0703V25.3162H24.119V24.2686Z" fill="#FFE44F"/>
<path d="M24.119 23.2199H23.0703V24.2686H24.119V23.2199Z" fill="#FFE44F"/>
<path d="M24.119 22.1713H23.0703V23.2199H24.119V22.1713Z" fill="#FFE44F"/>
<path d="M24.119 21.1226H23.0703V22.1712H24.119V21.1226Z" fill="#FFE44F"/>
<path d="M24.119 20.0739H23.0703V21.1225H24.119V20.0739Z" fill="#FFE44F"/>
<path d="M24.119 19.0263H23.0703V20.0739H24.119V19.0263Z" fill="#FFE44F"/>
<path d="M24.119 17.9776H23.0703V19.0263H24.119V17.9776Z" fill="#FFE44F"/>
<path d="M24.119 16.9289H23.0703V17.9776H24.119V16.9289Z" fill="#231F20"/>
<path d="M24.119 15.8802H23.0703V16.9289H24.119V15.8802Z" fill="#231F20"/>
<path d="M24.119 14.8315H23.0703V15.8802H24.119V14.8315Z" fill="#231F20"/>
<path d="M24.119 6.44427H23.0703V7.49295H24.119V6.44427Z" fill="#231F20"/>
<path d="M24.119 5.39557H23.0703V6.44425H24.119V5.39557Z" fill="#3DB341"/>
<path d="M24.119 4.34802H23.0703V5.39562H24.119V4.34802Z" fill="#3DB341"/>
<path d="M24.119 3.29932H23.0703V4.348H24.119V3.29932Z" fill="#3DB341"/>
<path d="M24.119 2.25061H23.0703V3.29929H24.119V2.25061Z" fill="#231F20"/>
<path d="M23.0721 38.9458H22.0234V39.9945H23.0721V38.9458Z" fill="#231F20"/>
<path d="M23.0721 37.8982H22.0234V38.9458H23.0721V37.8982Z" fill="#231F20"/>
<path d="M23.0721 36.8495H22.0234V37.8982H23.0721V36.8495Z" fill="#231F20"/>
<path d="M23.0721 35.8008H22.0234V36.8495H23.0721V35.8008Z" fill="#231F20"/>
<path d="M23.0721 31.6072H22.0234V32.6559H23.0721V31.6072Z" fill="#231F20"/>
<path d="M23.0721 30.5585H22.0234V31.6072H23.0721V30.5585Z" fill="#F69022"/>
<path d="M23.0721 29.5098H22.0234V30.5585H23.0721V29.5098Z" fill="#F69022"/>
<path d="M23.0721 28.4622H22.0234V29.5098H23.0721V28.4622Z" fill="#F69022"/>
<path d="M23.0721 27.4136H22.0234V28.4623H23.0721V27.4136Z" fill="#FFE44F"/>
<path d="M23.0721 26.3649H22.0234V27.4135H23.0721V26.3649Z" fill="#FFE44F"/>
<path d="M23.0721 25.3162H22.0234V26.3649H23.0721V25.3162Z" fill="#FFE44F"/>
<path d="M23.0721 24.2686H22.0234V25.3162H23.0721V24.2686Z" fill="#FFE44F"/>
<path d="M23.0721 23.2199H22.0234V24.2686H23.0721V23.2199Z" fill="#FFE44F"/>
<path d="M23.0721 22.1713H22.0234V23.2199H23.0721V22.1713Z" fill="#FFE44F"/>
<path d="M23.0721 21.1226H22.0234V22.1712H23.0721V21.1226Z" fill="#FFE44F"/>
<path d="M23.0721 20.0739H22.0234V21.1225H23.0721V20.0739Z" fill="#FFE44F"/>
<path d="M23.0721 19.0263H22.0234V20.0739H23.0721V19.0263Z" fill="#231F20"/>
<path d="M23.0721 17.9776H22.0234V19.0263H23.0721V17.9776Z" fill="#231F20"/>
<path d="M23.0721 5.39557H22.0234V6.44425H23.0721V5.39557Z" fill="#231F20"/>
<path d="M23.0721 4.34802H22.0234V5.39562H23.0721V4.34802Z" fill="#3DB341"/>
<path d="M23.0721 3.29932H22.0234V4.348H23.0721V3.29932Z" fill="#3DB341"/>
<path d="M23.0721 2.25061H22.0234V3.29929H23.0721V2.25061Z" fill="#3DB341"/>
<path d="M23.0721 1.20197H22.0234V2.25065H23.0721V1.20197Z" fill="#231F20"/>
<path d="M22.0252 37.8982H20.9766V38.9458H22.0252V37.8982Z" fill="#231F20"/>
<path d="M22.0252 36.8495H20.9766V37.8982H22.0252V36.8495Z" fill="#231F20"/>
<path d="M22.0252 35.8008H20.9766V36.8495H22.0252V35.8008Z" fill="#231F20"/>
<path d="M22.0252 32.6559H20.9766V33.7046H22.0252V32.6559Z" fill="#231F20"/>
<path d="M22.0252 31.6072H20.9766V32.6559H22.0252V31.6072Z" fill="#F69022"/>
<path d="M22.0252 30.5585H20.9766V31.6072H22.0252V30.5585Z" fill="#F69022"/>
<path d="M22.0252 29.5098H20.9766V30.5585H22.0252V29.5098Z" fill="#F69022"/>
<path d="M22.0252 28.4622H20.9766V29.5098H22.0252V28.4622Z" fill="#FFE44F"/>
<path d="M22.0252 27.4136H20.9766V28.4623H22.0252V27.4136Z" fill="#FFE44F"/>
<path d="M22.0252 26.3649H20.9766V27.4135H22.0252V26.3649Z" fill="#FFE44F"/>
<path d="M22.0252 25.3162H20.9766V26.3649H22.0252V25.3162Z" fill="#FFE44F"/>
<path d="M22.0252 24.2686H20.9766V25.3162H22.0252V24.2686Z" fill="#FFE44F"/>
<path d="M22.0252 23.2199H20.9766V24.2686H22.0252V23.2199Z" fill="#FFE44F"/>
<path d="M22.0252 22.1713H20.9766V23.2199H22.0252V22.1713Z" fill="#FFE44F"/>
<path d="M22.0252 21.1226H20.9766V22.1712H22.0252V21.1226Z" fill="#FFE44F"/>
<path d="M22.0252 20.0739H20.9766V21.1225H22.0252V20.0739Z" fill="#231F20"/>
<path d="M22.0252 4.34802H20.9766V5.39562H22.0252V4.34802Z" fill="#231F20"/>
<path d="M22.0252 3.29932H20.9766V4.348H22.0252V3.29932Z" fill="#3DB341"/>
<path d="M22.0252 2.25061H20.9766V3.29929H22.0252V2.25061Z" fill="#3DB341"/>
<path d="M22.0252 1.20197H20.9766V2.25065H22.0252V1.20197Z" fill="#3DB341"/>
<path d="M22.0252 0.154358H20.9766V1.20196H22.0252V0.154358Z" fill="#231F20"/>
<path d="M20.9773 36.8495H19.9297V37.8982H20.9773V36.8495Z" fill="#231F20"/>
<path d="M20.9773 32.6559H19.9297V33.7046H20.9773V32.6559Z" fill="#231F20"/>
<path d="M20.9773 31.6072H19.9297V32.6559H20.9773V31.6072Z" fill="#F69022"/>
<path d="M20.9773 30.5585H19.9297V31.6072H20.9773V30.5585Z" fill="#F69022"/>
<path d="M20.9773 29.5098H19.9297V30.5585H20.9773V29.5098Z" fill="#F69022"/>
<path d="M20.9773 28.4622H19.9297V29.5098H20.9773V28.4622Z" fill="#FFE44F"/>
<path d="M20.9773 27.4136H19.9297V28.4623H20.9773V27.4136Z" fill="#FFE44F"/>
<path d="M20.9773 26.3649H19.9297V27.4135H20.9773V26.3649Z" fill="#FFE44F"/>
<path d="M20.9773 25.3162H19.9297V26.3649H20.9773V25.3162Z" fill="#FFE44F"/>
<path d="M20.9773 24.2686H19.9297V25.3162H20.9773V24.2686Z" fill="#FFE44F"/>
<path d="M20.9773 23.2199H19.9297V24.2686H20.9773V23.2199Z" fill="#FFE44F"/>
<path d="M20.9773 22.1713H19.9297V23.2199H20.9773V22.1713Z" fill="#FFE44F"/>
<path d="M20.9773 21.1226H19.9297V22.1712H20.9773V21.1226Z" fill="#231F20"/>
<path d="M20.9773 3.29932H19.9297V4.348H20.9773V3.29932Z" fill="#231F20"/>
<path d="M20.9773 2.25061H19.9297V3.29929H20.9773V2.25061Z" fill="#3DB341"/>
<path d="M20.9773 1.20197H19.9297V2.25065H20.9773V1.20197Z" fill="#3DB341"/>
<path d="M20.9773 0.154358H19.9297V1.20196H20.9773V0.154358Z" fill="#231F20"/>
<path d="M19.9315 33.7045H18.8828V34.7521H19.9315V33.7045Z" fill="#231F20"/>
<path d="M19.9315 32.6559H18.8828V33.7046H19.9315V32.6559Z" fill="#F69022"/>
<path d="M19.9315 31.6072H18.8828V32.6559H19.9315V31.6072Z" fill="#F69022"/>
<path d="M19.9315 30.5585H18.8828V31.6072H19.9315V30.5585Z" fill="#F69022"/>
<path d="M19.9315 29.5098H18.8828V30.5585H19.9315V29.5098Z" fill="#FFE44F"/>
<path d="M19.9315 28.4622H18.8828V29.5098H19.9315V28.4622Z" fill="#FFE44F"/>
<path d="M19.9315 27.4136H18.8828V28.4623H19.9315V27.4136Z" fill="#FFE44F"/>
<path d="M19.9315 26.3649H18.8828V27.4135H19.9315V26.3649Z" fill="#FFE44F"/>
<path d="M19.9315 25.3162H18.8828V26.3649H19.9315V25.3162Z" fill="#FFE44F"/>
<path d="M19.9315 24.2686H18.8828V25.3162H19.9315V24.2686Z" fill="#FFE44F"/>
<path d="M19.9315 23.2199H18.8828V24.2686H19.9315V23.2199Z" fill="#FFE44F"/>
<path d="M19.9315 22.1713H18.8828V23.2199H19.9315V22.1713Z" fill="#231F20"/>
<path d="M19.9315 2.25061H18.8828V3.29929H19.9315V2.25061Z" fill="#231F20"/>
<path d="M19.9315 1.20197H18.8828V2.25065H19.9315V1.20197Z" fill="#231F20"/>
<path d="M18.8768 33.7045H17.8281V34.7521H18.8768V33.7045Z" fill="#231F20"/>
<path d="M18.8768 32.6559H17.8281V33.7046H18.8768V32.6559Z" fill="#F69022"/>
<path d="M18.8768 31.6072H17.8281V32.6559H18.8768V31.6072Z" fill="#F69022"/>
<path d="M18.8768 30.5585H17.8281V31.6072H18.8768V30.5585Z" fill="#FFE44F"/>
<path d="M18.8768 29.5098H17.8281V30.5585H18.8768V29.5098Z" fill="#FFE44F"/>
<path d="M18.8768 28.4622H17.8281V29.5098H18.8768V28.4622Z" fill="#FFE44F"/>
<path d="M18.8768 27.4136H17.8281V28.4623H18.8768V27.4136Z" fill="#F69022"/>
<path d="M18.8768 26.3649H17.8281V27.4135H18.8768V26.3649Z" fill="#FFE44F"/>
<path d="M18.8768 25.3162H17.8281V26.3649H18.8768V25.3162Z" fill="#FFE44F"/>
<path d="M18.8768 24.2686H17.8281V25.3162H18.8768V24.2686Z" fill="#FFE44F"/>
<path d="M18.8768 23.2199H17.8281V24.2686H18.8768V23.2199Z" fill="#231F20"/>
<path d="M17.8299 34.7522H16.7812V35.8009H17.8299V34.7522Z" fill="#231F20"/>
<path d="M17.8299 33.7045H16.7812V34.7521H17.8299V33.7045Z" fill="#F69022"/>
<path d="M17.8299 32.6559H16.7812V33.7046H17.8299V32.6559Z" fill="#F69022"/>
<path d="M17.8299 31.6072H16.7812V32.6559H17.8299V31.6072Z" fill="#F69022"/>
<path d="M17.8299 30.5585H16.7812V31.6072H17.8299V30.5585Z" fill="#FFE44F"/>
<path d="M17.8299 29.5098H16.7812V30.5585H17.8299V29.5098Z" fill="#FFE44F"/>
<path d="M17.8299 28.4622H16.7812V29.5098H17.8299V28.4622Z" fill="#FFE44F"/>
<path d="M17.8299 27.4136H16.7812V28.4623H17.8299V27.4136Z" fill="#FFE44F"/>
<path d="M17.8299 26.3649H16.7812V27.4135H17.8299V26.3649Z" fill="#FFE44F"/>
<path d="M17.8299 25.3162H16.7812V26.3649H17.8299V25.3162Z" fill="#FFE44F"/>
<path d="M17.8299 24.2686H16.7812V25.3162H17.8299V24.2686Z" fill="#231F20"/>
<path d="M16.7831 34.7522H15.7344V35.8009H16.7831V34.7522Z" fill="#231F20"/>
<path d="M16.7831 33.7045H15.7344V34.7521H16.7831V33.7045Z" fill="#F69022"/>
<path d="M16.7831 32.6559H15.7344V33.7046H16.7831V32.6559Z" fill="#F69022"/>
<path d="M16.7831 31.6072H15.7344V32.6559H16.7831V31.6072Z" fill="#FFE44F"/>
<path d="M16.7831 30.5585H15.7344V31.6072H16.7831V30.5585Z" fill="#FFE44F"/>
<path d="M16.7831 29.5098H15.7344V30.5585H16.7831V29.5098Z" fill="#FFE44F"/>
<path d="M16.7831 28.4622H15.7344V29.5098H16.7831V28.4622Z" fill="#F69022"/>
<path d="M16.7831 27.4136H15.7344V28.4623H16.7831V27.4136Z" fill="#FFE44F"/>
<path d="M16.7831 26.3649H15.7344V27.4135H16.7831V26.3649Z" fill="#FFE44F"/>
<path d="M16.7831 25.3162H15.7344V26.3649H16.7831V25.3162Z" fill="#231F20"/>
<path d="M15.7351 34.7522H14.6875V35.8009H15.7351V34.7522Z" fill="#231F20"/>
<path d="M15.7351 33.7045H14.6875V34.7521H15.7351V33.7045Z" fill="#F69022"/>
<path d="M15.7351 32.6559H14.6875V33.7046H15.7351V32.6559Z" fill="#F69022"/>
<path d="M15.7351 31.6072H14.6875V32.6559H15.7351V31.6072Z" fill="#FFE44F"/>
<path d="M15.7351 30.5585H14.6875V31.6072H15.7351V30.5585Z" fill="#FFE44F"/>
<path d="M15.7351 29.5098H14.6875V30.5585H15.7351V29.5098Z" fill="#F69022"/>
<path d="M15.7351 28.4622H14.6875V29.5098H15.7351V28.4622Z" fill="#FFE44F"/>
<path d="M15.7351 27.4136H14.6875V28.4623H15.7351V27.4136Z" fill="#FFE44F"/>
<path d="M15.7351 26.3649H14.6875V27.4135H15.7351V26.3649Z" fill="#FFE44F"/>
<path d="M15.7351 25.3162H14.6875V26.3649H15.7351V25.3162Z" fill="#231F20"/>
<path d="M14.6893 35.8008H13.6406V36.8495H14.6893V35.8008Z" fill="#231F20"/>
<path d="M14.6893 34.7522H13.6406V35.8009H14.6893V34.7522Z" fill="#F69022"/>
<path d="M14.6893 33.7045H13.6406V34.7521H14.6893V33.7045Z" fill="#F69022"/>
<path d="M14.6893 32.6559H13.6406V33.7046H14.6893V32.6559Z" fill="#FFE44F"/>
<path d="M14.6893 31.6072H13.6406V32.6559H14.6893V31.6072Z" fill="#FFE44F"/>
<path d="M14.6893 30.5585H13.6406V31.6072H14.6893V30.5585Z" fill="#F69022"/>
<path d="M14.6893 29.5098H13.6406V30.5585H14.6893V29.5098Z" fill="#F69022"/>
<path d="M14.6893 28.4622H13.6406V29.5098H14.6893V28.4622Z" fill="#FFE44F"/>
<path d="M14.6893 27.4136H13.6406V28.4623H14.6893V27.4136Z" fill="#FFE44F"/>
<path d="M14.6893 26.3649H13.6406V27.4135H14.6893V26.3649Z" fill="#231F20"/>
<path d="M13.6346 35.8008H12.5859V36.8495H13.6346V35.8008Z" fill="#231F20"/>
<path d="M13.6346 34.7522H12.5859V35.8009H13.6346V34.7522Z" fill="#F69022"/>
<path d="M13.6346 33.7045H12.5859V34.7521H13.6346V33.7045Z" fill="#F69022"/>
<path d="M13.6346 32.6559H12.5859V33.7046H13.6346V32.6559Z" fill="#FFE44F"/>
<path d="M13.6346 31.6072H12.5859V32.6559H13.6346V31.6072Z" fill="#FFE44F"/>
<path d="M13.6346 30.5585H12.5859V31.6072H13.6346V30.5585Z" fill="#F69022"/>
<path d="M13.6346 29.5098H12.5859V30.5585H13.6346V29.5098Z" fill="#FFE44F"/>
<path d="M13.6346 28.4622H12.5859V29.5098H13.6346V28.4622Z" fill="#FFE44F"/>
<path d="M13.6346 27.4136H12.5859V28.4623H13.6346V27.4136Z" fill="#FFE44F"/>
<path d="M13.6346 26.3649H12.5859V27.4135H13.6346V26.3649Z" fill="#231F20"/>
<path d="M12.5877 35.8008H11.5391V36.8495H12.5877V35.8008Z" fill="#231F20"/>
<path d="M12.5877 34.7522H11.5391V35.8009H12.5877V34.7522Z" fill="#F69022"/>
<path d="M12.5877 33.7045H11.5391V34.7521H12.5877V33.7045Z" fill="#FFE44F"/>
<path d="M12.5877 32.6559H11.5391V33.7046H12.5877V32.6559Z" fill="#FFE44F"/>
<path d="M12.5877 31.6072H11.5391V32.6559H12.5877V31.6072Z" fill="#FFE44F"/>
<path d="M12.5877 30.5585H11.5391V31.6072H12.5877V30.5585Z" fill="#F69022"/>
<path d="M12.5877 29.5098H11.5391V30.5585H12.5877V29.5098Z" fill="#FFE44F"/>
<path d="M12.5877 28.4622H11.5391V29.5098H12.5877V28.4622Z" fill="#FFE44F"/>
<path d="M12.5877 27.4136H11.5391V28.4623H12.5877V27.4136Z" fill="#FFE44F"/>
<path d="M12.5877 26.3649H11.5391V27.4135H12.5877V26.3649Z" fill="#231F20"/>
<path d="M11.5398 35.8008H10.4922V36.8495H11.5398V35.8008Z" fill="#231F20"/>
<path d="M11.5398 34.7522H10.4922V35.8009H11.5398V34.7522Z" fill="#F69022"/>
<path d="M11.5398 33.7045H10.4922V34.7521H11.5398V33.7045Z" fill="#FFE44F"/>
<path d="M11.5398 32.6559H10.4922V33.7046H11.5398V32.6559Z" fill="#FFE44F"/>
<path d="M11.5398 31.6072H10.4922V32.6559H11.5398V31.6072Z" fill="#F69022"/>
<path d="M11.5398 30.5585H10.4922V31.6072H11.5398V30.5585Z" fill="#F69022"/>
<path d="M11.5398 29.5098H10.4922V30.5585H11.5398V29.5098Z" fill="#FFE44F"/>
<path d="M11.5398 28.4622H10.4922V29.5098H11.5398V28.4622Z" fill="#FFE44F"/>
<path d="M11.5398 27.4136H10.4922V28.4623H11.5398V27.4136Z" fill="#231F20"/>
<path d="M10.494 35.8008H9.44531V36.8495H10.494V35.8008Z" fill="#231F20"/>
<path d="M10.494 34.7522H9.44531V35.8009H10.494V34.7522Z" fill="#F69022"/>
<path d="M10.494 33.7045H9.44531V34.7521H10.494V33.7045Z" fill="#FFE44F"/>
<path d="M10.494 32.6559H9.44531V33.7046H10.494V32.6559Z" fill="#FFE44F"/>
<path d="M10.494 31.6072H9.44531V32.6559H10.494V31.6072Z" fill="#F69022"/>
<path d="M10.494 30.5585H9.44531V31.6072H10.494V30.5585Z" fill="#FFE44F"/>
<path d="M10.494 29.5098H9.44531V30.5585H10.494V29.5098Z" fill="#FFE44F"/>
<path d="M10.494 28.4622H9.44531V29.5098H10.494V28.4622Z" fill="#FFE44F"/>
<path d="M10.494 27.4136H9.44531V28.4623H10.494V27.4136Z" fill="#231F20"/>
<path d="M9.44712 35.8008H8.39844V36.8495H9.44712V35.8008Z" fill="#231F20"/>
<path d="M9.44712 34.7522H8.39844V35.8009H9.44712V34.7522Z" fill="#F69022"/>
<path d="M9.44712 33.7045H8.39844V34.7521H9.44712V33.7045Z" fill="#FFE44F"/>
<path d="M9.44712 32.6559H8.39844V33.7046H9.44712V32.6559Z" fill="#FFE44F"/>
<path d="M9.44712 31.6072H8.39844V32.6559H9.44712V31.6072Z" fill="#F69022"/>
<path d="M9.44712 30.5585H8.39844V31.6072H9.44712V30.5585Z" fill="#FFE44F"/>
<path d="M9.44712 29.5098H8.39844V30.5585H9.44712V29.5098Z" fill="#FFE44F"/>
<path d="M9.44712 28.4622H8.39844V29.5098H9.44712V28.4622Z" fill="#FFE44F"/>
<path d="M9.44712 27.4136H8.39844V28.4623H9.44712V27.4136Z" fill="#231F20"/>
<path d="M8.39243 35.8008H7.34375V36.8495H8.39243V35.8008Z" fill="#231F20"/>
<path d="M8.39243 34.7522H7.34375V35.8009H8.39243V34.7522Z" fill="#F69022"/>
<path d="M8.39243 33.7045H7.34375V34.7521H8.39243V33.7045Z" fill="#FFE44F"/>
<path d="M8.39243 32.6559H7.34375V33.7046H8.39243V32.6559Z" fill="#FFE44F"/>
<path d="M8.39243 31.6072H7.34375V32.6559H8.39243V31.6072Z" fill="#F69022"/>
<path d="M8.39243 30.5585H7.34375V31.6072H8.39243V30.5585Z" fill="#FFE44F"/>
<path d="M8.39243 29.5098H7.34375V30.5585H8.39243V29.5098Z" fill="#FFE44F"/>
<path d="M8.39243 28.4622H7.34375V29.5098H8.39243V28.4622Z" fill="#231F20"/>
<path d="M8.39243 27.4136H7.34375V28.4623H8.39243V27.4136Z" fill="#231F20"/>
<path d="M7.34555 34.7522H6.29688V35.8009H7.34555V34.7522Z" fill="#231F20"/>
<path d="M7.34555 33.7045H6.29688V34.7521H7.34555V33.7045Z" fill="#F69022"/>
<path d="M7.34555 32.6559H6.29688V33.7046H7.34555V32.6559Z" fill="#FFE44F"/>
<path d="M7.34555 31.6072H6.29688V32.6559H7.34555V31.6072Z" fill="#F69022"/>
<path d="M7.34555 30.5585H6.29688V31.6072H7.34555V30.5585Z" fill="#FFE44F"/>
<path d="M7.34555 29.5098H6.29688V30.5585H7.34555V29.5098Z" fill="#FFE44F"/>
<path d="M7.34555 28.4622H6.29688V29.5098H7.34555V28.4622Z" fill="#231F20"/>
<path d="M6.2976 34.7522H5.25V35.8009H6.2976V34.7522Z" fill="#231F20"/>
<path d="M6.2976 33.7045H5.25V34.7521H6.2976V33.7045Z" fill="#F69022"/>
<path d="M6.2976 32.6559H5.25V33.7046H6.2976V32.6559Z" fill="#F69022"/>
<path d="M6.2976 31.6072H5.25V32.6559H6.2976V31.6072Z" fill="#F69022"/>
<path d="M6.2976 30.5585H5.25V31.6072H6.2976V30.5585Z" fill="#FFE44F"/>
<path d="M6.2976 29.5098H5.25V30.5585H6.2976V29.5098Z" fill="#FFE44F"/>
<path d="M6.2976 28.4622H5.25V29.5098H6.2976V28.4622Z" fill="#231F20"/>
<path d="M5.2518 33.7045H4.20312V34.7521H5.2518V33.7045Z" fill="#231F20"/>
<path d="M5.2518 32.6559H4.20312V33.7046H5.2518V32.6559Z" fill="#F69022"/>
<path d="M5.2518 31.6072H4.20312V32.6559H5.2518V31.6072Z" fill="#F69022"/>
<path d="M5.2518 30.5585H4.20312V31.6072H5.2518V30.5585Z" fill="#FFE44F"/>
<path d="M5.2518 29.5098H4.20312V30.5585H5.2518V29.5098Z" fill="#FFE44F"/>
<path d="M5.2518 28.4622H4.20312V29.5098H5.2518V28.4622Z" fill="#231F20"/>
<path d="M4.20493 33.7045H3.15625V34.7521H4.20493V33.7045Z" fill="#231F20"/>
<path d="M4.20493 32.6559H3.15625V33.7046H4.20493V32.6559Z" fill="#F69022"/>
<path d="M4.20493 31.6072H3.15625V32.6559H4.20493V31.6072Z" fill="#F69022"/>
<path d="M4.20493 30.5585H3.15625V31.6072H4.20493V30.5585Z" fill="#F69022"/>
<path d="M4.20493 29.5098H3.15625V30.5585H4.20493V29.5098Z" fill="#FFE44F"/>
<path d="M4.20493 28.4622H3.15625V29.5098H4.20493V28.4622Z" fill="#231F20"/>
<path d="M3.15024 32.6559H2.10156V33.7046H3.15024V32.6559Z" fill="#231F20"/>
<path d="M3.15024 31.6072H2.10156V32.6559H3.15024V31.6072Z" fill="#F69022"/>
<path d="M3.15024 30.5585H2.10156V31.6072H3.15024V30.5585Z" fill="#231F20"/>
<path d="M3.15024 29.5098H2.10156V30.5585H3.15024V29.5098Z" fill="#231F20"/>
<path d="M3.15024 28.4622H2.10156V29.5098H3.15024V28.4622Z" fill="#231F20"/>
<path d="M2.10229 31.6072H1.05469V32.6559H2.10229V31.6072Z" fill="#231F20"/>
<path d="M2.10229 30.5585H1.05469V31.6072H2.10229V30.5585Z" fill="#231F20"/>
<path d="M2.10229 29.5098H1.05469V30.5585H2.10229V29.5098Z" fill="#231F20"/>
<path d="M2.10229 28.4622H1.05469V29.5098H2.10229V28.4622Z" fill="#231F20"/>
<path d="M1.05649 30.5585H0.0078125V31.6072H1.05649V30.5585Z" fill="#231F20"/>
<path d="M1.05649 29.5098H0.0078125V30.5585H1.05649V29.5098Z" fill="#231F20"/>
<path d="M1.05649 28.4622H0.0078125V29.5098H1.05649V28.4622Z" fill="#231F20"/>
</svg>
