<svg width="36" height="33" viewBox="0 0 36 33" fill="none" xmlns="http://www.w3.org/2000/svg">
<path d="M35.869 20.7918H34.8203V21.8405H35.869V20.7918Z" fill="#231F20"/>
<path d="M35.869 19.7443H34.8203V20.7919H35.869V19.7443Z" fill="#231F20"/>
<path d="M35.869 18.6956H34.8203V19.7442H35.869V18.6956Z" fill="#231F20"/>
<path d="M35.869 17.6469H34.8203V18.6955H35.869V17.6469Z" fill="#231F20"/>
<path d="M34.8132 22.8892H33.7656V23.9379H34.8132V22.8892Z" fill="#231F20"/>
<path d="M34.8132 21.8405H33.7656V22.8892H34.8132V21.8405Z" fill="#231F20"/>
<path d="M34.8132 20.7918H33.7656V21.8405H34.8132V20.7918Z" fill="#EB1B3D"/>
<path d="M34.8132 19.7443H33.7656V20.7919H34.8132V19.7443Z" fill="#EB1B3D"/>
<path d="M34.8132 18.6956H33.7656V19.7442H34.8132V18.6956Z" fill="#EB1B3D"/>
<path d="M34.8132 17.6469H33.7656V18.6955H34.8132V17.6469Z" fill="#EB1B3D"/>
<path d="M34.8132 16.5982H33.7656V17.6469H34.8132V16.5982Z" fill="#231F20"/>
<path d="M33.7674 23.9379H32.7188V24.9865H33.7674V23.9379Z" fill="#231F20"/>
<path d="M33.7674 22.8892H32.7188V23.9379H33.7674V22.8892Z" fill="#EB1B3D"/>
<path d="M33.7674 21.8405H32.7188V22.8892H33.7674V21.8405Z" fill="#EB1B3D"/>
<path d="M33.7674 20.7918H32.7188V21.8405H33.7674V20.7918Z" fill="#EB1B3D"/>
<path d="M33.7674 19.7443H32.7188V20.7919H33.7674V19.7443Z" fill="#FF3E63"/>
<path d="M33.7674 18.6956H32.7188V19.7442H33.7674V18.6956Z" fill="#FF3E63"/>
<path d="M33.7674 17.6469H32.7188V18.6955H33.7674V17.6469Z" fill="#EB1B3D"/>
<path d="M33.7674 16.5982H32.7188V17.6469H33.7674V16.5982Z" fill="#CA1133"/>
<path d="M33.7674 15.5506H32.7188V16.5982H33.7674V15.5506Z" fill="#231F20"/>
<path d="M32.7206 26.0342H31.6719V27.0829H32.7206V26.0342Z" fill="#231F20"/>
<path d="M32.7206 24.9866H31.6719V26.0342H32.7206V24.9866Z" fill="#231F20"/>
<path d="M32.7206 23.9379H31.6719V24.9865H32.7206V23.9379Z" fill="#EB1B3D"/>
<path d="M32.7206 22.8892H31.6719V23.9379H32.7206V22.8892Z" fill="#EB1B3D"/>
<path d="M32.7206 21.8405H31.6719V22.8892H32.7206V21.8405Z" fill="#FF3E63"/>
<path d="M32.7206 20.7918H31.6719V21.8405H32.7206V20.7918Z" fill="#FF3E63"/>
<path d="M32.7206 19.7443H31.6719V20.7919H32.7206V19.7443Z" fill="#FF3E63"/>
<path d="M32.7206 18.6956H31.6719V19.7442H32.7206V18.6956Z" fill="#FF3E63"/>
<path d="M32.7206 17.6469H31.6719V18.6955H32.7206V17.6469Z" fill="#EB1B3D"/>
<path d="M32.7206 16.5982H31.6719V17.6469H32.7206V16.5982Z" fill="#CA1133"/>
<path d="M32.7206 15.5506H31.6719V16.5982H32.7206V15.5506Z" fill="#231F20"/>
<path d="M31.6737 26.0342H30.625V27.0829H31.6737V26.0342Z" fill="#231F20"/>
<path d="M31.6737 24.9866H30.625V26.0342H31.6737V24.9866Z" fill="#EB1B3D"/>
<path d="M31.6737 23.9379H30.625V24.9865H31.6737V23.9379Z" fill="#EB1B3D"/>
<path d="M31.6737 22.8892H30.625V23.9379H31.6737V22.8892Z" fill="#FF3E63"/>
<path d="M31.6737 21.8405H30.625V22.8892H31.6737V21.8405Z" fill="#FF3E63"/>
<path d="M31.6737 20.7918H30.625V21.8405H31.6737V20.7918Z" fill="#FF3E63"/>
<path d="M31.6737 19.7443H30.625V20.7919H31.6737V19.7443Z" fill="#EB1B3D"/>
<path d="M31.6737 18.6956H30.625V19.7442H31.6737V18.6956Z" fill="#EB1B3D"/>
<path d="M31.6737 17.6469H30.625V18.6955H31.6737V17.6469Z" fill="#EB1B3D"/>
<path d="M31.6737 16.5982H30.625V17.6469H31.6737V16.5982Z" fill="#CA1133"/>
<path d="M31.6737 15.5506H30.625V16.5982H31.6737V15.5506Z" fill="#231F20"/>
<path d="M30.6268 27.0828H29.5781V28.1315H30.6268V27.0828Z" fill="#231F20"/>
<path d="M30.6268 26.0342H29.5781V27.0829H30.6268V26.0342Z" fill="#CA1133"/>
<path d="M30.6268 24.9866H29.5781V26.0342H30.6268V24.9866Z" fill="#EB1B3D"/>
<path d="M30.6268 23.9379H29.5781V24.9865H30.6268V23.9379Z" fill="#EB1B3D"/>
<path d="M30.6268 22.8892H29.5781V23.9379H30.6268V22.8892Z" fill="#FF3E63"/>
<path d="M30.6268 21.8405H29.5781V22.8892H30.6268V21.8405Z" fill="#FF3E63"/>
<path d="M30.6268 20.7918H29.5781V21.8405H30.6268V20.7918Z" fill="#EB1B3D"/>
<path d="M30.6268 19.7443H29.5781V20.7919H30.6268V19.7443Z" fill="#EB1B3D"/>
<path d="M30.6268 18.6956H29.5781V19.7442H30.6268V18.6956Z" fill="#EB1B3D"/>
<path d="M30.6268 17.6469H29.5781V18.6955H30.6268V17.6469Z" fill="#EB1B3D"/>
<path d="M30.6268 16.5982H29.5781V17.6469H30.6268V16.5982Z" fill="#CA1133"/>
<path d="M30.6268 15.5506H29.5781V16.5982H30.6268V15.5506Z" fill="#231F20"/>
<path d="M29.571 27.0828H28.5234V28.1315H29.571V27.0828Z" fill="#231F20"/>
<path d="M29.571 26.0342H28.5234V27.0829H29.571V26.0342Z" fill="#CA1133"/>
<path d="M29.571 24.9866H28.5234V26.0342H29.571V24.9866Z" fill="#EB1B3D"/>
<path d="M29.571 23.9379H28.5234V24.9865H29.571V23.9379Z" fill="#FF3E63"/>
<path d="M29.571 22.8892H28.5234V23.9379H29.571V22.8892Z" fill="#FF3E63"/>
<path d="M29.571 21.8405H28.5234V22.8892H29.571V21.8405Z" fill="#FF3E63"/>
<path d="M29.571 20.7918H28.5234V21.8405H29.571V20.7918Z" fill="#EB1B3D"/>
<path d="M29.571 19.7443H28.5234V20.7919H29.571V19.7443Z" fill="#EB1B3D"/>
<path d="M29.571 18.6956H28.5234V19.7442H29.571V18.6956Z" fill="#EB1B3D"/>
<path d="M29.571 17.6469H28.5234V18.6955H29.571V17.6469Z" fill="#CA1133"/>
<path d="M29.571 16.5982H28.5234V17.6469H29.571V16.5982Z" fill="#CA1133"/>
<path d="M29.571 15.5506H28.5234V16.5982H29.571V15.5506Z" fill="#231F20"/>
<path d="M28.5252 27.0828H27.4766V28.1315H28.5252V27.0828Z" fill="#231F20"/>
<path d="M28.5252 26.0342H27.4766V27.0829H28.5252V26.0342Z" fill="#CA1133"/>
<path d="M28.5252 24.9866H27.4766V26.0342H28.5252V24.9866Z" fill="#EB1B3D"/>
<path d="M28.5252 23.9379H27.4766V24.9865H28.5252V23.9379Z" fill="#FF3E63"/>
<path d="M28.5252 22.8892H27.4766V23.9379H28.5252V22.8892Z" fill="#FF3E63"/>
<path d="M28.5252 21.8405H27.4766V22.8892H28.5252V21.8405Z" fill="#EB1B3D"/>
<path d="M28.5252 20.7918H27.4766V21.8405H28.5252V20.7918Z" fill="#EB1B3D"/>
<path d="M28.5252 19.7443H27.4766V20.7919H28.5252V19.7443Z" fill="#EB1B3D"/>
<path d="M28.5252 18.6956H27.4766V19.7442H28.5252V18.6956Z" fill="#EB1B3D"/>
<path d="M28.5252 17.6469H27.4766V18.6955H28.5252V17.6469Z" fill="#CA1133"/>
<path d="M28.5252 16.5982H27.4766V17.6469H28.5252V16.5982Z" fill="#231F20"/>
<path d="M28.5252 15.5506H27.4766V16.5982H28.5252V15.5506Z" fill="#231F20"/>
<path d="M28.5252 14.5019H27.4766V15.5506H28.5252V14.5019Z" fill="#231F20"/>
<path d="M27.4784 27.0828H26.4297V28.1315H27.4784V27.0828Z" fill="#231F20"/>
<path d="M27.4784 26.0342H26.4297V27.0829H27.4784V26.0342Z" fill="#CA1133"/>
<path d="M27.4784 24.9866H26.4297V26.0342H27.4784V24.9866Z" fill="#EB1B3D"/>
<path d="M27.4784 23.9379H26.4297V24.9865H27.4784V23.9379Z" fill="#EB1B3D"/>
<path d="M27.4784 22.8892H26.4297V23.9379H27.4784V22.8892Z" fill="#EB1B3D"/>
<path d="M27.4784 21.8405H26.4297V22.8892H27.4784V21.8405Z" fill="#EB1B3D"/>
<path d="M27.4784 20.7918H26.4297V21.8405H27.4784V20.7918Z" fill="#EB1B3D"/>
<path d="M27.4784 19.7443H26.4297V20.7919H27.4784V19.7443Z" fill="#EB1B3D"/>
<path d="M27.4784 18.6956H26.4297V19.7442H27.4784V18.6956Z" fill="#EB1B3D"/>
<path d="M27.4784 17.6469H26.4297V18.6955H27.4784V17.6469Z" fill="#CA1133"/>
<path d="M27.4784 16.5982H26.4297V17.6469H27.4784V16.5982Z" fill="#231F20"/>
<path d="M27.4784 15.5506H26.4297V16.5982H27.4784V15.5506Z" fill="#231F20"/>
<path d="M27.4784 14.5019H26.4297V15.5506H27.4784V14.5019Z" fill="#231F20"/>
<path d="M27.4784 13.4532H26.4297V14.5019H27.4784V13.4532Z" fill="#231F20"/>
<path d="M27.4784 12.4045H26.4297V13.4532H27.4784V12.4045Z" fill="#231F20"/>
<path d="M27.4784 11.3559H26.4297V12.4046H27.4784V11.3559Z" fill="#231F20"/>
<path d="M26.4315 27.0828H25.3828V28.1315H26.4315V27.0828Z" fill="#231F20"/>
<path d="M26.4315 26.0342H25.3828V27.0829H26.4315V26.0342Z" fill="#CA1133"/>
<path d="M26.4315 24.9866H25.3828V26.0342H26.4315V24.9866Z" fill="#EB1B3D"/>
<path d="M26.4315 23.9379H25.3828V24.9865H26.4315V23.9379Z" fill="#EB1B3D"/>
<path d="M26.4315 22.8892H25.3828V23.9379H26.4315V22.8892Z" fill="#EB1B3D"/>
<path d="M26.4315 21.8405H25.3828V22.8892H26.4315V21.8405Z" fill="#EB1B3D"/>
<path d="M26.4315 20.7918H25.3828V21.8405H26.4315V20.7918Z" fill="#EB1B3D"/>
<path d="M26.4315 19.7443H25.3828V20.7919H26.4315V19.7443Z" fill="#EB1B3D"/>
<path d="M26.4315 18.6956H25.3828V19.7442H26.4315V18.6956Z" fill="#EB1B3D"/>
<path d="M26.4315 17.6469H25.3828V18.6955H26.4315V17.6469Z" fill="#CA1133"/>
<path d="M26.4315 16.5982H25.3828V17.6469H26.4315V16.5982Z" fill="#CA1133"/>
<path d="M26.4315 15.5506H25.3828V16.5982H26.4315V15.5506Z" fill="#231F20"/>
<path d="M26.4315 11.3559H25.3828V12.4046H26.4315V11.3559Z" fill="#231F20"/>
<path d="M26.4315 10.3083H25.3828V11.3559H26.4315V10.3083Z" fill="#231F20"/>
<path d="M25.3835 27.0828H24.3359V28.1315H25.3835V27.0828Z" fill="#231F20"/>
<path d="M25.3835 26.0342H24.3359V27.0829H25.3835V26.0342Z" fill="#CA1133"/>
<path d="M25.3835 24.9866H24.3359V26.0342H25.3835V24.9866Z" fill="#CA1133"/>
<path d="M25.3835 23.9379H24.3359V24.9865H25.3835V23.9379Z" fill="#EB1B3D"/>
<path d="M25.3835 22.8892H24.3359V23.9379H25.3835V22.8892Z" fill="#EB1B3D"/>
<path d="M25.3835 21.8405H24.3359V22.8892H25.3835V21.8405Z" fill="#EB1B3D"/>
<path d="M25.3835 20.7918H24.3359V21.8405H25.3835V20.7918Z" fill="#EB1B3D"/>
<path d="M25.3835 19.7443H24.3359V20.7919H25.3835V19.7443Z" fill="#EB1B3D"/>
<path d="M25.3835 18.6956H24.3359V19.7442H25.3835V18.6956Z" fill="#EB1B3D"/>
<path d="M25.3835 17.6469H24.3359V18.6955H25.3835V17.6469Z" fill="#CA1133"/>
<path d="M25.3835 16.5982H24.3359V17.6469H25.3835V16.5982Z" fill="#CA1133"/>
<path d="M25.3835 15.5506H24.3359V16.5982H25.3835V15.5506Z" fill="#231F20"/>
<path d="M25.3835 9.25958H24.3359V10.3083H25.3835V9.25958Z" fill="#231F20"/>
<path d="M25.3835 8.21094H24.3359V9.25962H25.3835V8.21094Z" fill="#231F20"/>
<path d="M24.3299 26.0342H23.2812V27.0829H24.3299V26.0342Z" fill="#231F20"/>
<path d="M24.3299 24.9866H23.2812V26.0342H24.3299V24.9866Z" fill="#CA1133"/>
<path d="M24.3299 23.9379H23.2812V24.9865H24.3299V23.9379Z" fill="#CA1133"/>
<path d="M24.3299 22.8892H23.2812V23.9379H24.3299V22.8892Z" fill="#EB1B3D"/>
<path d="M24.3299 21.8405H23.2812V22.8892H24.3299V21.8405Z" fill="#EB1B3D"/>
<path d="M24.3299 20.7918H23.2812V21.8405H24.3299V20.7918Z" fill="#EB1B3D"/>
<path d="M24.3299 19.7443H23.2812V20.7919H24.3299V19.7443Z" fill="#EB1B3D"/>
<path d="M24.3299 18.6956H23.2812V19.7442H24.3299V18.6956Z" fill="#CA1133"/>
<path d="M24.3299 17.6469H23.2812V18.6955H24.3299V17.6469Z" fill="#CA1133"/>
<path d="M24.3299 16.5982H23.2812V17.6469H24.3299V16.5982Z" fill="#CA1133"/>
<path d="M24.3299 15.5506H23.2812V16.5982H24.3299V15.5506Z" fill="#231F20"/>
<path d="M24.3299 8.21094H23.2812V9.25962H24.3299V8.21094Z" fill="#231F20"/>
<path d="M24.3299 7.16223H23.2812V8.21091H24.3299V7.16223Z" fill="#231F20"/>
<path d="M23.2831 26.0342H22.2344V27.0829H23.2831V26.0342Z" fill="#231F20"/>
<path d="M23.2831 24.9866H22.2344V26.0342H23.2831V24.9866Z" fill="#231F20"/>
<path d="M23.2831 23.9379H22.2344V24.9865H23.2831V23.9379Z" fill="#CA1133"/>
<path d="M23.2831 22.8892H22.2344V23.9379H23.2831V22.8892Z" fill="#CA1133"/>
<path d="M23.2831 21.8405H22.2344V22.8892H23.2831V21.8405Z" fill="#CA1133"/>
<path d="M23.2831 20.7918H22.2344V21.8405H23.2831V20.7918Z" fill="#CA1133"/>
<path d="M23.2831 19.7443H22.2344V20.7919H23.2831V19.7443Z" fill="#CA1133"/>
<path d="M23.2831 18.6956H22.2344V19.7442H23.2831V18.6956Z" fill="#CA1133"/>
<path d="M23.2831 17.6469H22.2344V18.6955H23.2831V17.6469Z" fill="#CA1133"/>
<path d="M23.2831 16.5982H22.2344V17.6469H23.2831V16.5982Z" fill="#CA1133"/>
<path d="M23.2831 15.5506H22.2344V16.5982H23.2831V15.5506Z" fill="#231F20"/>
<path d="M23.2831 7.16223H22.2344V8.21091H23.2831V7.16223Z" fill="#231F20"/>
<path d="M23.2831 6.11462H22.2344V7.16223H23.2831V6.11462Z" fill="#231F20"/>
<path d="M22.2362 23.9379H21.1875V24.9865H22.2362V23.9379Z" fill="#231F20"/>
<path d="M22.2362 22.8892H21.1875V23.9379H22.2362V22.8892Z" fill="#CA1133"/>
<path d="M22.2362 21.8405H21.1875V22.8892H22.2362V21.8405Z" fill="#CA1133"/>
<path d="M22.2362 20.7918H21.1875V21.8405H22.2362V20.7918Z" fill="#CA1133"/>
<path d="M22.2362 19.7443H21.1875V20.7919H22.2362V19.7443Z" fill="#CA1133"/>
<path d="M22.2362 18.6956H21.1875V19.7442H22.2362V18.6956Z" fill="#CA1133"/>
<path d="M22.2362 17.6469H21.1875V18.6955H22.2362V17.6469Z" fill="#CA1133"/>
<path d="M22.2362 16.5982H21.1875V17.6469H22.2362V16.5982Z" fill="#CA1133"/>
<path d="M22.2362 15.5506H21.1875V16.5982H22.2362V15.5506Z" fill="#231F20"/>
<path d="M22.2362 6.11462H21.1875V7.16223H22.2362V6.11462Z" fill="#231F20"/>
<path d="M22.2362 5.06598H21.1875V6.11466H22.2362V5.06598Z" fill="#231F20"/>
<path d="M21.1893 22.8892H20.1406V23.9379H21.1893V22.8892Z" fill="#231F20"/>
<path d="M21.1893 21.8405H20.1406V22.8892H21.1893V21.8405Z" fill="#231F20"/>
<path d="M21.1893 20.7918H20.1406V21.8405H21.1893V20.7918Z" fill="#CA1133"/>
<path d="M21.1893 19.7443H20.1406V20.7919H21.1893V19.7443Z" fill="#CA1133"/>
<path d="M21.1893 18.6956H20.1406V19.7442H21.1893V18.6956Z" fill="#CA1133"/>
<path d="M21.1893 17.6469H20.1406V18.6955H21.1893V17.6469Z" fill="#CA1133"/>
<path d="M21.1893 16.5982H20.1406V17.6469H21.1893V16.5982Z" fill="#231F20"/>
<path d="M21.1893 5.06598H20.1406V6.11466H21.1893V5.06598Z" fill="#231F20"/>
<path d="M20.1413 20.7918H19.0938V21.8405H20.1413V20.7918Z" fill="#231F20"/>
<path d="M20.1413 19.7443H19.0938V20.7919H20.1413V19.7443Z" fill="#231F20"/>
<path d="M20.1413 18.6956H19.0938V19.7442H20.1413V18.6956Z" fill="#231F20"/>
<path d="M20.1413 17.6469H19.0938V18.6955H20.1413V17.6469Z" fill="#231F20"/>
<path d="M20.1413 5.06598H19.0938V6.11466H20.1413V5.06598Z" fill="#231F20"/>
<path d="M20.1413 4.01727H19.0938V5.06595H20.1413V4.01727Z" fill="#231F20"/>
<path d="M19.0877 4.01727H18.0391V5.06595H19.0877V4.01727Z" fill="#231F20"/>
<path d="M18.0409 4.01727H16.9922V5.06595H18.0409V4.01727Z" fill="#231F20"/>
<path d="M18.0409 2.96857H16.9922V4.01725H18.0409V2.96857Z" fill="#231F20"/>
<path d="M16.994 24.9866H15.9453V26.0342H16.994V24.9866Z" fill="#231F20"/>
<path d="M16.994 23.9379H15.9453V24.9865H16.994V23.9379Z" fill="#231F20"/>
<path d="M16.994 22.8892H15.9453V23.9379H16.994V22.8892Z" fill="#231F20"/>
<path d="M16.994 21.8405H15.9453V22.8892H16.994V21.8405Z" fill="#231F20"/>
<path d="M16.994 2.96857H15.9453V4.01725H16.994V2.96857Z" fill="#231F20"/>
<path d="M15.946 27.0828H14.8984V28.1315H15.946V27.0828Z" fill="#231F20"/>
<path d="M15.946 26.0342H14.8984V27.0829H15.946V26.0342Z" fill="#231F20"/>
<path d="M15.946 24.9866H14.8984V26.0342H15.946V24.9866Z" fill="#CA1133"/>
<path d="M15.946 23.9379H14.8984V24.9865H15.946V23.9379Z" fill="#CA1133"/>
<path d="M15.946 22.8892H14.8984V23.9379H15.946V22.8892Z" fill="#CA1133"/>
<path d="M15.946 21.8405H14.8984V22.8892H15.946V21.8405Z" fill="#CA1133"/>
<path d="M15.946 20.7918H14.8984V21.8405H15.946V20.7918Z" fill="#231F20"/>
<path d="M15.946 2.96857H14.8984V4.01725H15.946V2.96857Z" fill="#231F20"/>
<path d="M14.9002 28.1315H13.8516V29.1802H14.9002V28.1315Z" fill="#CA1133"/>
<path d="M14.9002 27.0828H13.8516V28.1315H14.9002V27.0828Z" fill="#CA1133"/>
<path d="M14.9002 26.0342H13.8516V27.0829H14.9002V26.0342Z" fill="#CA1133"/>
<path d="M14.9002 24.9866H13.8516V26.0342H14.9002V24.9866Z" fill="#CA1133"/>
<path d="M14.9002 23.9379H13.8516V24.9865H14.9002V23.9379Z" fill="#CA1133"/>
<path d="M14.9002 22.8892H13.8516V23.9379H14.9002V22.8892Z" fill="#CA1133"/>
<path d="M14.9002 21.8405H13.8516V22.8892H14.9002V21.8405Z" fill="#CA1133"/>
<path d="M14.9002 20.7918H13.8516V21.8405H14.9002V20.7918Z" fill="#CA1133"/>
<path d="M14.9002 19.7443H13.8516V20.7919H14.9002V19.7443Z" fill="#231F20"/>
<path d="M14.9002 2.96857H13.8516V4.01725H14.9002V2.96857Z" fill="#231F20"/>
<path d="M13.8456 30.2278H12.7969V31.2765H13.8456V30.2278Z" fill="#231F20"/>
<path d="M13.8456 29.1802H12.7969V30.2278H13.8456V29.1802Z" fill="#231F20"/>
<path d="M13.8456 28.1315H12.7969V29.1802H13.8456V28.1315Z" fill="#CA1133"/>
<path d="M13.8456 27.0828H12.7969V28.1315H13.8456V27.0828Z" fill="#CA1133"/>
<path d="M13.8456 26.0342H12.7969V27.0829H13.8456V26.0342Z" fill="#CA1133"/>
<path d="M13.8456 24.9866H12.7969V26.0342H13.8456V24.9866Z" fill="#CA1133"/>
<path d="M13.8456 23.9379H12.7969V24.9865H13.8456V23.9379Z" fill="#CA1133"/>
<path d="M13.8456 22.8892H12.7969V23.9379H13.8456V22.8892Z" fill="#CA1133"/>
<path d="M13.8456 21.8405H12.7969V22.8892H13.8456V21.8405Z" fill="#CA1133"/>
<path d="M13.8456 20.7918H12.7969V21.8405H13.8456V20.7918Z" fill="#CA1133"/>
<path d="M13.8456 19.7443H12.7969V20.7919H13.8456V19.7443Z" fill="#231F20"/>
<path d="M13.8456 2.96857H12.7969V4.01725H13.8456V2.96857Z" fill="#231F20"/>
<path d="M12.7987 30.2278H11.75V31.2765H12.7987V30.2278Z" fill="#231F20"/>
<path d="M12.7987 29.1802H11.75V30.2278H12.7987V29.1802Z" fill="#CA1133"/>
<path d="M12.7987 28.1315H11.75V29.1802H12.7987V28.1315Z" fill="#CA1133"/>
<path d="M12.7987 27.0828H11.75V28.1315H12.7987V27.0828Z" fill="#CA1133"/>
<path d="M12.7987 26.0342H11.75V27.0829H12.7987V26.0342Z" fill="#EB1B3D"/>
<path d="M12.7987 24.9866H11.75V26.0342H12.7987V24.9866Z" fill="#EB1B3D"/>
<path d="M12.7987 23.9379H11.75V24.9865H12.7987V23.9379Z" fill="#EB1B3D"/>
<path d="M12.7987 22.8892H11.75V23.9379H12.7987V22.8892Z" fill="#EB1B3D"/>
<path d="M12.7987 21.8405H11.75V22.8892H12.7987V21.8405Z" fill="#CA1133"/>
<path d="M12.7987 20.7918H11.75V21.8405H12.7987V20.7918Z" fill="#CA1133"/>
<path d="M12.7987 19.7443H11.75V20.7919H12.7987V19.7443Z" fill="#231F20"/>
<path d="M12.7987 10.3083H11.75V11.3559H12.7987V10.3083Z" fill="#231F20"/>
<path d="M12.7987 9.25958H11.75V10.3083H12.7987V9.25958Z" fill="#231F20"/>
<path d="M12.7987 8.21094H11.75V9.25962H12.7987V8.21094Z" fill="#231F20"/>
<path d="M12.7987 7.16223H11.75V8.21091H12.7987V7.16223Z" fill="#231F20"/>
<path d="M12.7987 6.11462H11.75V7.16223H12.7987V6.11462Z" fill="#231F20"/>
<path d="M12.7987 5.06598H11.75V6.11466H12.7987V5.06598Z" fill="#231F20"/>
<path d="M12.7987 4.01727H11.75V5.06595H12.7987V4.01727Z" fill="#231F20"/>
<path d="M12.7987 2.96857H11.75V4.01725H12.7987V2.96857Z" fill="#231F20"/>
<path d="M11.7518 31.2765H10.7031V32.3252H11.7518V31.2765Z" fill="#231F20"/>
<path d="M11.7518 30.2278H10.7031V31.2765H11.7518V30.2278Z" fill="#CA1133"/>
<path d="M11.7518 29.1802H10.7031V30.2278H11.7518V29.1802Z" fill="#CA1133"/>
<path d="M11.7518 28.1315H10.7031V29.1802H11.7518V28.1315Z" fill="#EB1B3D"/>
<path d="M11.7518 27.0828H10.7031V28.1315H11.7518V27.0828Z" fill="#EB1B3D"/>
<path d="M11.7518 26.0342H10.7031V27.0829H11.7518V26.0342Z" fill="#EB1B3D"/>
<path d="M11.7518 24.9866H10.7031V26.0342H11.7518V24.9866Z" fill="#EB1B3D"/>
<path d="M11.7518 23.9379H10.7031V24.9865H11.7518V23.9379Z" fill="#EB1B3D"/>
<path d="M11.7518 22.8892H10.7031V23.9379H11.7518V22.8892Z" fill="#EB1B3D"/>
<path d="M11.7518 21.8405H10.7031V22.8892H11.7518V21.8405Z" fill="#CA1133"/>
<path d="M11.7518 20.7918H10.7031V21.8405H11.7518V20.7918Z" fill="#CA1133"/>
<path d="M11.7518 19.7443H10.7031V20.7919H11.7518V19.7443Z" fill="#231F20"/>
<path d="M11.7518 13.4532H10.7031V14.5019H11.7518V13.4532Z" fill="#231F20"/>
<path d="M11.7518 12.4045H10.7031V13.4532H11.7518V12.4045Z" fill="#231F20"/>
<path d="M11.7518 11.3559H10.7031V12.4046H11.7518V11.3559Z" fill="#231F20"/>
<path d="M11.7518 10.3083H10.7031V11.3559H11.7518V10.3083Z" fill="#231F20"/>
<path d="M11.7518 4.01727H10.7031V5.06595H11.7518V4.01727Z" fill="#231F20"/>
<path d="M11.7518 2.96857H10.7031V4.01725H11.7518V2.96857Z" fill="#231F20"/>
<path d="M10.7038 31.2765H9.65625V32.3252H10.7038V31.2765Z" fill="#231F20"/>
<path d="M10.7038 30.2278H9.65625V31.2765H10.7038V30.2278Z" fill="#CA1133"/>
<path d="M10.7038 29.1802H9.65625V30.2278H10.7038V29.1802Z" fill="#EB1B3D"/>
<path d="M10.7038 28.1315H9.65625V29.1802H10.7038V28.1315Z" fill="#EB1B3D"/>
<path d="M10.7038 27.0828H9.65625V28.1315H10.7038V27.0828Z" fill="#EB1B3D"/>
<path d="M10.7038 26.0342H9.65625V27.0829H10.7038V26.0342Z" fill="#EB1B3D"/>
<path d="M10.7038 24.9866H9.65625V26.0342H10.7038V24.9866Z" fill="#EB1B3D"/>
<path d="M10.7038 23.9379H9.65625V24.9865H10.7038V23.9379Z" fill="#EB1B3D"/>
<path d="M10.7038 22.8892H9.65625V23.9379H10.7038V22.8892Z" fill="#EB1B3D"/>
<path d="M10.7038 21.8405H9.65625V22.8892H10.7038V21.8405Z" fill="#CA1133"/>
<path d="M10.7038 20.7918H9.65625V21.8405H10.7038V20.7918Z" fill="#CA1133"/>
<path d="M10.7038 19.7443H9.65625V20.7919H10.7038V19.7443Z" fill="#231F20"/>
<path d="M10.7038 16.5982H9.65625V17.6469H10.7038V16.5982Z" fill="#231F20"/>
<path d="M10.7038 15.5506H9.65625V16.5982H10.7038V15.5506Z" fill="#231F20"/>
<path d="M10.7038 14.5019H9.65625V15.5506H10.7038V14.5019Z" fill="#231F20"/>
<path d="M10.7038 13.4532H9.65625V14.5019H10.7038V13.4532Z" fill="#231F20"/>
<path d="M10.7038 2.96857H9.65625V4.01725H10.7038V2.96857Z" fill="#231F20"/>
<path d="M10.7038 1.91992H9.65625V2.9686H10.7038V1.91992Z" fill="#231F20"/>
<path d="M9.65806 31.2765H8.60938V32.3252H9.65806V31.2765Z" fill="#231F20"/>
<path d="M9.65806 30.2278H8.60938V31.2765H9.65806V30.2278Z" fill="#CA1133"/>
<path d="M9.65806 29.1802H8.60938V30.2278H9.65806V29.1802Z" fill="#EB1B3D"/>
<path d="M9.65806 28.1315H8.60938V29.1802H9.65806V28.1315Z" fill="#EB1B3D"/>
<path d="M9.65806 27.0828H8.60938V28.1315H9.65806V27.0828Z" fill="#EB1B3D"/>
<path d="M9.65806 26.0342H8.60938V27.0829H9.65806V26.0342Z" fill="#EB1B3D"/>
<path d="M9.65806 24.9866H8.60938V26.0342H9.65806V24.9866Z" fill="#EB1B3D"/>
<path d="M9.65806 23.9379H8.60938V24.9865H9.65806V23.9379Z" fill="#EB1B3D"/>
<path d="M9.65806 22.8892H8.60938V23.9379H9.65806V22.8892Z" fill="#CA1133"/>
<path d="M9.65806 21.8405H8.60938V22.8892H9.65806V21.8405Z" fill="#CA1133"/>
<path d="M9.65806 20.7918H8.60938V21.8405H9.65806V20.7918Z" fill="#231F20"/>
<path d="M9.65806 19.7443H8.60938V20.7919H9.65806V19.7443Z" fill="#231F20"/>
<path d="M9.65806 18.6956H8.60938V19.7442H9.65806V18.6956Z" fill="#231F20"/>
<path d="M9.65806 17.6469H8.60938V18.6955H9.65806V17.6469Z" fill="#231F20"/>
<path d="M9.65806 16.5982H8.60938V17.6469H9.65806V16.5982Z" fill="#231F20"/>
<path d="M9.65806 1.91992H8.60938V2.9686H9.65806V1.91992Z" fill="#231F20"/>
<path d="M9.65806 0.872314H8.60938V1.91991H9.65806V0.872314Z" fill="#231F20"/>
<path d="M8.60337 31.2765H7.55469V32.3252H8.60337V31.2765Z" fill="#231F20"/>
<path d="M8.60337 30.2278H7.55469V31.2765H8.60337V30.2278Z" fill="#CA1133"/>
<path d="M8.60337 29.1802H7.55469V30.2278H8.60337V29.1802Z" fill="#EB1B3D"/>
<path d="M8.60337 28.1315H7.55469V29.1802H8.60337V28.1315Z" fill="#EB1B3D"/>
<path d="M8.60337 27.0828H7.55469V28.1315H8.60337V27.0828Z" fill="#EB1B3D"/>
<path d="M8.60337 26.0342H7.55469V27.0829H8.60337V26.0342Z" fill="#EB1B3D"/>
<path d="M8.60337 24.9866H7.55469V26.0342H8.60337V24.9866Z" fill="#EB1B3D"/>
<path d="M8.60337 23.9379H7.55469V24.9865H8.60337V23.9379Z" fill="#EB1B3D"/>
<path d="M8.60337 22.8892H7.55469V23.9379H8.60337V22.8892Z" fill="#CA1133"/>
<path d="M8.60337 21.8405H7.55469V22.8892H8.60337V21.8405Z" fill="#CA1133"/>
<path d="M8.60337 20.7918H7.55469V21.8405H8.60337V20.7918Z" fill="#231F20"/>
<path d="M8.60337 19.7443H7.55469V20.7919H8.60337V19.7443Z" fill="#231F20"/>
<path d="M8.60337 18.6956H7.55469V19.7442H8.60337V18.6956Z" fill="#231F20"/>
<path d="M8.60337 0.872314H7.55469V1.91991H8.60337V0.872314Z" fill="#231F20"/>
<path d="M7.55649 31.2765H6.50781V32.3252H7.55649V31.2765Z" fill="#231F20"/>
<path d="M7.55649 30.2278H6.50781V31.2765H7.55649V30.2278Z" fill="#CA1133"/>
<path d="M7.55649 29.1802H6.50781V30.2278H7.55649V29.1802Z" fill="#EB1B3D"/>
<path d="M7.55649 28.1315H6.50781V29.1802H7.55649V28.1315Z" fill="#FF3E63"/>
<path d="M7.55649 27.0828H6.50781V28.1315H7.55649V27.0828Z" fill="#EB1B3D"/>
<path d="M7.55649 26.0342H6.50781V27.0829H7.55649V26.0342Z" fill="#EB1B3D"/>
<path d="M7.55649 24.9866H6.50781V26.0342H7.55649V24.9866Z" fill="#EB1B3D"/>
<path d="M7.55649 23.9379H6.50781V24.9865H7.55649V23.9379Z" fill="#EB1B3D"/>
<path d="M7.55649 22.8892H6.50781V23.9379H7.55649V22.8892Z" fill="#EB1B3D"/>
<path d="M7.55649 21.8405H6.50781V22.8892H7.55649V21.8405Z" fill="#CA1133"/>
<path d="M7.55649 20.7918H6.50781V21.8405H7.55649V20.7918Z" fill="#CA1133"/>
<path d="M7.55649 19.7443H6.50781V20.7919H7.55649V19.7443Z" fill="#231F20"/>
<path d="M6.50854 31.2765H5.46094V32.3252H6.50854V31.2765Z" fill="#231F20"/>
<path d="M6.50854 30.2278H5.46094V31.2765H6.50854V30.2278Z" fill="#CA1133"/>
<path d="M6.50854 29.1802H5.46094V30.2278H6.50854V29.1802Z" fill="#EB1B3D"/>
<path d="M6.50854 28.1315H5.46094V29.1802H6.50854V28.1315Z" fill="#EB1B3D"/>
<path d="M6.50854 27.0828H5.46094V28.1315H6.50854V27.0828Z" fill="#FF3E63"/>
<path d="M6.50854 26.0342H5.46094V27.0829H6.50854V26.0342Z" fill="#EB1B3D"/>
<path d="M6.50854 24.9866H5.46094V26.0342H6.50854V24.9866Z" fill="#EB1B3D"/>
<path d="M6.50854 23.9379H5.46094V24.9865H6.50854V23.9379Z" fill="#EB1B3D"/>
<path d="M6.50854 22.8892H5.46094V23.9379H6.50854V22.8892Z" fill="#EB1B3D"/>
<path d="M6.50854 21.8405H5.46094V22.8892H6.50854V21.8405Z" fill="#EB1B3D"/>
<path d="M6.50854 20.7918H5.46094V21.8405H6.50854V20.7918Z" fill="#CA1133"/>
<path d="M6.50854 19.7443H5.46094V20.7919H6.50854V19.7443Z" fill="#231F20"/>
<path d="M5.46274 30.2278H4.41406V31.2765H5.46274V30.2278Z" fill="#231F20"/>
<path d="M5.46274 29.1802H4.41406V30.2278H5.46274V29.1802Z" fill="#EB1B3D"/>
<path d="M5.46274 28.1315H4.41406V29.1802H5.46274V28.1315Z" fill="#EB1B3D"/>
<path d="M5.46274 27.0828H4.41406V28.1315H5.46274V27.0828Z" fill="#FF3E63"/>
<path d="M5.46274 26.0342H4.41406V27.0829H5.46274V26.0342Z" fill="#FF3E63"/>
<path d="M5.46274 24.9866H4.41406V26.0342H5.46274V24.9866Z" fill="#EB1B3D"/>
<path d="M5.46274 23.9379H4.41406V24.9865H5.46274V23.9379Z" fill="#EB1B3D"/>
<path d="M5.46274 22.8892H4.41406V23.9379H5.46274V22.8892Z" fill="#EB1B3D"/>
<path d="M5.46274 21.8405H4.41406V22.8892H5.46274V21.8405Z" fill="#EB1B3D"/>
<path d="M5.46274 20.7918H4.41406V21.8405H5.46274V20.7918Z" fill="#CA1133"/>
<path d="M5.46274 19.7443H4.41406V20.7919H5.46274V19.7443Z" fill="#231F20"/>
<path d="M4.41587 30.2278H3.36719V31.2765H4.41587V30.2278Z" fill="#231F20"/>
<path d="M4.41587 29.1802H3.36719V30.2278H4.41587V29.1802Z" fill="#231F20"/>
<path d="M4.41587 28.1315H3.36719V29.1802H4.41587V28.1315Z" fill="#EB1B3D"/>
<path d="M4.41587 27.0828H3.36719V28.1315H4.41587V27.0828Z" fill="#EB1B3D"/>
<path d="M4.41587 26.0342H3.36719V27.0829H4.41587V26.0342Z" fill="#FF3E63"/>
<path d="M4.41587 24.9866H3.36719V26.0342H4.41587V24.9866Z" fill="#FF3E63"/>
<path d="M4.41587 23.9379H3.36719V24.9865H4.41587V23.9379Z" fill="#FF3E63"/>
<path d="M4.41587 22.8892H3.36719V23.9379H4.41587V22.8892Z" fill="#FF3E63"/>
<path d="M4.41587 21.8405H3.36719V22.8892H4.41587V21.8405Z" fill="#EB1B3D"/>
<path d="M4.41587 20.7918H3.36719V21.8405H4.41587V20.7918Z" fill="#CA1133"/>
<path d="M4.41587 19.7443H3.36719V20.7919H4.41587V19.7443Z" fill="#231F20"/>
<path d="M3.36118 28.1315H2.3125V29.1802H3.36118V28.1315Z" fill="#231F20"/>
<path d="M3.36118 27.0828H2.3125V28.1315H3.36118V27.0828Z" fill="#EB1B3D"/>
<path d="M3.36118 26.0342H2.3125V27.0829H3.36118V26.0342Z" fill="#EB1B3D"/>
<path d="M3.36118 24.9866H2.3125V26.0342H3.36118V24.9866Z" fill="#FF3E63"/>
<path d="M3.36118 23.9379H2.3125V24.9865H3.36118V23.9379Z" fill="#FF3E63"/>
<path d="M3.36118 22.8892H2.3125V23.9379H3.36118V22.8892Z" fill="#FF3E63"/>
<path d="M3.36118 21.8405H2.3125V22.8892H3.36118V21.8405Z" fill="#EB1B3D"/>
<path d="M3.36118 20.7918H2.3125V21.8405H3.36118V20.7918Z" fill="#CA1133"/>
<path d="M3.36118 19.7443H2.3125V20.7919H3.36118V19.7443Z" fill="#231F20"/>
<path d="M2.3143 27.0828H1.26562V28.1315H2.3143V27.0828Z" fill="#231F20"/>
<path d="M2.3143 26.0342H1.26562V27.0829H2.3143V26.0342Z" fill="#231F20"/>
<path d="M2.3143 24.9866H1.26562V26.0342H2.3143V24.9866Z" fill="#FF3E63"/>
<path d="M2.3143 23.9379H1.26562V24.9865H2.3143V23.9379Z" fill="#FF3E63"/>
<path d="M2.3143 22.8892H1.26562V23.9379H2.3143V22.8892Z" fill="#FF3E63"/>
<path d="M2.3143 21.8405H1.26562V22.8892H2.3143V21.8405Z" fill="#EB1B3D"/>
<path d="M2.3143 20.7918H1.26562V21.8405H2.3143V20.7918Z" fill="#231F20"/>
<path d="M1.26635 24.9866H0.21875V26.0342H1.26635V24.9866Z" fill="#231F20"/>
<path d="M1.26635 23.9379H0.21875V24.9865H1.26635V23.9379Z" fill="#231F20"/>
<path d="M1.26635 22.8892H0.21875V23.9379H1.26635V22.8892Z" fill="#231F20"/>
<path d="M1.26635 21.8405H0.21875V22.8892H1.26635V21.8405Z" fill="#231F20"/>
</svg>
