<svg width="29" height="37" viewBox="0 0 29 37" fill="none" xmlns="http://www.w3.org/2000/svg">
<path d="M22.2674 1.29932H21.2188V2.348H22.2674V1.29932Z" fill="#FF7A00"/>
<path d="M21.2206 2.34796H20.1719V3.39664H21.2206V2.34796Z" fill="#FF7A00"/>
<path d="M21.2206 1.29932H20.1719V2.348H21.2206V1.29932Z" fill="#FF7A00"/>
<path d="M20.1726 3.39667H19.125V4.44427H20.1726V3.39667Z" fill="#FF7A00"/>
<path d="M20.1726 2.34796H19.125V3.39664H20.1726V2.34796Z" fill="#FF7A00"/>
<path d="M19.119 4.44427H18.0703V5.49295H19.119V4.44427Z" fill="#FF7A00"/>
<path d="M18.0721 5.49292H17.0234V6.5416H18.0721V5.49292Z" fill="#FF7A00"/>
<path d="M19.119 3.39667H18.0703V4.44427H19.119V3.39667Z" fill="#FF7A00"/>
<path d="M18.0721 7.59027H17.0234V8.63895H18.0721V7.59027Z" fill="#FF7A00"/>
<path d="M18.0721 6.54163H17.0234V7.59031H18.0721V6.54163Z" fill="#FF7A00"/>
<path d="M18.0721 4.44427H17.0234V5.49295H18.0721V4.44427Z" fill="#FF7A00"/>
<path d="M18.0721 8.63898H17.0234V9.68658H18.0721V8.63898Z" fill="#FF7A00"/>
<path d="M28.5565 22.2686H27.5078V23.3162H28.5565V22.2686Z" fill="#231F20"/>
<path d="M28.5565 21.2199H27.5078V22.2686H28.5565V21.2199Z" fill="#231F20"/>
<path d="M28.5565 20.1712H27.5078V21.2199H28.5565V20.1712Z" fill="#231F20"/>
<path d="M28.5565 19.1226H27.5078V20.1712H28.5565V19.1226Z" fill="#231F20"/>
<path d="M28.5565 18.075H27.5078V19.1226H28.5565V18.075Z" fill="#231F20"/>
<path d="M28.5565 17.0262H27.5078V18.0749H28.5565V17.0262Z" fill="#231F20"/>
<path d="M28.5565 15.9775H27.5078V17.0262H28.5565V15.9775Z" fill="#231F20"/>
<path d="M28.5565 14.9289H27.5078V15.9776H28.5565V14.9289Z" fill="#231F20"/>
<path d="M28.5565 13.8802H27.5078V14.9289H28.5565V13.8802Z" fill="#231F20"/>
<path d="M28.5565 12.8326H27.5078V13.8802H28.5565V12.8326Z" fill="#231F20"/>
<path d="M27.5096 24.3649H26.4609V25.4135H27.5096V24.3649Z" fill="#231F20"/>
<path d="M27.5096 23.3162H26.4609V24.3648H27.5096V23.3162Z" fill="#231F20"/>
<path d="M27.5096 22.2686H26.4609V23.3162H27.5096V22.2686Z" fill="#FF7A00"/>
<path d="M27.5096 21.2199H26.4609V22.2686H27.5096V21.2199Z" fill="#FF7A00"/>
<path d="M27.5096 20.1712H26.4609V21.2199H27.5096V20.1712Z" fill="#FF7A00"/>
<path d="M27.5096 19.1226H26.4609V20.1712H27.5096V19.1226Z" fill="#FF7A00"/>
<path d="M27.5096 18.075H26.4609V19.1226H27.5096V18.075Z" fill="#FF7A00"/>
<path d="M27.5096 17.0262H26.4609V18.0749H27.5096V17.0262Z" fill="#FF7A00"/>
<path d="M27.5096 15.9775H26.4609V17.0262H27.5096V15.9775Z" fill="#FF7A00"/>
<path d="M27.5096 14.9289H26.4609V15.9776H27.5096V14.9289Z" fill="#FF7A00"/>
<path d="M27.5096 13.8802H26.4609V14.9289H27.5096V13.8802Z" fill="#FF7A00"/>
<path d="M27.5096 12.8326H26.4609V13.8802H27.5096V12.8326Z" fill="#231F20"/>
<path d="M27.5096 11.7839H26.4609V12.8326H27.5096V11.7839Z" fill="#231F20"/>
<path d="M26.4627 26.4622H25.4141V27.5109H26.4627V26.4622Z" fill="#231F20"/>
<path d="M26.4627 25.4135H25.4141V26.4622H26.4627V25.4135Z" fill="#231F20"/>
<path d="M26.4627 24.3649H25.4141V25.4135H26.4627V24.3649Z" fill="#FFAA00"/>
<path d="M26.4627 23.3162H25.4141V24.3648H26.4627V23.3162Z" fill="#FFAA00"/>
<path d="M26.4627 22.2686H25.4141V23.3162H26.4627V22.2686Z" fill="#FF7A00"/>
<path d="M26.4627 21.2199H25.4141V22.2686H26.4627V21.2199Z" fill="#FF7A00"/>
<path d="M26.4627 20.1712H25.4141V21.2199H26.4627V20.1712Z" fill="#FF7A00"/>
<path d="M26.4627 19.1226H25.4141V20.1712H26.4627V19.1226Z" fill="#FF7A00"/>
<path d="M26.4627 18.075H25.4141V19.1226H26.4627V18.075Z" fill="#FF7A00"/>
<path d="M26.4627 17.0262H25.4141V18.0749H26.4627V17.0262Z" fill="#FF7A00"/>
<path d="M26.4627 15.9775H25.4141V17.0262H26.4627V15.9775Z" fill="#FF7A00"/>
<path d="M26.4627 14.9289H25.4141V15.9776H26.4627V14.9289Z" fill="#FF7A00"/>
<path d="M26.4627 13.8802H25.4141V14.9289H26.4627V13.8802Z" fill="#FF7A00"/>
<path d="M26.4627 12.8326H25.4141V13.8802H26.4627V12.8326Z" fill="#FF7A00"/>
<path d="M26.4627 11.7839H25.4141V12.8326H26.4627V11.7839Z" fill="#231F20"/>
<path d="M26.4627 10.7352H25.4141V11.7839H26.4627V10.7352Z" fill="#231F20"/>
<path d="M25.4148 28.5585H24.3672V29.6072H25.4148V28.5585Z" fill="#231F20"/>
<path d="M25.4148 27.5109H24.3672V28.5585H25.4148V27.5109Z" fill="#231F20"/>
<path d="M25.4148 26.4622H24.3672V27.5109H25.4148V26.4622Z" fill="#FFAA00"/>
<path d="M25.4148 25.4135H24.3672V26.4622H25.4148V25.4135Z" fill="#FFAA00"/>
<path d="M25.4148 24.3649H24.3672V25.4135H25.4148V24.3649Z" fill="#FFAA00"/>
<path d="M25.4148 23.3162H24.3672V24.3648H25.4148V23.3162Z" fill="#FFAA00"/>
<path d="M25.4148 22.2686H24.3672V23.3162H25.4148V22.2686Z" fill="#FFAA00"/>
<path d="M25.4148 21.2199H24.3672V22.2686H25.4148V21.2199Z" fill="#FFAA00"/>
<path d="M25.4148 20.1712H24.3672V21.2199H25.4148V20.1712Z" fill="#FFAA00"/>
<path d="M25.4148 19.1226H24.3672V20.1712H25.4148V19.1226Z" fill="#FFAA00"/>
<path d="M25.4148 18.075H24.3672V19.1226H25.4148V18.075Z" fill="#FF7A00"/>
<path d="M25.4148 17.0262H24.3672V18.0749H25.4148V17.0262Z" fill="#FF7A00"/>
<path d="M25.4148 15.9775H24.3672V17.0262H25.4148V15.9775Z" fill="#FF7A00"/>
<path d="M25.4148 14.9289H24.3672V15.9776H25.4148V14.9289Z" fill="#FF7A00"/>
<path d="M25.4148 13.8802H24.3672V14.9289H25.4148V13.8802Z" fill="#FF7A00"/>
<path d="M25.4148 12.8326H24.3672V13.8802H25.4148V12.8326Z" fill="#FF7A00"/>
<path d="M25.4148 11.7839H24.3672V12.8326H25.4148V11.7839Z" fill="#FF7A00"/>
<path d="M25.4148 10.7352H24.3672V11.7839H25.4148V10.7352Z" fill="#231F20"/>
<path d="M24.3612 29.6072H23.3125V30.6559H24.3612V29.6072Z" fill="#231F20"/>
<path d="M24.3612 28.5585H23.3125V29.6072H24.3612V28.5585Z" fill="#FFAA00"/>
<path d="M24.3612 27.5109H23.3125V28.5585H24.3612V27.5109Z" fill="#FFAA00"/>
<path d="M24.3612 26.4622H23.3125V27.5109H24.3612V26.4622Z" fill="#FFAA00"/>
<path d="M24.3612 25.4135H23.3125V26.4622H24.3612V25.4135Z" fill="#FFAA00"/>
<path d="M24.3612 24.3649H23.3125V25.4135H24.3612V24.3649Z" fill="#FFAA00"/>
<path d="M24.3612 23.3162H23.3125V24.3648H24.3612V23.3162Z" fill="#FFAA00"/>
<path d="M24.3612 22.2686H23.3125V23.3162H24.3612V22.2686Z" fill="#FFAA00"/>
<path d="M24.3612 21.2199H23.3125V22.2686H24.3612V21.2199Z" fill="#FFAA00"/>
<path d="M24.3612 20.1712H23.3125V21.2199H24.3612V20.1712Z" fill="#FFAA00"/>
<path d="M24.3612 19.1226H23.3125V20.1712H24.3612V19.1226Z" fill="#FFAA00"/>
<path d="M24.3612 18.075H23.3125V19.1226H24.3612V18.075Z" fill="#FFAA00"/>
<path d="M24.3612 17.0262H23.3125V18.0749H24.3612V17.0262Z" fill="#FF7A00"/>
<path d="M24.3612 15.9775H23.3125V17.0262H24.3612V15.9775Z" fill="#FF7A00"/>
<path d="M24.3612 14.9289H23.3125V15.9776H24.3612V14.9289Z" fill="#FF7A00"/>
<path d="M24.3612 13.8802H23.3125V14.9289H24.3612V13.8802Z" fill="#FF7A00"/>
<path d="M24.3612 12.8326H23.3125V13.8802H24.3612V12.8326Z" fill="#FF7A00"/>
<path d="M24.3612 11.7839H23.3125V12.8326H24.3612V11.7839Z" fill="#FF7A00"/>
<path d="M24.3612 10.7352H23.3125V11.7839H24.3612V10.7352Z" fill="#231F20"/>
<path d="M24.3612 9.68658H23.3125V10.7353H24.3612V9.68658Z" fill="#231F20"/>
<path d="M23.3143 30.6558H22.2656V31.7045H23.3143V30.6558Z" fill="#231F20"/>
<path d="M23.3143 29.6072H22.2656V30.6559H23.3143V29.6072Z" fill="#FFAA00"/>
<path d="M23.3143 28.5585H22.2656V29.6072H23.3143V28.5585Z" fill="#FFAA00"/>
<path d="M23.3143 27.5109H22.2656V28.5585H23.3143V27.5109Z" fill="#FFAA00"/>
<path d="M23.3143 26.4622H22.2656V27.5109H23.3143V26.4622Z" fill="#FFAA00"/>
<path d="M23.3143 25.4135H22.2656V26.4622H23.3143V25.4135Z" fill="#FFAA00"/>
<path d="M23.3143 24.3649H22.2656V25.4135H23.3143V24.3649Z" fill="#FFAA00"/>
<path d="M23.3143 23.3162H22.2656V24.3648H23.3143V23.3162Z" fill="#FFAA00"/>
<path d="M23.3143 22.2686H22.2656V23.3162H23.3143V22.2686Z" fill="#FFAA00"/>
<path d="M23.3143 21.2199H22.2656V22.2686H23.3143V21.2199Z" fill="#FFAA00"/>
<path d="M23.3143 20.1712H22.2656V21.2199H23.3143V20.1712Z" fill="#FFAA00"/>
<path d="M23.3143 19.1226H22.2656V20.1712H23.3143V19.1226Z" fill="#FFAA00"/>
<path d="M23.3143 18.075H22.2656V19.1226H23.3143V18.075Z" fill="#FFAA00"/>
<path d="M23.3143 17.0262H22.2656V18.0749H23.3143V17.0262Z" fill="#FF7A00"/>
<path d="M23.3143 15.9775H22.2656V17.0262H23.3143V15.9775Z" fill="#FF7A00"/>
<path d="M23.3143 14.9289H22.2656V15.9776H23.3143V14.9289Z" fill="#FF7A00"/>
<path d="M23.3143 13.8802H22.2656V14.9289H23.3143V13.8802Z" fill="#FF7A00"/>
<path d="M23.3143 12.8326H22.2656V13.8802H23.3143V12.8326Z" fill="#FF7A00"/>
<path d="M23.3143 11.7839H22.2656V12.8326H23.3143V11.7839Z" fill="#FF7A00"/>
<path d="M23.3143 10.7352H22.2656V11.7839H23.3143V10.7352Z" fill="#FF7A00"/>
<path d="M23.3143 9.68658H22.2656V10.7353H23.3143V9.68658Z" fill="#231F20"/>
<path d="M23.3143 2.34796H22.2656V3.39664H23.3143V2.34796Z" fill="#231F20"/>
<path d="M23.3143 1.29932H22.2656V2.348H23.3143V1.29932Z" fill="#231F20"/>
<path d="M23.3143 0.25061H22.2656V1.29929H23.3143V0.25061Z" fill="#231F20"/>
<path d="M22.2674 30.6558H21.2188V31.7045H22.2674V30.6558Z" fill="#231F20"/>
<path d="M22.2674 29.6072H21.2188V30.6559H22.2674V29.6072Z" fill="#FFAA00"/>
<path d="M22.2674 28.5585H21.2188V29.6072H22.2674V28.5585Z" fill="#FFAA00"/>
<path d="M22.2674 27.5109H21.2188V28.5585H22.2674V27.5109Z" fill="#FFAA00"/>
<path d="M22.2674 26.4622H21.2188V27.5109H22.2674V26.4622Z" fill="#FFAA00"/>
<path d="M22.2674 25.4135H21.2188V26.4622H22.2674V25.4135Z" fill="#FFAA00"/>
<path d="M22.2674 24.3649H21.2188V25.4135H22.2674V24.3649Z" fill="#FFAA00"/>
<path d="M22.2674 23.3162H21.2188V24.3648H22.2674V23.3162Z" fill="#FFD900"/>
<path d="M22.2674 22.2686H21.2188V23.3162H22.2674V22.2686Z" fill="#FFD900"/>
<path d="M22.2674 21.2199H21.2188V22.2686H22.2674V21.2199Z" fill="#FFD900"/>
<path d="M22.2674 20.1712H21.2188V21.2199H22.2674V20.1712Z" fill="#FFD900"/>
<path d="M22.2674 19.1226H21.2188V20.1712H22.2674V19.1226Z" fill="#FFAA00"/>
<path d="M22.2674 18.075H21.2188V19.1226H22.2674V18.075Z" fill="#FFAA00"/>
<path d="M22.2674 17.0262H21.2188V18.0749H22.2674V17.0262Z" fill="#FFAA00"/>
<path d="M22.2674 15.9775H21.2188V17.0262H22.2674V15.9775Z" fill="#FF7A00"/>
<path d="M22.2674 14.9289H21.2188V15.9776H22.2674V14.9289Z" fill="#FF7A00"/>
<path d="M22.2674 13.8802H21.2188V14.9289H22.2674V13.8802Z" fill="#FF7A00"/>
<path d="M22.2674 12.8326H21.2188V13.8802H22.2674V12.8326Z" fill="#FF7A00"/>
<path d="M22.2674 11.7839H21.2188V12.8326H22.2674V11.7839Z" fill="#FF7A00"/>
<path d="M22.2674 10.7352H21.2188V11.7839H22.2674V10.7352Z" fill="#FF7A00"/>
<path d="M22.2674 9.68658H21.2188V10.7353H22.2674V9.68658Z" fill="#231F20"/>
<path d="M22.2674 2.34796H21.2188V3.39664H22.2674V2.34796Z" fill="#231F20"/>
<path d="M22.2674 0.25061H21.2188V1.29929H22.2674V0.25061Z" fill="#231F20"/>
<path d="M21.2206 31.7045H20.1719V32.7521H21.2206V31.7045Z" fill="#231F20"/>
<path d="M21.2206 30.6558H20.1719V31.7045H21.2206V30.6558Z" fill="#FFAA00"/>
<path d="M21.2206 29.6072H20.1719V30.6559H21.2206V29.6072Z" fill="#FFAA00"/>
<path d="M21.2206 28.5585H20.1719V29.6072H21.2206V28.5585Z" fill="#FFAA00"/>
<path d="M21.2206 27.5109H20.1719V28.5585H21.2206V27.5109Z" fill="#FFAA00"/>
<path d="M21.2206 26.4622H20.1719V27.5109H21.2206V26.4622Z" fill="#FFAA00"/>
<path d="M21.2206 25.4135H20.1719V26.4622H21.2206V25.4135Z" fill="#FFD900"/>
<path d="M21.2206 24.3649H20.1719V25.4135H21.2206V24.3649Z" fill="#FFD900"/>
<path d="M21.2206 23.3162H20.1719V24.3648H21.2206V23.3162Z" fill="#FFD900"/>
<path d="M21.2206 22.2686H20.1719V23.3162H21.2206V22.2686Z" fill="#FFD900"/>
<path d="M21.2206 21.2199H20.1719V22.2686H21.2206V21.2199Z" fill="#FFD900"/>
<path d="M21.2206 20.1712H20.1719V21.2199H21.2206V20.1712Z" fill="#FFD900"/>
<path d="M21.2206 19.1226H20.1719V20.1712H21.2206V19.1226Z" fill="#FFD900"/>
<path d="M21.2206 18.075H20.1719V19.1226H21.2206V18.075Z" fill="#FFD900"/>
<path d="M21.2206 17.0262H20.1719V18.0749H21.2206V17.0262Z" fill="#FFAA00"/>
<path d="M21.2206 15.9775H20.1719V17.0262H21.2206V15.9775Z" fill="#FFAA00"/>
<path d="M21.2206 14.9289H20.1719V15.9776H21.2206V14.9289Z" fill="#FFAA00"/>
<path d="M21.2206 13.8802H20.1719V14.9289H21.2206V13.8802Z" fill="#FF7A00"/>
<path d="M21.2206 12.8326H20.1719V13.8802H21.2206V12.8326Z" fill="#FF7A00"/>
<path d="M21.2206 11.7839H20.1719V12.8326H21.2206V11.7839Z" fill="#FF7A00"/>
<path d="M21.2206 10.7352H20.1719V11.7839H21.2206V10.7352Z" fill="#FF7A00"/>
<path d="M21.2206 9.68658H20.1719V10.7353H21.2206V9.68658Z" fill="#231F20"/>
<path d="M21.2206 3.39667H20.1719V4.44427H21.2206V3.39667Z" fill="#231F20"/>
<path d="M21.2206 0.25061H20.1719V1.29929H21.2206V0.25061Z" fill="#231F20"/>
<path d="M20.1726 32.7521H19.125V33.8008H20.1726V32.7521Z" fill="#231F20"/>
<path d="M20.1726 31.7045H19.125V32.7521H20.1726V31.7045Z" fill="#FFAA00"/>
<path d="M20.1726 30.6558H19.125V31.7045H20.1726V30.6558Z" fill="#FFAA00"/>
<path d="M20.1726 29.6072H19.125V30.6559H20.1726V29.6072Z" fill="#FFAA00"/>
<path d="M20.1726 28.5585H19.125V29.6072H20.1726V28.5585Z" fill="#FFAA00"/>
<path d="M20.1726 27.5109H19.125V28.5585H20.1726V27.5109Z" fill="#FFAA00"/>
<path d="M20.1726 26.4622H19.125V27.5109H20.1726V26.4622Z" fill="#FFD900"/>
<path d="M20.1726 25.4135H19.125V26.4622H20.1726V25.4135Z" fill="#FFD900"/>
<path d="M20.1726 24.3649H19.125V25.4135H20.1726V24.3649Z" fill="#FFD900"/>
<path d="M20.1726 23.3162H19.125V24.3648H20.1726V23.3162Z" fill="#FFD900"/>
<path d="M20.1726 22.2686H19.125V23.3162H20.1726V22.2686Z" fill="#FFD900"/>
<path d="M20.1726 21.2199H19.125V22.2686H20.1726V21.2199Z" fill="#FFD900"/>
<path d="M20.1726 20.1712H19.125V21.2199H20.1726V20.1712Z" fill="#FFD900"/>
<path d="M20.1726 19.1226H19.125V20.1712H20.1726V19.1226Z" fill="#FFD900"/>
<path d="M20.1726 18.075H19.125V19.1226H20.1726V18.075Z" fill="#FFD900"/>
<path d="M20.1726 17.0262H19.125V18.0749H20.1726V17.0262Z" fill="#FFAA00"/>
<path d="M20.1726 15.9775H19.125V17.0262H20.1726V15.9775Z" fill="#FFAA00"/>
<path d="M20.1726 14.9289H19.125V15.9776H20.1726V14.9289Z" fill="#FFAA00"/>
<path d="M20.1726 13.8802H19.125V14.9289H20.1726V13.8802Z" fill="#FF7A00"/>
<path d="M20.1726 12.8326H19.125V13.8802H20.1726V12.8326Z" fill="#FF7A00"/>
<path d="M20.1726 11.7839H19.125V12.8326H20.1726V11.7839Z" fill="#FF7A00"/>
<path d="M20.1726 10.7352H19.125V11.7839H20.1726V10.7352Z" fill="#FF7A00"/>
<path d="M20.1726 9.68658H19.125V10.7353H20.1726V9.68658Z" fill="#231F20"/>
<path d="M20.1726 4.44427H19.125V5.49295H20.1726V4.44427Z" fill="#231F20"/>
<path d="M20.1726 1.29932H19.125V2.348H20.1726V1.29932Z" fill="#231F20"/>
<path d="M19.119 33.8008H18.0703V34.8495H19.119V33.8008Z" fill="#231F20"/>
<path d="M19.119 32.7521H18.0703V33.8008H19.119V32.7521Z" fill="#FFAA00"/>
<path d="M19.119 31.7045H18.0703V32.7521H19.119V31.7045Z" fill="#FFAA00"/>
<path d="M19.119 30.6558H18.0703V31.7045H19.119V30.6558Z" fill="#FFAA00"/>
<path d="M19.119 29.6072H18.0703V30.6559H19.119V29.6072Z" fill="#FFAA00"/>
<path d="M19.119 28.5585H18.0703V29.6072H19.119V28.5585Z" fill="#FFAA00"/>
<path d="M19.119 27.5109H18.0703V28.5585H19.119V27.5109Z" fill="#FFD900"/>
<path d="M19.119 26.4622H18.0703V27.5109H19.119V26.4622Z" fill="#FFD900"/>
<path d="M19.119 25.4135H18.0703V26.4622H19.119V25.4135Z" fill="#FFD900"/>
<path d="M19.119 24.3649H18.0703V25.4135H19.119V24.3649Z" fill="#FFD900"/>
<path d="M19.119 23.3162H18.0703V24.3648H19.119V23.3162Z" fill="#FFD900"/>
<path d="M19.119 22.2686H18.0703V23.3162H19.119V22.2686Z" fill="#FFD900"/>
<path d="M19.119 21.2199H18.0703V22.2686H19.119V21.2199Z" fill="#FFD900"/>
<path d="M19.119 20.1712H18.0703V21.2199H19.119V20.1712Z" fill="#FFD900"/>
<path d="M19.119 19.1226H18.0703V20.1712H19.119V19.1226Z" fill="#FFD900"/>
<path d="M19.119 18.075H18.0703V19.1226H19.119V18.075Z" fill="#FFD900"/>
<path d="M19.119 17.0262H18.0703V18.0749H19.119V17.0262Z" fill="#FFAA00"/>
<path d="M19.119 15.9775H18.0703V17.0262H19.119V15.9775Z" fill="#FFAA00"/>
<path d="M19.119 14.9289H18.0703V15.9776H19.119V14.9289Z" fill="#FFAA00"/>
<path d="M19.119 13.8802H18.0703V14.9289H19.119V13.8802Z" fill="#FF7A00"/>
<path d="M19.119 12.8326H18.0703V13.8802H19.119V12.8326Z" fill="#FF7A00"/>
<path d="M19.119 11.7839H18.0703V12.8326H19.119V11.7839Z" fill="#FF7A00"/>
<path d="M19.119 10.7352H18.0703V11.7839H19.119V10.7352Z" fill="#FF7A00"/>
<path d="M19.119 9.68658H18.0703V10.7353H19.119V9.68658Z" fill="#231F20"/>
<path d="M19.119 8.63898H18.0703V9.68658H19.119V8.63898Z" fill="#231F20"/>
<path d="M19.119 7.59027H18.0703V8.63895H19.119V7.59027Z" fill="#231F20"/>
<path d="M19.119 6.54163H18.0703V7.59031H19.119V6.54163Z" fill="#231F20"/>
<path d="M19.119 5.49292H18.0703V6.5416H19.119V5.49292Z" fill="#231F20"/>
<path d="M19.119 2.34796H18.0703V3.39664H19.119V2.34796Z" fill="#231F20"/>
<path d="M18.0721 33.8008H17.0234V34.8495H18.0721V33.8008Z" fill="#231F20"/>
<path d="M18.0721 32.7521H17.0234V33.8008H18.0721V32.7521Z" fill="#FFAA00"/>
<path d="M18.0721 31.7045H17.0234V32.7521H18.0721V31.7045Z" fill="#FFAA00"/>
<path d="M18.0721 30.6558H17.0234V31.7045H18.0721V30.6558Z" fill="#FFAA00"/>
<path d="M18.0721 29.6072H17.0234V30.6559H18.0721V29.6072Z" fill="#FFAA00"/>
<path d="M18.0721 28.5585H17.0234V29.6072H18.0721V28.5585Z" fill="#FFD900"/>
<path d="M18.0721 27.5109H17.0234V28.5585H18.0721V27.5109Z" fill="#FFD900"/>
<path d="M18.0721 26.4622H17.0234V27.5109H18.0721V26.4622Z" fill="#FFD900"/>
<path d="M18.0721 25.4135H17.0234V26.4622H18.0721V25.4135Z" fill="#FFD900"/>
<path d="M18.0721 24.3649H17.0234V25.4135H18.0721V24.3649Z" fill="#FFD900"/>
<path d="M18.0721 23.3162H17.0234V24.3648H18.0721V23.3162Z" fill="#FFD900"/>
<path d="M18.0721 22.2686H17.0234V23.3162H18.0721V22.2686Z" fill="#FFD900"/>
<path d="M18.0721 21.2199H17.0234V22.2686H18.0721V21.2199Z" fill="#FFD900"/>
<path d="M18.0721 20.1712H17.0234V21.2199H18.0721V20.1712Z" fill="#FFD900"/>
<path d="M18.0721 19.1226H17.0234V20.1712H18.0721V19.1226Z" fill="#FFD900"/>
<path d="M18.0721 18.075H17.0234V19.1226H18.0721V18.075Z" fill="#FFAA00"/>
<path d="M18.0721 17.0262H17.0234V18.0749H18.0721V17.0262Z" fill="#FFAA00"/>
<path d="M18.0721 15.9775H17.0234V17.0262H18.0721V15.9775Z" fill="#FFAA00"/>
<path d="M18.0721 14.9289H17.0234V15.9776H18.0721V14.9289Z" fill="#FF7A00"/>
<path d="M18.0721 13.8802H17.0234V14.9289H18.0721V13.8802Z" fill="#FF7A00"/>
<path d="M18.0721 12.8326H17.0234V13.8802H18.0721V12.8326Z" fill="#FF7A00"/>
<path d="M18.0721 11.7839H17.0234V12.8326H18.0721V11.7839Z" fill="#FF7A00"/>
<path d="M18.0721 10.7352H17.0234V11.7839H18.0721V10.7352Z" fill="#FF7A00"/>
<path d="M18.0721 9.68658H17.0234V10.7353H18.0721V9.68658Z" fill="#231F20"/>
<path d="M18.0721 3.39667H17.0234V4.44427H18.0721V3.39667Z" fill="#231F20"/>
<path d="M17.0252 33.8008H15.9766V34.8495H17.0252V33.8008Z" fill="#231F20"/>
<path d="M17.0252 32.7521H15.9766V33.8008H17.0252V32.7521Z" fill="#FFAA00"/>
<path d="M17.0252 31.7045H15.9766V32.7521H17.0252V31.7045Z" fill="#FFAA00"/>
<path d="M17.0252 30.6558H15.9766V31.7045H17.0252V30.6558Z" fill="#FFAA00"/>
<path d="M17.0252 29.6072H15.9766V30.6559H17.0252V29.6072Z" fill="#FFD900"/>
<path d="M17.0252 28.5585H15.9766V29.6072H17.0252V28.5585Z" fill="#FFD900"/>
<path d="M17.0252 27.5109H15.9766V28.5585H17.0252V27.5109Z" fill="#FFD900"/>
<path d="M17.0252 26.4622H15.9766V27.5109H17.0252V26.4622Z" fill="#FFD900"/>
<path d="M17.0252 25.4135H15.9766V26.4622H17.0252V25.4135Z" fill="#FFD900"/>
<path d="M17.0252 24.3649H15.9766V25.4135H17.0252V24.3649Z" fill="#FFD900"/>
<path d="M17.0252 23.3162H15.9766V24.3648H17.0252V23.3162Z" fill="#FFD900"/>
<path d="M17.0252 22.2686H15.9766V23.3162H17.0252V22.2686Z" fill="#FFD900"/>
<path d="M17.0252 21.2199H15.9766V22.2686H17.0252V21.2199Z" fill="#FFD900"/>
<path d="M17.0252 20.1712H15.9766V21.2199H17.0252V20.1712Z" fill="#FFD900"/>
<path d="M17.0252 19.1226H15.9766V20.1712H17.0252V19.1226Z" fill="#FFD900"/>
<path d="M17.0252 18.075H15.9766V19.1226H17.0252V18.075Z" fill="#FFAA00"/>
<path d="M17.0252 17.0262H15.9766V18.0749H17.0252V17.0262Z" fill="#FFAA00"/>
<path d="M17.0252 15.9775H15.9766V17.0262H17.0252V15.9775Z" fill="#FFAA00"/>
<path d="M17.0252 14.9289H15.9766V15.9776H17.0252V14.9289Z" fill="#FF7A00"/>
<path d="M17.0252 13.8802H15.9766V14.9289H17.0252V13.8802Z" fill="#FF7A00"/>
<path d="M17.0252 12.8326H15.9766V13.8802H17.0252V12.8326Z" fill="#FF7A00"/>
<path d="M17.0252 11.7839H15.9766V12.8326H17.0252V11.7839Z" fill="#FF7A00"/>
<path d="M17.0252 10.7352H15.9766V11.7839H17.0252V10.7352Z" fill="#FF7A00"/>
<path d="M17.0252 9.68658H15.9766V10.7353H17.0252V9.68658Z" fill="#231F20"/>
<path d="M17.0252 8.63898H15.9766V9.68658H17.0252V8.63898Z" fill="#231F20"/>
<path d="M17.0252 7.59027H15.9766V8.63895H17.0252V7.59027Z" fill="#231F20"/>
<path d="M17.0252 6.54163H15.9766V7.59031H17.0252V6.54163Z" fill="#231F20"/>
<path d="M17.0252 5.49292H15.9766V6.5416H17.0252V5.49292Z" fill="#231F20"/>
<path d="M17.0252 4.44427H15.9766V5.49295H17.0252V4.44427Z" fill="#231F20"/>
<path d="M15.9773 34.8495H14.9297V35.8982H15.9773V34.8495Z" fill="#231F20"/>
<path d="M15.9773 33.8008H14.9297V34.8495H15.9773V33.8008Z" fill="#FFAA00"/>
<path d="M15.9773 32.7521H14.9297V33.8008H15.9773V32.7521Z" fill="#FFAA00"/>
<path d="M15.9773 31.7045H14.9297V32.7521H15.9773V31.7045Z" fill="#FFAA00"/>
<path d="M15.9773 30.6558H14.9297V31.7045H15.9773V30.6558Z" fill="#FFD900"/>
<path d="M15.9773 29.6072H14.9297V30.6559H15.9773V29.6072Z" fill="#FFD900"/>
<path d="M15.9773 28.5585H14.9297V29.6072H15.9773V28.5585Z" fill="#FFD900"/>
<path d="M15.9773 27.5109H14.9297V28.5585H15.9773V27.5109Z" fill="#FFD900"/>
<path d="M15.9773 26.4622H14.9297V27.5109H15.9773V26.4622Z" fill="#FFD900"/>
<path d="M15.9773 25.4135H14.9297V26.4622H15.9773V25.4135Z" fill="#FFD900"/>
<path d="M15.9773 24.3649H14.9297V25.4135H15.9773V24.3649Z" fill="#FFD900"/>
<path d="M15.9773 23.3162H14.9297V24.3648H15.9773V23.3162Z" fill="#FFD900"/>
<path d="M15.9773 22.2686H14.9297V23.3162H15.9773V22.2686Z" fill="#FFD900"/>
<path d="M15.9773 21.2199H14.9297V22.2686H15.9773V21.2199Z" fill="#FFD900"/>
<path d="M15.9773 20.1712H14.9297V21.2199H15.9773V20.1712Z" fill="#FFD900"/>
<path d="M15.9773 19.1226H14.9297V20.1712H15.9773V19.1226Z" fill="#FFAA00"/>
<path d="M15.9773 18.075H14.9297V19.1226H15.9773V18.075Z" fill="#FFAA00"/>
<path d="M15.9773 17.0262H14.9297V18.0749H15.9773V17.0262Z" fill="#FFAA00"/>
<path d="M15.9773 15.9775H14.9297V17.0262H15.9773V15.9775Z" fill="#FFAA00"/>
<path d="M15.9773 14.9289H14.9297V15.9776H15.9773V14.9289Z" fill="#FF7A00"/>
<path d="M15.9773 13.8802H14.9297V14.9289H15.9773V13.8802Z" fill="#FF7A00"/>
<path d="M15.9773 12.8326H14.9297V13.8802H15.9773V12.8326Z" fill="#FF7A00"/>
<path d="M15.9773 11.7839H14.9297V12.8326H15.9773V11.7839Z" fill="#FF7A00"/>
<path d="M15.9773 10.7352H14.9297V11.7839H15.9773V10.7352Z" fill="#FF7A00"/>
<path d="M15.9773 9.68658H14.9297V10.7353H15.9773V9.68658Z" fill="#FF7A00"/>
<path d="M15.9773 8.63898H14.9297V9.68658H15.9773V8.63898Z" fill="#231F20"/>
<path d="M14.9315 34.8495H13.8828V35.8982H14.9315V34.8495Z" fill="#231F20"/>
<path d="M14.9315 33.8008H13.8828V34.8495H14.9315V33.8008Z" fill="#FFAA00"/>
<path d="M14.9315 32.7521H13.8828V33.8008H14.9315V32.7521Z" fill="#FFAA00"/>
<path d="M14.9315 31.7045H13.8828V32.7521H14.9315V31.7045Z" fill="#FFAA00"/>
<path d="M14.9315 30.6558H13.8828V31.7045H14.9315V30.6558Z" fill="#FFD900"/>
<path d="M14.9315 29.6072H13.8828V30.6559H14.9315V29.6072Z" fill="#FFD900"/>
<path d="M14.9315 28.5585H13.8828V29.6072H14.9315V28.5585Z" fill="#FFD900"/>
<path d="M14.9315 27.5109H13.8828V28.5585H14.9315V27.5109Z" fill="#FFD900"/>
<path d="M14.9315 26.4622H13.8828V27.5109H14.9315V26.4622Z" fill="#FFD900"/>
<path d="M14.9315 25.4135H13.8828V26.4622H14.9315V25.4135Z" fill="#FFD900"/>
<path d="M14.9315 24.3649H13.8828V25.4135H14.9315V24.3649Z" fill="#FFD900"/>
<path d="M14.9315 23.3162H13.8828V24.3648H14.9315V23.3162Z" fill="#FFD900"/>
<path d="M14.9315 22.2686H13.8828V23.3162H14.9315V22.2686Z" fill="#FFD900"/>
<path d="M14.9315 21.2199H13.8828V22.2686H14.9315V21.2199Z" fill="#FFD900"/>
<path d="M14.9315 20.1712H13.8828V21.2199H14.9315V20.1712Z" fill="#FFD900"/>
<path d="M14.9315 19.1226H13.8828V20.1712H14.9315V19.1226Z" fill="#FFAA00"/>
<path d="M14.9315 18.075H13.8828V19.1226H14.9315V18.075Z" fill="#FFAA00"/>
<path d="M14.9315 17.0262H13.8828V18.0749H14.9315V17.0262Z" fill="#FFAA00"/>
<path d="M14.9315 15.9775H13.8828V17.0262H14.9315V15.9775Z" fill="#FFAA00"/>
<path d="M14.9315 14.9289H13.8828V15.9776H14.9315V14.9289Z" fill="#FFAA00"/>
<path d="M14.9315 13.8802H13.8828V14.9289H14.9315V13.8802Z" fill="#FF7A00"/>
<path d="M14.9315 12.8326H13.8828V13.8802H14.9315V12.8326Z" fill="#FF7A00"/>
<path d="M14.9315 11.7839H13.8828V12.8326H14.9315V11.7839Z" fill="#FF7A00"/>
<path d="M14.9315 10.7352H13.8828V11.7839H14.9315V10.7352Z" fill="#FF7A00"/>
<path d="M14.9315 9.68658H13.8828V10.7353H14.9315V9.68658Z" fill="#FF7A00"/>
<path d="M14.9315 8.63898H13.8828V9.68658H14.9315V8.63898Z" fill="#231F20"/>
<path d="M13.8768 34.8495H12.8281V35.8982H13.8768V34.8495Z" fill="#231F20"/>
<path d="M13.8768 33.8008H12.8281V34.8495H13.8768V33.8008Z" fill="#FFAA00"/>
<path d="M13.8768 32.7521H12.8281V33.8008H13.8768V32.7521Z" fill="#FFAA00"/>
<path d="M13.8768 31.7045H12.8281V32.7521H13.8768V31.7045Z" fill="#FFD900"/>
<path d="M13.8768 30.6558H12.8281V31.7045H13.8768V30.6558Z" fill="#FFD900"/>
<path d="M13.8768 29.6072H12.8281V30.6559H13.8768V29.6072Z" fill="#FFD900"/>
<path d="M13.8768 28.5585H12.8281V29.6072H13.8768V28.5585Z" fill="#FFD900"/>
<path d="M13.8768 27.5109H12.8281V28.5585H13.8768V27.5109Z" fill="#FFD900"/>
<path d="M13.8768 26.4622H12.8281V27.5109H13.8768V26.4622Z" fill="#FFD900"/>
<path d="M13.8768 25.4135H12.8281V26.4622H13.8768V25.4135Z" fill="#FFD900"/>
<path d="M13.8768 24.3649H12.8281V25.4135H13.8768V24.3649Z" fill="#FFD900"/>
<path d="M13.8768 23.3162H12.8281V24.3648H13.8768V23.3162Z" fill="#FFD900"/>
<path d="M13.8768 22.2686H12.8281V23.3162H13.8768V22.2686Z" fill="#FFD900"/>
<path d="M13.8768 21.2199H12.8281V22.2686H13.8768V21.2199Z" fill="#FFD900"/>
<path d="M13.8768 20.1712H12.8281V21.2199H13.8768V20.1712Z" fill="#FFD900"/>
<path d="M13.8768 19.1226H12.8281V20.1712H13.8768V19.1226Z" fill="#FFAA00"/>
<path d="M13.8768 18.075H12.8281V19.1226H13.8768V18.075Z" fill="#FFAA00"/>
<path d="M13.8768 17.0262H12.8281V18.0749H13.8768V17.0262Z" fill="#FFAA00"/>
<path d="M13.8768 15.9775H12.8281V17.0262H13.8768V15.9775Z" fill="#FFAA00"/>
<path d="M13.8768 14.9289H12.8281V15.9776H13.8768V14.9289Z" fill="#FFAA00"/>
<path d="M13.8768 13.8802H12.8281V14.9289H13.8768V13.8802Z" fill="#FFAA00"/>
<path d="M13.8768 12.8326H12.8281V13.8802H13.8768V12.8326Z" fill="#FF7A00"/>
<path d="M13.8768 11.7839H12.8281V12.8326H13.8768V11.7839Z" fill="#FF7A00"/>
<path d="M13.8768 10.7352H12.8281V11.7839H13.8768V10.7352Z" fill="#FF7A00"/>
<path d="M13.8768 9.68658H12.8281V10.7353H13.8768V9.68658Z" fill="#FF7A00"/>
<path d="M13.8768 8.63898H12.8281V9.68658H13.8768V8.63898Z" fill="#231F20"/>
<path d="M12.8299 35.8982H11.7812V36.9469H12.8299V35.8982Z" fill="#231F20"/>
<path d="M12.8299 34.8495H11.7812V35.8982H12.8299V34.8495Z" fill="#FFAA00"/>
<path d="M12.8299 33.8008H11.7812V34.8495H12.8299V33.8008Z" fill="#FFAA00"/>
<path d="M12.8299 32.7521H11.7812V33.8008H12.8299V32.7521Z" fill="#FFAA00"/>
<path d="M12.8299 31.7045H11.7812V32.7521H12.8299V31.7045Z" fill="#FFD900"/>
<path d="M12.8299 30.6558H11.7812V31.7045H12.8299V30.6558Z" fill="#FFD900"/>
<path d="M12.8299 29.6072H11.7812V30.6559H12.8299V29.6072Z" fill="#FFD900"/>
<path d="M12.8299 28.5585H11.7812V29.6072H12.8299V28.5585Z" fill="#FFD900"/>
<path d="M12.8299 27.5109H11.7812V28.5585H12.8299V27.5109Z" fill="#FFD900"/>
<path d="M12.8299 26.4622H11.7812V27.5109H12.8299V26.4622Z" fill="#FFD900"/>
<path d="M12.8299 25.4135H11.7812V26.4622H12.8299V25.4135Z" fill="#FFD900"/>
<path d="M12.8299 24.3649H11.7812V25.4135H12.8299V24.3649Z" fill="#FFD900"/>
<path d="M12.8299 23.3162H11.7812V24.3648H12.8299V23.3162Z" fill="#FFD900"/>
<path d="M12.8299 22.2686H11.7812V23.3162H12.8299V22.2686Z" fill="#FFD900"/>
<path d="M12.8299 21.2199H11.7812V22.2686H12.8299V21.2199Z" fill="#FFD900"/>
<path d="M12.8299 20.1712H11.7812V21.2199H12.8299V20.1712Z" fill="#FFD900"/>
<path d="M12.8299 19.1226H11.7812V20.1712H12.8299V19.1226Z" fill="#FFAA00"/>
<path d="M12.8299 18.075H11.7812V19.1226H12.8299V18.075Z" fill="#FFAA00"/>
<path d="M12.8299 17.0262H11.7812V18.0749H12.8299V17.0262Z" fill="#FFAA00"/>
<path d="M12.8299 15.9775H11.7812V17.0262H12.8299V15.9775Z" fill="#FFAA00"/>
<path d="M12.8299 14.9289H11.7812V15.9776H12.8299V14.9289Z" fill="#FFAA00"/>
<path d="M12.8299 13.8802H11.7812V14.9289H12.8299V13.8802Z" fill="#FFAA00"/>
<path d="M12.8299 12.8326H11.7812V13.8802H12.8299V12.8326Z" fill="#FFAA00"/>
<path d="M12.8299 11.7839H11.7812V12.8326H12.8299V11.7839Z" fill="#FFAA00"/>
<path d="M12.8299 10.7352H11.7812V11.7839H12.8299V10.7352Z" fill="#FF7A00"/>
<path d="M12.8299 9.68658H11.7812V10.7353H12.8299V9.68658Z" fill="#FF7A00"/>
<path d="M12.8299 8.63898H11.7812V9.68658H12.8299V8.63898Z" fill="#231F20"/>
<path d="M11.7831 35.8982H10.7344V36.9469H11.7831V35.8982Z" fill="#231F20"/>
<path d="M11.7831 34.8495H10.7344V35.8982H11.7831V34.8495Z" fill="#FFAA00"/>
<path d="M11.7831 33.8008H10.7344V34.8495H11.7831V33.8008Z" fill="#FFAA00"/>
<path d="M11.7831 32.7521H10.7344V33.8008H11.7831V32.7521Z" fill="#FFAA00"/>
<path d="M11.7831 31.7045H10.7344V32.7521H11.7831V31.7045Z" fill="#FFD900"/>
<path d="M11.7831 30.6558H10.7344V31.7045H11.7831V30.6558Z" fill="#FFD900"/>
<path d="M11.7831 29.6072H10.7344V30.6559H11.7831V29.6072Z" fill="#FFD900"/>
<path d="M11.7831 28.5585H10.7344V29.6072H11.7831V28.5585Z" fill="#FFD900"/>
<path d="M11.7831 27.5109H10.7344V28.5585H11.7831V27.5109Z" fill="#FFD900"/>
<path d="M11.7831 26.4622H10.7344V27.5109H11.7831V26.4622Z" fill="#FFD900"/>
<path d="M11.7831 25.4135H10.7344V26.4622H11.7831V25.4135Z" fill="#FFD900"/>
<path d="M11.7831 24.3649H10.7344V25.4135H11.7831V24.3649Z" fill="#FFD900"/>
<path d="M11.7831 23.3162H10.7344V24.3648H11.7831V23.3162Z" fill="#FFD900"/>
<path d="M11.7831 22.2686H10.7344V23.3162H11.7831V22.2686Z" fill="#FFD900"/>
<path d="M11.7831 21.2199H10.7344V22.2686H11.7831V21.2199Z" fill="#FFD900"/>
<path d="M11.7831 20.1712H10.7344V21.2199H11.7831V20.1712Z" fill="#FFD900"/>
<path d="M11.7831 19.1226H10.7344V20.1712H11.7831V19.1226Z" fill="#FFD900"/>
<path d="M11.7831 18.075H10.7344V19.1226H11.7831V18.075Z" fill="#FFAA00"/>
<path d="M11.7831 17.0262H10.7344V18.0749H11.7831V17.0262Z" fill="#FFAA00"/>
<path d="M11.7831 15.9775H10.7344V17.0262H11.7831V15.9775Z" fill="#FFAA00"/>
<path d="M11.7831 14.9289H10.7344V15.9776H11.7831V14.9289Z" fill="#FFAA00"/>
<path d="M11.7831 13.8802H10.7344V14.9289H11.7831V13.8802Z" fill="#FFAA00"/>
<path d="M11.7831 12.8326H10.7344V13.8802H11.7831V12.8326Z" fill="#FFAA00"/>
<path d="M11.7831 11.7839H10.7344V12.8326H11.7831V11.7839Z" fill="#FFAA00"/>
<path d="M11.7831 10.7352H10.7344V11.7839H11.7831V10.7352Z" fill="#FF7A00"/>
<path d="M11.7831 9.68658H10.7344V10.7353H11.7831V9.68658Z" fill="#FF7A00"/>
<path d="M11.7831 8.63898H10.7344V9.68658H11.7831V8.63898Z" fill="#231F20"/>
<path d="M10.7351 35.8982H9.6875V36.9469H10.7351V35.8982Z" fill="#231F20"/>
<path d="M10.7351 34.8495H9.6875V35.8982H10.7351V34.8495Z" fill="#FFAA00"/>
<path d="M10.7351 33.8008H9.6875V34.8495H10.7351V33.8008Z" fill="#FFAA00"/>
<path d="M10.7351 32.7521H9.6875V33.8008H10.7351V32.7521Z" fill="#FFD900"/>
<path d="M10.7351 31.7045H9.6875V32.7521H10.7351V31.7045Z" fill="#FFD900"/>
<path d="M10.7351 30.6558H9.6875V31.7045H10.7351V30.6558Z" fill="#FFD900"/>
<path d="M10.7351 29.6072H9.6875V30.6559H10.7351V29.6072Z" fill="#FFD900"/>
<path d="M10.7351 28.5585H9.6875V29.6072H10.7351V28.5585Z" fill="#FFD900"/>
<path d="M10.7351 27.5109H9.6875V28.5585H10.7351V27.5109Z" fill="#FFD900"/>
<path d="M10.7351 26.4622H9.6875V27.5109H10.7351V26.4622Z" fill="#FFD900"/>
<path d="M10.7351 25.4135H9.6875V26.4622H10.7351V25.4135Z" fill="#FFD900"/>
<path d="M10.7351 24.3649H9.6875V25.4135H10.7351V24.3649Z" fill="#FFD900"/>
<path d="M10.7351 23.3162H9.6875V24.3648H10.7351V23.3162Z" fill="#FFD900"/>
<path d="M10.7351 22.2686H9.6875V23.3162H10.7351V22.2686Z" fill="#FFD900"/>
<path d="M10.7351 21.2199H9.6875V22.2686H10.7351V21.2199Z" fill="#FFD900"/>
<path d="M10.7351 20.1712H9.6875V21.2199H10.7351V20.1712Z" fill="#FFD900"/>
<path d="M10.7351 19.1226H9.6875V20.1712H10.7351V19.1226Z" fill="#FFD900"/>
<path d="M10.7351 18.075H9.6875V19.1226H10.7351V18.075Z" fill="#FFD900"/>
<path d="M10.7351 17.0262H9.6875V18.0749H10.7351V17.0262Z" fill="#FFAA00"/>
<path d="M10.7351 15.9775H9.6875V17.0262H10.7351V15.9775Z" fill="#FFAA00"/>
<path d="M10.7351 14.9289H9.6875V15.9776H10.7351V14.9289Z" fill="#FFAA00"/>
<path d="M10.7351 13.8802H9.6875V14.9289H10.7351V13.8802Z" fill="#FFD900"/>
<path d="M10.7351 12.8326H9.6875V13.8802H10.7351V12.8326Z" fill="#FFD900"/>
<path d="M10.7351 11.7839H9.6875V12.8326H10.7351V11.7839Z" fill="#FFAA00"/>
<path d="M10.7351 10.7352H9.6875V11.7839H10.7351V10.7352Z" fill="#FF7A00"/>
<path d="M10.7351 9.68658H9.6875V10.7353H10.7351V9.68658Z" fill="#FF7A00"/>
<path d="M10.7351 8.63898H9.6875V9.68658H10.7351V8.63898Z" fill="#231F20"/>
<path d="M9.6893 35.8982H8.64062V36.9469H9.6893V35.8982Z" fill="#231F20"/>
<path d="M9.6893 34.8495H8.64062V35.8982H9.6893V34.8495Z" fill="#FFAA00"/>
<path d="M9.6893 33.8008H8.64062V34.8495H9.6893V33.8008Z" fill="#FFAA00"/>
<path d="M9.6893 32.7521H8.64062V33.8008H9.6893V32.7521Z" fill="#FFD900"/>
<path d="M9.6893 31.7045H8.64062V32.7521H9.6893V31.7045Z" fill="#FFD900"/>
<path d="M9.6893 30.6558H8.64062V31.7045H9.6893V30.6558Z" fill="#FFD900"/>
<path d="M9.6893 29.6072H8.64062V30.6559H9.6893V29.6072Z" fill="#FFD900"/>
<path d="M9.6893 28.5585H8.64062V29.6072H9.6893V28.5585Z" fill="#FFD900"/>
<path d="M9.6893 27.5109H8.64062V28.5585H9.6893V27.5109Z" fill="#FFD900"/>
<path d="M9.6893 26.4622H8.64062V27.5109H9.6893V26.4622Z" fill="#FFD900"/>
<path d="M9.6893 25.4135H8.64062V26.4622H9.6893V25.4135Z" fill="#FFD900"/>
<path d="M9.6893 24.3649H8.64062V25.4135H9.6893V24.3649Z" fill="#FFD900"/>
<path d="M9.6893 23.3162H8.64062V24.3648H9.6893V23.3162Z" fill="#FFD900"/>
<path d="M9.6893 22.2686H8.64062V23.3162H9.6893V22.2686Z" fill="#FFD900"/>
<path d="M9.6893 21.2199H8.64062V22.2686H9.6893V21.2199Z" fill="#FFD900"/>
<path d="M9.6893 20.1712H8.64062V21.2199H9.6893V20.1712Z" fill="#FFD900"/>
<path d="M9.6893 19.1226H8.64062V20.1712H9.6893V19.1226Z" fill="#FFD900"/>
<path d="M9.6893 18.075H8.64062V19.1226H9.6893V18.075Z" fill="#FFD900"/>
<path d="M9.6893 17.0262H8.64062V18.0749H9.6893V17.0262Z" fill="#FFD900"/>
<path d="M9.6893 15.9775H8.64062V17.0262H9.6893V15.9775Z" fill="#FFD900"/>
<path d="M9.6893 14.9289H8.64062V15.9776H9.6893V14.9289Z" fill="#FFD900"/>
<path d="M9.6893 13.8802H8.64062V14.9289H9.6893V13.8802Z" fill="#FFD900"/>
<path d="M9.6893 12.8326H8.64062V13.8802H9.6893V12.8326Z" fill="#FFD900"/>
<path d="M9.6893 11.7839H8.64062V12.8326H9.6893V11.7839Z" fill="#FFAA00"/>
<path d="M9.6893 10.7352H8.64062V11.7839H9.6893V10.7352Z" fill="#FFAA00"/>
<path d="M9.6893 9.68658H8.64062V10.7353H9.6893V9.68658Z" fill="#231F20"/>
<path d="M8.63462 35.8982H7.58594V36.9469H8.63462V35.8982Z" fill="#231F20"/>
<path d="M8.63462 34.8495H7.58594V35.8982H8.63462V34.8495Z" fill="#FFAA00"/>
<path d="M8.63462 33.8008H7.58594V34.8495H8.63462V33.8008Z" fill="#FFAA00"/>
<path d="M8.63462 32.7521H7.58594V33.8008H8.63462V32.7521Z" fill="#FFD900"/>
<path d="M8.63462 31.7045H7.58594V32.7521H8.63462V31.7045Z" fill="#FFD900"/>
<path d="M8.63462 30.6558H7.58594V31.7045H8.63462V30.6558Z" fill="#FFD900"/>
<path d="M8.63462 29.6072H7.58594V30.6559H8.63462V29.6072Z" fill="#FFD900"/>
<path d="M8.63462 28.5585H7.58594V29.6072H8.63462V28.5585Z" fill="#FFD900"/>
<path d="M8.63462 27.5109H7.58594V28.5585H8.63462V27.5109Z" fill="#FFD900"/>
<path d="M8.63462 26.4622H7.58594V27.5109H8.63462V26.4622Z" fill="#FFD900"/>
<path d="M8.63462 25.4135H7.58594V26.4622H8.63462V25.4135Z" fill="#FFD900"/>
<path d="M8.63462 24.3649H7.58594V25.4135H8.63462V24.3649Z" fill="#FFD900"/>
<path d="M8.63462 23.3162H7.58594V24.3648H8.63462V23.3162Z" fill="#FFD900"/>
<path d="M8.63462 22.2686H7.58594V23.3162H8.63462V22.2686Z" fill="#FFD900"/>
<path d="M8.63462 21.2199H7.58594V22.2686H8.63462V21.2199Z" fill="#FFD900"/>
<path d="M8.63462 20.1712H7.58594V21.2199H8.63462V20.1712Z" fill="#FFD900"/>
<path d="M8.63462 19.1226H7.58594V20.1712H8.63462V19.1226Z" fill="#FFD900"/>
<path d="M8.63462 18.075H7.58594V19.1226H8.63462V18.075Z" fill="#FFD900"/>
<path d="M8.63462 17.0262H7.58594V18.0749H8.63462V17.0262Z" fill="#FFD900"/>
<path d="M8.63462 15.9775H7.58594V17.0262H8.63462V15.9775Z" fill="#FFD900"/>
<path d="M8.63462 14.9289H7.58594V15.9776H8.63462V14.9289Z" fill="#FFD900"/>
<path d="M8.63462 13.8802H7.58594V14.9289H8.63462V13.8802Z" fill="#FFD900"/>
<path d="M8.63462 12.8326H7.58594V13.8802H8.63462V12.8326Z" fill="#FFD900"/>
<path d="M8.63462 11.7839H7.58594V12.8326H8.63462V11.7839Z" fill="#231F20"/>
<path d="M8.63462 10.7352H7.58594V11.7839H8.63462V10.7352Z" fill="#231F20"/>
<path d="M7.58774 35.8982H6.53906V36.9469H7.58774V35.8982Z" fill="#231F20"/>
<path d="M7.58774 34.8495H6.53906V35.8982H7.58774V34.8495Z" fill="#FFAA00"/>
<path d="M7.58774 33.8008H6.53906V34.8495H7.58774V33.8008Z" fill="#FFAA00"/>
<path d="M7.58774 32.7521H6.53906V33.8008H7.58774V32.7521Z" fill="#FFD900"/>
<path d="M7.58774 31.7045H6.53906V32.7521H7.58774V31.7045Z" fill="#FFD900"/>
<path d="M7.58774 30.6558H6.53906V31.7045H7.58774V30.6558Z" fill="#FFD900"/>
<path d="M7.58774 29.6072H6.53906V30.6559H7.58774V29.6072Z" fill="#FFD900"/>
<path d="M7.58774 28.5585H6.53906V29.6072H7.58774V28.5585Z" fill="#FFD900"/>
<path d="M7.58774 27.5109H6.53906V28.5585H7.58774V27.5109Z" fill="#FFD900"/>
<path d="M7.58774 26.4622H6.53906V27.5109H7.58774V26.4622Z" fill="#FFD900"/>
<path d="M7.58774 25.4135H6.53906V26.4622H7.58774V25.4135Z" fill="#FFD900"/>
<path d="M7.58774 24.3649H6.53906V25.4135H7.58774V24.3649Z" fill="#FFD900"/>
<path d="M7.58774 23.3162H6.53906V24.3648H7.58774V23.3162Z" fill="#FFD900"/>
<path d="M7.58774 22.2686H6.53906V23.3162H7.58774V22.2686Z" fill="#FFD900"/>
<path d="M7.58774 21.2199H6.53906V22.2686H7.58774V21.2199Z" fill="#FFD900"/>
<path d="M7.58774 20.1712H6.53906V21.2199H7.58774V20.1712Z" fill="#FFD900"/>
<path d="M7.58774 19.1226H6.53906V20.1712H7.58774V19.1226Z" fill="#FFD900"/>
<path d="M7.58774 18.075H6.53906V19.1226H7.58774V18.075Z" fill="#FFD900"/>
<path d="M7.58774 17.0262H6.53906V18.0749H7.58774V17.0262Z" fill="#FFD900"/>
<path d="M7.58774 15.9775H6.53906V17.0262H7.58774V15.9775Z" fill="#FFD900"/>
<path d="M7.58774 14.9289H6.53906V15.9776H7.58774V14.9289Z" fill="#231F20"/>
<path d="M7.58774 13.8802H6.53906V14.9289H7.58774V13.8802Z" fill="#231F20"/>
<path d="M7.58774 12.8326H6.53906V13.8802H7.58774V12.8326Z" fill="#231F20"/>
<path d="M6.53979 35.8982H5.49219V36.9469H6.53979V35.8982Z" fill="#231F20"/>
<path d="M6.53979 34.8495H5.49219V35.8982H6.53979V34.8495Z" fill="#FFAA00"/>
<path d="M6.53979 33.8008H5.49219V34.8495H6.53979V33.8008Z" fill="#FFAA00"/>
<path d="M6.53979 32.7521H5.49219V33.8008H6.53979V32.7521Z" fill="#FFD900"/>
<path d="M6.53979 31.7045H5.49219V32.7521H6.53979V31.7045Z" fill="#FFD900"/>
<path d="M6.53979 30.6558H5.49219V31.7045H6.53979V30.6558Z" fill="#FFD900"/>
<path d="M6.53979 29.6072H5.49219V30.6559H6.53979V29.6072Z" fill="#FFD900"/>
<path d="M6.53979 28.5585H5.49219V29.6072H6.53979V28.5585Z" fill="#FFD900"/>
<path d="M6.53979 27.5109H5.49219V28.5585H6.53979V27.5109Z" fill="#FFD900"/>
<path d="M6.53979 26.4622H5.49219V27.5109H6.53979V26.4622Z" fill="#FFD900"/>
<path d="M6.53979 25.4135H5.49219V26.4622H6.53979V25.4135Z" fill="#FFD900"/>
<path d="M6.53979 24.3649H5.49219V25.4135H6.53979V24.3649Z" fill="#FFD900"/>
<path d="M6.53979 23.3162H5.49219V24.3648H6.53979V23.3162Z" fill="#FFD900"/>
<path d="M6.53979 22.2686H5.49219V23.3162H6.53979V22.2686Z" fill="#FFD900"/>
<path d="M6.53979 21.2199H5.49219V22.2686H6.53979V21.2199Z" fill="#231F20"/>
<path d="M6.53979 20.1712H5.49219V21.2199H6.53979V20.1712Z" fill="#231F20"/>
<path d="M6.53979 19.1226H5.49219V20.1712H6.53979V19.1226Z" fill="#231F20"/>
<path d="M6.53979 18.075H5.49219V19.1226H6.53979V18.075Z" fill="#231F20"/>
<path d="M6.53979 17.0262H5.49219V18.0749H6.53979V17.0262Z" fill="#231F20"/>
<path d="M6.53979 15.9775H5.49219V17.0262H6.53979V15.9775Z" fill="#231F20"/>
<path d="M5.49399 35.8982H4.44531V36.9469H5.49399V35.8982Z" fill="#231F20"/>
<path d="M5.49399 34.8495H4.44531V35.8982H5.49399V34.8495Z" fill="#FFAA00"/>
<path d="M5.49399 33.8008H4.44531V34.8495H5.49399V33.8008Z" fill="#FFAA00"/>
<path d="M5.49399 32.7521H4.44531V33.8008H5.49399V32.7521Z" fill="#FFD900"/>
<path d="M5.49399 31.7045H4.44531V32.7521H5.49399V31.7045Z" fill="#FFD900"/>
<path d="M5.49399 30.6558H4.44531V31.7045H5.49399V30.6558Z" fill="#FFD900"/>
<path d="M5.49399 29.6072H4.44531V30.6559H5.49399V29.6072Z" fill="#FFD900"/>
<path d="M5.49399 28.5585H4.44531V29.6072H5.49399V28.5585Z" fill="#FFD900"/>
<path d="M5.49399 27.5109H4.44531V28.5585H5.49399V27.5109Z" fill="#FFD900"/>
<path d="M5.49399 26.4622H4.44531V27.5109H5.49399V26.4622Z" fill="#FFD900"/>
<path d="M5.49399 25.4135H4.44531V26.4622H5.49399V25.4135Z" fill="#FFD900"/>
<path d="M5.49399 24.3649H4.44531V25.4135H5.49399V24.3649Z" fill="#FFD900"/>
<path d="M5.49399 23.3162H4.44531V24.3648H5.49399V23.3162Z" fill="#231F20"/>
<path d="M5.49399 22.2686H4.44531V23.3162H5.49399V22.2686Z" fill="#231F20"/>
<path d="M5.49399 21.2199H4.44531V22.2686H5.49399V21.2199Z" fill="#231F20"/>
<path d="M5.49399 20.1712H4.44531V21.2199H5.49399V20.1712Z" fill="#231F20"/>
<path d="M4.44712 35.8982H3.39844V36.9469H4.44712V35.8982Z" fill="#231F20"/>
<path d="M4.44712 34.8495H3.39844V35.8982H4.44712V34.8495Z" fill="#FFAA00"/>
<path d="M4.44712 33.8008H3.39844V34.8495H4.44712V33.8008Z" fill="#FFAA00"/>
<path d="M4.44712 32.7521H3.39844V33.8008H4.44712V32.7521Z" fill="#FFD900"/>
<path d="M4.44712 31.7045H3.39844V32.7521H4.44712V31.7045Z" fill="#FFD900"/>
<path d="M4.44712 30.6558H3.39844V31.7045H4.44712V30.6558Z" fill="#FFD900"/>
<path d="M4.44712 29.6072H3.39844V30.6559H4.44712V29.6072Z" fill="#FFD900"/>
<path d="M4.44712 28.5585H3.39844V29.6072H4.44712V28.5585Z" fill="#FFD900"/>
<path d="M4.44712 27.5109H3.39844V28.5585H4.44712V27.5109Z" fill="#FFD900"/>
<path d="M4.44712 26.4622H3.39844V27.5109H4.44712V26.4622Z" fill="#FFD900"/>
<path d="M4.44712 25.4135H3.39844V26.4622H4.44712V25.4135Z" fill="#FFD900"/>
<path d="M4.44712 24.3649H3.39844V25.4135H4.44712V24.3649Z" fill="#231F20"/>
<path d="M4.44712 23.3162H3.39844V24.3648H4.44712V23.3162Z" fill="#231F20"/>
<path d="M3.39243 35.8982H2.34375V36.9469H3.39243V35.8982Z" fill="#231F20"/>
<path d="M3.39243 34.8495H2.34375V35.8982H3.39243V34.8495Z" fill="#FFAA00"/>
<path d="M3.39243 33.8008H2.34375V34.8495H3.39243V33.8008Z" fill="#FFAA00"/>
<path d="M3.39243 32.7521H2.34375V33.8008H3.39243V32.7521Z" fill="#FFAA00"/>
<path d="M3.39243 31.7045H2.34375V32.7521H3.39243V31.7045Z" fill="#FFD900"/>
<path d="M3.39243 30.6558H2.34375V31.7045H3.39243V30.6558Z" fill="#FFD900"/>
<path d="M3.39243 29.6072H2.34375V30.6559H3.39243V29.6072Z" fill="#FFD900"/>
<path d="M3.39243 28.5585H2.34375V29.6072H3.39243V28.5585Z" fill="#FFD900"/>
<path d="M3.39243 27.5109H2.34375V28.5585H3.39243V27.5109Z" fill="#FFD900"/>
<path d="M3.39243 26.4622H2.34375V27.5109H3.39243V26.4622Z" fill="#FFD900"/>
<path d="M3.39243 25.4135H2.34375V26.4622H3.39243V25.4135Z" fill="#231F20"/>
<path d="M3.39243 24.3649H2.34375V25.4135H3.39243V24.3649Z" fill="#231F20"/>
<path d="M2.34555 34.8495H1.29688V35.8982H2.34555V34.8495Z" fill="#231F20"/>
<path d="M2.34555 33.8008H1.29688V34.8495H2.34555V33.8008Z" fill="#FFAA00"/>
<path d="M2.34555 32.7521H1.29688V33.8008H2.34555V32.7521Z" fill="#FFAA00"/>
<path d="M2.34555 31.7045H1.29688V32.7521H2.34555V31.7045Z" fill="#FFAA00"/>
<path d="M2.34555 30.6558H1.29688V31.7045H2.34555V30.6558Z" fill="#FFD900"/>
<path d="M2.34555 29.6072H1.29688V30.6559H2.34555V29.6072Z" fill="#FFD900"/>
<path d="M2.34555 28.5585H1.29688V29.6072H2.34555V28.5585Z" fill="#FFD900"/>
<path d="M2.34555 27.5109H1.29688V28.5585H2.34555V27.5109Z" fill="#231F20"/>
<path d="M2.34555 26.4622H1.29688V27.5109H2.34555V26.4622Z" fill="#231F20"/>
<path d="M1.2976 33.8008H0.25V34.8495H1.2976V33.8008Z" fill="#231F20"/>
<path d="M1.2976 32.7521H0.25V33.8008H1.2976V32.7521Z" fill="#231F20"/>
<path d="M1.2976 31.7045H0.25V32.7521H1.2976V31.7045Z" fill="#231F20"/>
<path d="M1.2976 30.6558H0.25V31.7045H1.2976V30.6558Z" fill="#231F20"/>
<path d="M1.2976 29.6072H0.25V30.6559H1.2976V29.6072Z" fill="#231F20"/>
<path d="M1.2976 28.5585H0.25V29.6072H1.2976V28.5585Z" fill="#231F20"/>
</svg>
