<svg width="28" height="38" viewBox="0 0 28 38" fill="none" xmlns="http://www.w3.org/2000/svg">
<path d="M27.1502 8.73022H26.1016V9.7789H27.1502V8.73022Z" fill="#231F20"/>
<path d="M27.1502 7.68262H26.1016V8.73022H27.1502V7.68262Z" fill="#231F20"/>
<path d="M26.1034 8.73022H25.0547V9.7789H26.1034V8.73022Z" fill="#231F20"/>
<path d="M26.1034 7.68262H25.0547V8.73022H26.1034V7.68262Z" fill="#A7D858"/>
<path d="M26.1034 6.63397H25.0547V7.68265H26.1034V6.63397Z" fill="#231F20"/>
<path d="M25.0487 8.73022H24V9.7789H25.0487V8.73022Z" fill="#231F20"/>
<path d="M25.0487 7.68262H24V8.73022H25.0487V7.68262Z" fill="#58732F"/>
<path d="M25.0487 6.63397H24V7.68265H25.0487V6.63397Z" fill="#A7D858"/>
<path d="M25.0487 5.58527H24V6.63395H25.0487V5.58527Z" fill="#231F20"/>
<path d="M25.0487 4.53662H24V5.5853H25.0487V4.53662Z" fill="#231F20"/>
<path d="M24.0007 29.6995H22.9531V30.7482H24.0007V29.6995Z" fill="#231F20"/>
<path d="M24.0007 28.6508H22.9531V29.6995H24.0007V28.6508Z" fill="#231F20"/>
<path d="M24.0007 27.6032H22.9531V28.6508H24.0007V27.6032Z" fill="#231F20"/>
<path d="M24.0007 26.5546H22.9531V27.6032H24.0007V26.5546Z" fill="#231F20"/>
<path d="M24.0007 25.5059H22.9531V26.5545H24.0007V25.5059Z" fill="#231F20"/>
<path d="M24.0007 24.4572H22.9531V25.5059H24.0007V24.4572Z" fill="#231F20"/>
<path d="M24.0007 23.4085H22.9531V24.4572H24.0007V23.4085Z" fill="#231F20"/>
<path d="M24.0007 8.73022H22.9531V9.7789H24.0007V8.73022Z" fill="#231F20"/>
<path d="M24.0007 7.68262H22.9531V8.73022H24.0007V7.68262Z" fill="#58732F"/>
<path d="M24.0007 6.63397H22.9531V7.68265H24.0007V6.63397Z" fill="#A7D858"/>
<path d="M24.0007 5.58527H22.9531V6.63395H24.0007V5.58527Z" fill="#A7D858"/>
<path d="M24.0007 4.53662H22.9531V5.5853H24.0007V4.53662Z" fill="#A7D858"/>
<path d="M24.0007 3.48901H22.9531V4.53661H24.0007V3.48901Z" fill="#231F20"/>
<path d="M22.9549 29.6995H21.9062V30.7482H22.9549V29.6995Z" fill="#231F20"/>
<path d="M22.9549 28.6508H21.9062V29.6995H22.9549V28.6508Z" fill="#74963E"/>
<path d="M22.9549 27.6032H21.9062V28.6508H22.9549V27.6032Z" fill="#74963E"/>
<path d="M22.9549 26.5546H21.9062V27.6032H22.9549V26.5546Z" fill="#74963E"/>
<path d="M22.9549 25.5059H21.9062V26.5545H22.9549V25.5059Z" fill="#74963E"/>
<path d="M22.9549 24.4572H21.9062V25.5059H22.9549V24.4572Z" fill="#74963E"/>
<path d="M22.9549 23.4085H21.9062V24.4572H22.9549V23.4085Z" fill="#74963E"/>
<path d="M22.9549 22.3609H21.9062V23.4085H22.9549V22.3609Z" fill="#231F20"/>
<path d="M22.9549 8.73022H21.9062V9.7789H22.9549V8.73022Z" fill="#231F20"/>
<path d="M22.9549 7.68262H21.9062V8.73022H22.9549V7.68262Z" fill="#58732F"/>
<path d="M22.9549 6.63397H21.9062V7.68265H22.9549V6.63397Z" fill="#58732F"/>
<path d="M22.9549 5.58527H21.9062V6.63395H22.9549V5.58527Z" fill="#58732F"/>
<path d="M22.9549 4.53662H21.9062V5.5853H22.9549V4.53662Z" fill="#A7D858"/>
<path d="M22.9549 3.48901H21.9062V4.53661H22.9549V3.48901Z" fill="#231F20"/>
<path d="M21.9081 30.7482H20.8594V31.7969H21.9081V30.7482Z" fill="#231F20"/>
<path d="M21.9081 29.6995H20.8594V30.7482H21.9081V29.6995Z" fill="#74963E"/>
<path d="M21.9081 28.6508H20.8594V29.6995H21.9081V28.6508Z" fill="#74963E"/>
<path d="M21.9081 27.6032H20.8594V28.6508H21.9081V27.6032Z" fill="#74963E"/>
<path d="M21.9081 26.5546H20.8594V27.6032H21.9081V26.5546Z" fill="#74963E"/>
<path d="M21.9081 25.5059H20.8594V26.5545H21.9081V25.5059Z" fill="#74963E"/>
<path d="M21.9081 24.4572H20.8594V25.5059H21.9081V24.4572Z" fill="#74963E"/>
<path d="M21.9081 23.4085H20.8594V24.4572H21.9081V23.4085Z" fill="#74963E"/>
<path d="M21.9081 22.3609H20.8594V23.4085H21.9081V22.3609Z" fill="#74963E"/>
<path d="M21.9081 21.3123H20.8594V22.3609H21.9081V21.3123Z" fill="#231F20"/>
<path d="M21.9081 8.73022H20.8594V9.7789H21.9081V8.73022Z" fill="#231F20"/>
<path d="M21.9081 7.68262H20.8594V8.73022H21.9081V7.68262Z" fill="#58732F"/>
<path d="M21.9081 6.63397H20.8594V7.68265H21.9081V6.63397Z" fill="#58732F"/>
<path d="M21.9081 5.58527H20.8594V6.63395H21.9081V5.58527Z" fill="#58732F"/>
<path d="M21.9081 4.53662H20.8594V5.5853H21.9081V4.53662Z" fill="#58732F"/>
<path d="M21.9081 3.48901H20.8594V4.53661H21.9081V3.48901Z" fill="#A7D858"/>
<path d="M21.9081 2.44031H20.8594V3.48899H21.9081V2.44031Z" fill="#231F20"/>
<path d="M20.8612 32.8445H19.8125V33.8932H20.8612V32.8445Z" fill="#231F20"/>
<path d="M20.8612 31.7969H19.8125V32.8445H20.8612V31.7969Z" fill="#231F20"/>
<path d="M20.8612 30.7482H19.8125V31.7969H20.8612V30.7482Z" fill="#74963E"/>
<path d="M20.8612 29.6995H19.8125V30.7482H20.8612V29.6995Z" fill="#74963E"/>
<path d="M20.8612 28.6508H19.8125V29.6995H20.8612V28.6508Z" fill="#74963E"/>
<path d="M20.8612 27.6032H19.8125V28.6508H20.8612V27.6032Z" fill="#74963E"/>
<path d="M20.8612 26.5546H19.8125V27.6032H20.8612V26.5546Z" fill="#A7D858"/>
<path d="M20.8612 25.5059H19.8125V26.5545H20.8612V25.5059Z" fill="#A7D858"/>
<path d="M20.8612 24.4572H19.8125V25.5059H20.8612V24.4572Z" fill="#A7D858"/>
<path d="M20.8612 23.4085H19.8125V24.4572H20.8612V23.4085Z" fill="#74963E"/>
<path d="M20.8612 22.3609H19.8125V23.4085H20.8612V22.3609Z" fill="#74963E"/>
<path d="M20.8612 21.3123H19.8125V22.3609H20.8612V21.3123Z" fill="#74963E"/>
<path d="M20.8612 20.2635H19.8125V21.3122H20.8612V20.2635Z" fill="#231F20"/>
<path d="M20.8612 19.2149H19.8125V20.2636H20.8612V19.2149Z" fill="#231F20"/>
<path d="M20.8612 8.73022H19.8125V9.7789H20.8612V8.73022Z" fill="#231F20"/>
<path d="M20.8612 7.68262H19.8125V8.73022H20.8612V7.68262Z" fill="#58732F"/>
<path d="M20.8612 6.63397H19.8125V7.68265H20.8612V6.63397Z" fill="#58732F"/>
<path d="M20.8612 5.58527H19.8125V6.63395H20.8612V5.58527Z" fill="#58732F"/>
<path d="M20.8612 4.53662H19.8125V5.5853H20.8612V4.53662Z" fill="#58732F"/>
<path d="M20.8612 3.48901H19.8125V4.53661H20.8612V3.48901Z" fill="#A7D858"/>
<path d="M20.8612 2.44031H19.8125V3.48899H20.8612V2.44031Z" fill="#231F20"/>
<path d="M19.8132 33.8932H18.7656V34.9419H19.8132V33.8932Z" fill="#231F20"/>
<path d="M19.8132 32.8445H18.7656V33.8932H19.8132V32.8445Z" fill="#231F20"/>
<path d="M19.8132 31.7969H18.7656V32.8445H19.8132V31.7969Z" fill="#74963E"/>
<path d="M19.8132 30.7482H18.7656V31.7969H19.8132V30.7482Z" fill="#74963E"/>
<path d="M19.8132 29.6995H18.7656V30.7482H19.8132V29.6995Z" fill="#74963E"/>
<path d="M19.8132 28.6508H18.7656V29.6995H19.8132V28.6508Z" fill="#A7D858"/>
<path d="M19.8132 27.6032H18.7656V28.6508H19.8132V27.6032Z" fill="#A7D858"/>
<path d="M19.8132 26.5546H18.7656V27.6032H19.8132V26.5546Z" fill="#A7D858"/>
<path d="M19.8132 25.5059H18.7656V26.5545H19.8132V25.5059Z" fill="#A7D858"/>
<path d="M19.8132 24.4572H18.7656V25.5059H19.8132V24.4572Z" fill="#A7D858"/>
<path d="M19.8132 23.4085H18.7656V24.4572H19.8132V23.4085Z" fill="#A7D858"/>
<path d="M19.8132 22.3609H18.7656V23.4085H19.8132V22.3609Z" fill="#A7D858"/>
<path d="M19.8132 21.3123H18.7656V22.3609H19.8132V21.3123Z" fill="#74963E"/>
<path d="M19.8132 20.2635H18.7656V21.3122H19.8132V20.2635Z" fill="#74963E"/>
<path d="M19.8132 19.2149H18.7656V20.2636H19.8132V19.2149Z" fill="#74963E"/>
<path d="M19.8132 18.1662H18.7656V19.2149H19.8132V18.1662Z" fill="#231F20"/>
<path d="M19.8132 17.1186H18.7656V18.1662H19.8132V17.1186Z" fill="#231F20"/>
<path d="M19.8132 16.0699H18.7656V17.1186H19.8132V16.0699Z" fill="#231F20"/>
<path d="M19.8132 7.68262H18.7656V8.73022H19.8132V7.68262Z" fill="#231F20"/>
<path d="M19.8132 6.63397H18.7656V7.68265H19.8132V6.63397Z" fill="#58732F"/>
<path d="M19.8132 5.58527H18.7656V6.63395H19.8132V5.58527Z" fill="#58732F"/>
<path d="M19.8132 4.53662H18.7656V5.5853H19.8132V4.53662Z" fill="#58732F"/>
<path d="M19.8132 3.48901H18.7656V4.53661H19.8132V3.48901Z" fill="#A7D858"/>
<path d="M19.8132 2.44031H18.7656V3.48899H19.8132V2.44031Z" fill="#231F20"/>
<path d="M18.7596 34.9418H17.7109V35.9905H18.7596V34.9418Z" fill="#231F20"/>
<path d="M18.7596 33.8932H17.7109V34.9419H18.7596V33.8932Z" fill="#74963E"/>
<path d="M18.7596 32.8445H17.7109V33.8932H18.7596V32.8445Z" fill="#74963E"/>
<path d="M18.7596 31.7969H17.7109V32.8445H18.7596V31.7969Z" fill="#74963E"/>
<path d="M18.7596 30.7482H17.7109V31.7969H18.7596V30.7482Z" fill="#74963E"/>
<path d="M18.7596 29.6995H17.7109V30.7482H18.7596V29.6995Z" fill="#A7D858"/>
<path d="M18.7596 28.6508H17.7109V29.6995H18.7596V28.6508Z" fill="#A7D858"/>
<path d="M18.7596 27.6032H17.7109V28.6508H18.7596V27.6032Z" fill="#A7D858"/>
<path d="M18.7596 26.5546H17.7109V27.6032H18.7596V26.5546Z" fill="#A7D858"/>
<path d="M18.7596 25.5059H17.7109V26.5545H18.7596V25.5059Z" fill="#A7D858"/>
<path d="M18.7596 24.4572H17.7109V25.5059H18.7596V24.4572Z" fill="#A7D858"/>
<path d="M18.7596 23.4085H17.7109V24.4572H18.7596V23.4085Z" fill="#A7D858"/>
<path d="M18.7596 22.3609H17.7109V23.4085H18.7596V22.3609Z" fill="#A7D858"/>
<path d="M18.7596 21.3123H17.7109V22.3609H18.7596V21.3123Z" fill="#A7D858"/>
<path d="M18.7596 20.2635H17.7109V21.3122H18.7596V20.2635Z" fill="#74963E"/>
<path d="M18.7596 19.2149H17.7109V20.2636H18.7596V19.2149Z" fill="#74963E"/>
<path d="M18.7596 18.1662H17.7109V19.2149H18.7596V18.1662Z" fill="#74963E"/>
<path d="M18.7596 17.1186H17.7109V18.1662H18.7596V17.1186Z" fill="#74963E"/>
<path d="M18.7596 16.0699H17.7109V17.1186H18.7596V16.0699Z" fill="#74963E"/>
<path d="M18.7596 15.0212H17.7109V16.0699H18.7596V15.0212Z" fill="#231F20"/>
<path d="M18.7596 13.9725H17.7109V15.0212H18.7596V13.9725Z" fill="#231F20"/>
<path d="M18.7596 7.68262H17.7109V8.73022H18.7596V7.68262Z" fill="#231F20"/>
<path d="M18.7596 6.63397H17.7109V7.68265H18.7596V6.63397Z" fill="#58732F"/>
<path d="M18.7596 5.58527H17.7109V6.63395H18.7596V5.58527Z" fill="#58732F"/>
<path d="M18.7596 4.53662H17.7109V5.5853H18.7596V4.53662Z" fill="#58732F"/>
<path d="M18.7596 3.48901H17.7109V4.53661H18.7596V3.48901Z" fill="#A7D858"/>
<path d="M18.7596 2.44031H17.7109V3.48899H18.7596V2.44031Z" fill="#231F20"/>
<path d="M17.7127 35.9905H16.6641V37.0392H17.7127V35.9905Z" fill="#231F20"/>
<path d="M17.7127 34.9418H16.6641V35.9905H17.7127V34.9418Z" fill="#74963E"/>
<path d="M17.7127 33.8932H16.6641V34.9419H17.7127V33.8932Z" fill="#74963E"/>
<path d="M17.7127 32.8445H16.6641V33.8932H17.7127V32.8445Z" fill="#74963E"/>
<path d="M17.7127 31.7969H16.6641V32.8445H17.7127V31.7969Z" fill="#74963E"/>
<path d="M17.7127 30.7482H16.6641V31.7969H17.7127V30.7482Z" fill="#A7D858"/>
<path d="M17.7127 29.6995H16.6641V30.7482H17.7127V29.6995Z" fill="#A7D858"/>
<path d="M17.7127 28.6508H16.6641V29.6995H17.7127V28.6508Z" fill="#A7D858"/>
<path d="M17.7127 27.6032H16.6641V28.6508H17.7127V27.6032Z" fill="#A7D858"/>
<path d="M17.7127 26.5546H16.6641V27.6032H17.7127V26.5546Z" fill="#A7D858"/>
<path d="M17.7127 25.5059H16.6641V26.5545H17.7127V25.5059Z" fill="#A7D858"/>
<path d="M17.7127 24.4572H16.6641V25.5059H17.7127V24.4572Z" fill="#A7D858"/>
<path d="M17.7127 23.4085H16.6641V24.4572H17.7127V23.4085Z" fill="#A7D858"/>
<path d="M17.7127 22.3609H16.6641V23.4085H17.7127V22.3609Z" fill="#A7D858"/>
<path d="M17.7127 21.3123H16.6641V22.3609H17.7127V21.3123Z" fill="#A7D858"/>
<path d="M17.7127 20.2635H16.6641V21.3122H17.7127V20.2635Z" fill="#A7D858"/>
<path d="M17.7127 19.2149H16.6641V20.2636H17.7127V19.2149Z" fill="#74963E"/>
<path d="M17.7127 18.1662H16.6641V19.2149H17.7127V18.1662Z" fill="#74963E"/>
<path d="M17.7127 17.1186H16.6641V18.1662H17.7127V17.1186Z" fill="#74963E"/>
<path d="M17.7127 16.0699H16.6641V17.1186H17.7127V16.0699Z" fill="#74963E"/>
<path d="M17.7127 15.0212H16.6641V16.0699H17.7127V15.0212Z" fill="#74963E"/>
<path d="M17.7127 13.9725H16.6641V15.0212H17.7127V13.9725Z" fill="#231F20"/>
<path d="M17.7127 12.9249H16.6641V13.9725H17.7127V12.9249Z" fill="#231F20"/>
<path d="M17.7127 11.8763H16.6641V12.925H17.7127V11.8763Z" fill="#231F20"/>
<path d="M17.7127 10.8276H16.6641V11.8763H17.7127V10.8276Z" fill="#231F20"/>
<path d="M17.7127 9.77893H16.6641V10.8276H17.7127V9.77893Z" fill="#231F20"/>
<path d="M17.7127 6.63397H16.6641V7.68265H17.7127V6.63397Z" fill="#231F20"/>
<path d="M17.7127 5.58527H16.6641V6.63395H17.7127V5.58527Z" fill="#58732F"/>
<path d="M17.7127 4.53662H16.6641V5.5853H17.7127V4.53662Z" fill="#A7D858"/>
<path d="M17.7127 3.48901H16.6641V4.53661H17.7127V3.48901Z" fill="#231F20"/>
<path d="M16.6659 35.9905H15.6172V37.0392H16.6659V35.9905Z" fill="#231F20"/>
<path d="M16.6659 34.9418H15.6172V35.9905H16.6659V34.9418Z" fill="#74963E"/>
<path d="M16.6659 33.8932H15.6172V34.9419H16.6659V33.8932Z" fill="#74963E"/>
<path d="M16.6659 32.8445H15.6172V33.8932H16.6659V32.8445Z" fill="#74963E"/>
<path d="M16.6659 31.7969H15.6172V32.8445H16.6659V31.7969Z" fill="#A7D858"/>
<path d="M16.6659 30.7482H15.6172V31.7969H16.6659V30.7482Z" fill="#A7D858"/>
<path d="M16.6659 29.6995H15.6172V30.7482H16.6659V29.6995Z" fill="#A7D858"/>
<path d="M16.6659 28.6508H15.6172V29.6995H16.6659V28.6508Z" fill="#A7D858"/>
<path d="M16.6659 27.6032H15.6172V28.6508H16.6659V27.6032Z" fill="#A7D858"/>
<path d="M16.6659 26.5546H15.6172V27.6032H16.6659V26.5546Z" fill="#A7D858"/>
<path d="M16.6659 25.5059H15.6172V26.5545H16.6659V25.5059Z" fill="#A7D858"/>
<path d="M16.6659 24.4572H15.6172V25.5059H16.6659V24.4572Z" fill="#A7D858"/>
<path d="M16.6659 23.4085H15.6172V24.4572H16.6659V23.4085Z" fill="#A7D858"/>
<path d="M16.6659 22.3609H15.6172V23.4085H16.6659V22.3609Z" fill="#A7D858"/>
<path d="M16.6659 21.3123H15.6172V22.3609H16.6659V21.3123Z" fill="#A7D858"/>
<path d="M16.6659 20.2635H15.6172V21.3122H16.6659V20.2635Z" fill="#A7D858"/>
<path d="M16.6659 19.2149H15.6172V20.2636H16.6659V19.2149Z" fill="#A7D858"/>
<path d="M16.6659 18.1662H15.6172V19.2149H16.6659V18.1662Z" fill="#A7D858"/>
<path d="M16.6659 17.1186H15.6172V18.1662H16.6659V17.1186Z" fill="#74963E"/>
<path d="M16.6659 16.0699H15.6172V17.1186H16.6659V16.0699Z" fill="#74963E"/>
<path d="M16.6659 15.0212H15.6172V16.0699H16.6659V15.0212Z" fill="#74963E"/>
<path d="M16.6659 13.9725H15.6172V15.0212H16.6659V13.9725Z" fill="#74963E"/>
<path d="M16.6659 12.9249H15.6172V13.9725H16.6659V12.9249Z" fill="#74963E"/>
<path d="M16.6659 11.8763H15.6172V12.925H16.6659V11.8763Z" fill="#74963E"/>
<path d="M16.6659 10.8276H15.6172V11.8763H16.6659V10.8276Z" fill="#74963E"/>
<path d="M16.6659 9.77893H15.6172V10.8276H16.6659V9.77893Z" fill="#74963E"/>
<path d="M16.6659 8.73022H15.6172V9.7789H16.6659V8.73022Z" fill="#231F20"/>
<path d="M16.6659 6.63397H15.6172V7.68265H16.6659V6.63397Z" fill="#231F20"/>
<path d="M16.6659 5.58527H15.6172V6.63395H16.6659V5.58527Z" fill="#58732F"/>
<path d="M16.6659 4.53662H15.6172V5.5853H16.6659V4.53662Z" fill="#A7D858"/>
<path d="M16.6659 3.48901H15.6172V4.53661H16.6659V3.48901Z" fill="#231F20"/>
<path d="M15.619 35.9905H14.5703V37.0392H15.619V35.9905Z" fill="#231F20"/>
<path d="M15.619 34.9418H14.5703V35.9905H15.619V34.9418Z" fill="#74963E"/>
<path d="M15.619 33.8932H14.5703V34.9419H15.619V33.8932Z" fill="#74963E"/>
<path d="M15.619 32.8445H14.5703V33.8932H15.619V32.8445Z" fill="#A7D858"/>
<path d="M15.619 31.7969H14.5703V32.8445H15.619V31.7969Z" fill="#A7D858"/>
<path d="M15.619 30.7482H14.5703V31.7969H15.619V30.7482Z" fill="#A7D858"/>
<path d="M15.619 29.6995H14.5703V30.7482H15.619V29.6995Z" fill="#A7D858"/>
<path d="M15.619 28.6508H14.5703V29.6995H15.619V28.6508Z" fill="#A7D858"/>
<path d="M15.619 27.6032H14.5703V28.6508H15.619V27.6032Z" fill="#A7D858"/>
<path d="M15.619 26.5546H14.5703V27.6032H15.619V26.5546Z" fill="#A7D858"/>
<path d="M15.619 25.5059H14.5703V26.5545H15.619V25.5059Z" fill="#A7D858"/>
<path d="M15.619 24.4572H14.5703V25.5059H15.619V24.4572Z" fill="#A7D858"/>
<path d="M15.619 23.4085H14.5703V24.4572H15.619V23.4085Z" fill="#A7D858"/>
<path d="M15.619 22.3609H14.5703V23.4085H15.619V22.3609Z" fill="#A7D858"/>
<path d="M15.619 21.3123H14.5703V22.3609H15.619V21.3123Z" fill="#A7D858"/>
<path d="M15.619 20.2635H14.5703V21.3122H15.619V20.2635Z" fill="#A7D858"/>
<path d="M15.619 19.2149H14.5703V20.2636H15.619V19.2149Z" fill="#A7D858"/>
<path d="M15.619 18.1662H14.5703V19.2149H15.619V18.1662Z" fill="#A7D858"/>
<path d="M15.619 17.1186H14.5703V18.1662H15.619V17.1186Z" fill="#A7D858"/>
<path d="M15.619 16.0699H14.5703V17.1186H15.619V16.0699Z" fill="#A7D858"/>
<path d="M15.619 15.0212H14.5703V16.0699H15.619V15.0212Z" fill="#A7D858"/>
<path d="M15.619 13.9725H14.5703V15.0212H15.619V13.9725Z" fill="#A7D858"/>
<path d="M15.619 12.9249H14.5703V13.9725H15.619V12.9249Z" fill="#74963E"/>
<path d="M15.619 11.8763H14.5703V12.925H15.619V11.8763Z" fill="#74963E"/>
<path d="M15.619 10.8276H14.5703V11.8763H15.619V10.8276Z" fill="#74963E"/>
<path d="M15.619 9.77893H14.5703V10.8276H15.619V9.77893Z" fill="#74963E"/>
<path d="M15.619 8.73022H14.5703V9.7789H15.619V8.73022Z" fill="#74963E"/>
<path d="M15.619 7.68262H14.5703V8.73022H15.619V7.68262Z" fill="#231F20"/>
<path d="M15.619 6.63397H14.5703V7.68265H15.619V6.63397Z" fill="#58732F"/>
<path d="M15.619 5.58527H14.5703V6.63395H15.619V5.58527Z" fill="#A7D858"/>
<path d="M15.619 4.53662H14.5703V5.5853H15.619V4.53662Z" fill="#231F20"/>
<path d="M15.619 1.39166H14.5703V2.44034H15.619V1.39166Z" fill="#231F20"/>
<path d="M15.619 0.342957H14.5703V1.39164H15.619V0.342957Z" fill="#231F20"/>
<path d="M14.5632 35.9905H13.5156V37.0392H14.5632V35.9905Z" fill="#231F20"/>
<path d="M14.5632 34.9418H13.5156V35.9905H14.5632V34.9418Z" fill="#74963E"/>
<path d="M14.5632 33.8932H13.5156V34.9419H14.5632V33.8932Z" fill="#A7D858"/>
<path d="M14.5632 32.8445H13.5156V33.8932H14.5632V32.8445Z" fill="#A7D858"/>
<path d="M14.5632 31.7969H13.5156V32.8445H14.5632V31.7969Z" fill="#A7D858"/>
<path d="M14.5632 30.7482H13.5156V31.7969H14.5632V30.7482Z" fill="#A7D858"/>
<path d="M14.5632 29.6995H13.5156V30.7482H14.5632V29.6995Z" fill="#A7D858"/>
<path d="M14.5632 28.6508H13.5156V29.6995H14.5632V28.6508Z" fill="#A7D858"/>
<path d="M14.5632 27.6032H13.5156V28.6508H14.5632V27.6032Z" fill="#A7D858"/>
<path d="M14.5632 26.5546H13.5156V27.6032H14.5632V26.5546Z" fill="#A7D858"/>
<path d="M14.5632 25.5059H13.5156V26.5545H14.5632V25.5059Z" fill="#A7D858"/>
<path d="M14.5632 24.4572H13.5156V25.5059H14.5632V24.4572Z" fill="#A7D858"/>
<path d="M14.5632 23.4085H13.5156V24.4572H14.5632V23.4085Z" fill="#A7D858"/>
<path d="M14.5632 22.3609H13.5156V23.4085H14.5632V22.3609Z" fill="#A7D858"/>
<path d="M14.5632 21.3123H13.5156V22.3609H14.5632V21.3123Z" fill="#A7D858"/>
<path d="M14.5632 20.2635H13.5156V21.3122H14.5632V20.2635Z" fill="#A7D858"/>
<path d="M14.5632 19.2149H13.5156V20.2636H14.5632V19.2149Z" fill="#A7D858"/>
<path d="M14.5632 18.1662H13.5156V19.2149H14.5632V18.1662Z" fill="#A7D858"/>
<path d="M14.5632 17.1186H13.5156V18.1662H14.5632V17.1186Z" fill="#A7D858"/>
<path d="M14.5632 16.0699H13.5156V17.1186H14.5632V16.0699Z" fill="#A7D858"/>
<path d="M14.5632 15.0212H13.5156V16.0699H14.5632V15.0212Z" fill="#A7D858"/>
<path d="M14.5632 13.9725H13.5156V15.0212H14.5632V13.9725Z" fill="#A7D858"/>
<path d="M14.5632 12.9249H13.5156V13.9725H14.5632V12.9249Z" fill="#A7D858"/>
<path d="M14.5632 11.8763H13.5156V12.925H14.5632V11.8763Z" fill="#A7D858"/>
<path d="M14.5632 10.8276H13.5156V11.8763H14.5632V10.8276Z" fill="#A7D858"/>
<path d="M14.5632 9.77893H13.5156V10.8276H14.5632V9.77893Z" fill="#74963E"/>
<path d="M14.5632 8.73022H13.5156V9.7789H14.5632V8.73022Z" fill="#74963E"/>
<path d="M14.5632 7.68262H13.5156V8.73022H14.5632V7.68262Z" fill="#74963E"/>
<path d="M14.5632 6.63397H13.5156V7.68265H14.5632V6.63397Z" fill="#231F20"/>
<path d="M14.5632 5.58527H13.5156V6.63395H14.5632V5.58527Z" fill="#231F20"/>
<path d="M14.5632 2.44031H13.5156V3.48899H14.5632V2.44031Z" fill="#231F20"/>
<path d="M14.5632 1.39166H13.5156V2.44034H14.5632V1.39166Z" fill="#A7D858"/>
<path d="M14.5632 0.342957H13.5156V1.39164H14.5632V0.342957Z" fill="#231F20"/>
<path d="M13.5174 35.9905H12.4688V37.0392H13.5174V35.9905Z" fill="#231F20"/>
<path d="M13.5174 34.9418H12.4688V35.9905H13.5174V34.9418Z" fill="#74963E"/>
<path d="M13.5174 33.8932H12.4688V34.9419H13.5174V33.8932Z" fill="#C8FA78"/>
<path d="M13.5174 32.8445H12.4688V33.8932H13.5174V32.8445Z" fill="#A7D858"/>
<path d="M13.5174 31.7969H12.4688V32.8445H13.5174V31.7969Z" fill="#A7D858"/>
<path d="M13.5174 30.7482H12.4688V31.7969H13.5174V30.7482Z" fill="#A7D858"/>
<path d="M13.5174 29.6995H12.4688V30.7482H13.5174V29.6995Z" fill="#A7D858"/>
<path d="M13.5174 28.6508H12.4688V29.6995H13.5174V28.6508Z" fill="#A7D858"/>
<path d="M13.5174 27.6032H12.4688V28.6508H13.5174V27.6032Z" fill="#A7D858"/>
<path d="M13.5174 26.5546H12.4688V27.6032H13.5174V26.5546Z" fill="#A7D858"/>
<path d="M13.5174 25.5059H12.4688V26.5545H13.5174V25.5059Z" fill="#A7D858"/>
<path d="M13.5174 24.4572H12.4688V25.5059H13.5174V24.4572Z" fill="#A7D858"/>
<path d="M13.5174 23.4085H12.4688V24.4572H13.5174V23.4085Z" fill="#A7D858"/>
<path d="M13.5174 22.3609H12.4688V23.4085H13.5174V22.3609Z" fill="#A7D858"/>
<path d="M13.5174 21.3123H12.4688V22.3609H13.5174V21.3123Z" fill="#A7D858"/>
<path d="M13.5174 20.2635H12.4688V21.3122H13.5174V20.2635Z" fill="#A7D858"/>
<path d="M13.5174 19.2149H12.4688V20.2636H13.5174V19.2149Z" fill="#A7D858"/>
<path d="M13.5174 18.1662H12.4688V19.2149H13.5174V18.1662Z" fill="#A7D858"/>
<path d="M13.5174 17.1186H12.4688V18.1662H13.5174V17.1186Z" fill="#A7D858"/>
<path d="M13.5174 16.0699H12.4688V17.1186H13.5174V16.0699Z" fill="#A7D858"/>
<path d="M13.5174 15.0212H12.4688V16.0699H13.5174V15.0212Z" fill="#A7D858"/>
<path d="M13.5174 13.9725H12.4688V15.0212H13.5174V13.9725Z" fill="#A7D858"/>
<path d="M13.5174 12.9249H12.4688V13.9725H13.5174V12.9249Z" fill="#A7D858"/>
<path d="M13.5174 11.8763H12.4688V12.925H13.5174V11.8763Z" fill="#A7D858"/>
<path d="M13.5174 10.8276H12.4688V11.8763H13.5174V10.8276Z" fill="#A7D858"/>
<path d="M13.5174 9.77893H12.4688V10.8276H13.5174V9.77893Z" fill="#A7D858"/>
<path d="M13.5174 8.73022H12.4688V9.7789H13.5174V8.73022Z" fill="#74963E"/>
<path d="M13.5174 7.68262H12.4688V8.73022H13.5174V7.68262Z" fill="#74963E"/>
<path d="M13.5174 6.63397H12.4688V7.68265H13.5174V6.63397Z" fill="#231F20"/>
<path d="M13.5174 5.58527H12.4688V6.63395H13.5174V5.58527Z" fill="#231F20"/>
<path d="M13.5174 4.53662H12.4688V5.5853H13.5174V4.53662Z" fill="#231F20"/>
<path d="M13.5174 3.48901H12.4688V4.53661H13.5174V3.48901Z" fill="#231F20"/>
<path d="M13.5174 2.44031H12.4688V3.48899H13.5174V2.44031Z" fill="#58732F"/>
<path d="M13.5174 1.39166H12.4688V2.44034H13.5174V1.39166Z" fill="#A7D858"/>
<path d="M13.5174 0.342957H12.4688V1.39164H13.5174V0.342957Z" fill="#231F20"/>
<path d="M12.4706 35.9905H11.4219V37.0392H12.4706V35.9905Z" fill="#231F20"/>
<path d="M12.4706 34.9418H11.4219V35.9905H12.4706V34.9418Z" fill="#74963E"/>
<path d="M12.4706 33.8932H11.4219V34.9419H12.4706V33.8932Z" fill="#A7D858"/>
<path d="M12.4706 32.8445H11.4219V33.8932H12.4706V32.8445Z" fill="#A7D858"/>
<path d="M12.4706 31.7969H11.4219V32.8445H12.4706V31.7969Z" fill="#A7D858"/>
<path d="M12.4706 30.7482H11.4219V31.7969H12.4706V30.7482Z" fill="#A7D858"/>
<path d="M12.4706 29.6995H11.4219V30.7482H12.4706V29.6995Z" fill="#A7D858"/>
<path d="M12.4706 28.6508H11.4219V29.6995H12.4706V28.6508Z" fill="#A7D858"/>
<path d="M12.4706 27.6032H11.4219V28.6508H12.4706V27.6032Z" fill="#A7D858"/>
<path d="M12.4706 26.5546H11.4219V27.6032H12.4706V26.5546Z" fill="#A7D858"/>
<path d="M12.4706 25.5059H11.4219V26.5545H12.4706V25.5059Z" fill="#A7D858"/>
<path d="M12.4706 24.4572H11.4219V25.5059H12.4706V24.4572Z" fill="#A7D858"/>
<path d="M12.4706 23.4085H11.4219V24.4572H12.4706V23.4085Z" fill="#A7D858"/>
<path d="M12.4706 22.3609H11.4219V23.4085H12.4706V22.3609Z" fill="#A7D858"/>
<path d="M12.4706 21.3123H11.4219V22.3609H12.4706V21.3123Z" fill="#A7D858"/>
<path d="M12.4706 20.2635H11.4219V21.3122H12.4706V20.2635Z" fill="#A7D858"/>
<path d="M12.4706 19.2149H11.4219V20.2636H12.4706V19.2149Z" fill="#A7D858"/>
<path d="M12.4706 18.1662H11.4219V19.2149H12.4706V18.1662Z" fill="#A7D858"/>
<path d="M12.4706 17.1186H11.4219V18.1662H12.4706V17.1186Z" fill="#A7D858"/>
<path d="M12.4706 16.0699H11.4219V17.1186H12.4706V16.0699Z" fill="#A7D858"/>
<path d="M12.4706 15.0212H11.4219V16.0699H12.4706V15.0212Z" fill="#A7D858"/>
<path d="M12.4706 13.9725H11.4219V15.0212H12.4706V13.9725Z" fill="#A7D858"/>
<path d="M12.4706 12.9249H11.4219V13.9725H12.4706V12.9249Z" fill="#A7D858"/>
<path d="M12.4706 11.8763H11.4219V12.925H12.4706V11.8763Z" fill="#A7D858"/>
<path d="M12.4706 10.8276H11.4219V11.8763H12.4706V10.8276Z" fill="#A7D858"/>
<path d="M12.4706 9.77893H11.4219V10.8276H12.4706V9.77893Z" fill="#A7D858"/>
<path d="M12.4706 8.73022H11.4219V9.7789H12.4706V8.73022Z" fill="#C8FA78"/>
<path d="M12.4706 7.68262H11.4219V8.73022H12.4706V7.68262Z" fill="#74963E"/>
<path d="M12.4706 6.63397H11.4219V7.68265H12.4706V6.63397Z" fill="#231F20"/>
<path d="M12.4706 5.58527H11.4219V6.63395H12.4706V5.58527Z" fill="#58732F"/>
<path d="M12.4706 4.53662H11.4219V5.5853H12.4706V4.53662Z" fill="#58732F"/>
<path d="M12.4706 3.48901H11.4219V4.53661H12.4706V3.48901Z" fill="#58732F"/>
<path d="M12.4706 2.44031H11.4219V3.48899H12.4706V2.44031Z" fill="#231F20"/>
<path d="M12.4706 1.39166H11.4219V2.44034H12.4706V1.39166Z" fill="#231F20"/>
<path d="M11.4237 35.9905H10.375V37.0392H11.4237V35.9905Z" fill="#231F20"/>
<path d="M11.4237 34.9418H10.375V35.9905H11.4237V34.9418Z" fill="#74963E"/>
<path d="M11.4237 33.8932H10.375V34.9419H11.4237V33.8932Z" fill="#A7D858"/>
<path d="M11.4237 32.8445H10.375V33.8932H11.4237V32.8445Z" fill="#C8FA78"/>
<path d="M11.4237 31.7969H10.375V32.8445H11.4237V31.7969Z" fill="#A7D858"/>
<path d="M11.4237 30.7482H10.375V31.7969H11.4237V30.7482Z" fill="#A7D858"/>
<path d="M11.4237 29.6995H10.375V30.7482H11.4237V29.6995Z" fill="#A7D858"/>
<path d="M11.4237 28.6508H10.375V29.6995H11.4237V28.6508Z" fill="#A7D858"/>
<path d="M11.4237 27.6032H10.375V28.6508H11.4237V27.6032Z" fill="#A7D858"/>
<path d="M11.4237 26.5546H10.375V27.6032H11.4237V26.5546Z" fill="#A7D858"/>
<path d="M11.4237 25.5059H10.375V26.5545H11.4237V25.5059Z" fill="#A7D858"/>
<path d="M11.4237 24.4572H10.375V25.5059H11.4237V24.4572Z" fill="#A7D858"/>
<path d="M11.4237 23.4085H10.375V24.4572H11.4237V23.4085Z" fill="#A7D858"/>
<path d="M11.4237 22.3609H10.375V23.4085H11.4237V22.3609Z" fill="#A7D858"/>
<path d="M11.4237 21.3123H10.375V22.3609H11.4237V21.3123Z" fill="#A7D858"/>
<path d="M11.4237 20.2635H10.375V21.3122H11.4237V20.2635Z" fill="#A7D858"/>
<path d="M11.4237 19.2149H10.375V20.2636H11.4237V19.2149Z" fill="#A7D858"/>
<path d="M11.4237 18.1662H10.375V19.2149H11.4237V18.1662Z" fill="#A7D858"/>
<path d="M11.4237 17.1186H10.375V18.1662H11.4237V17.1186Z" fill="#A7D858"/>
<path d="M11.4237 16.0699H10.375V17.1186H11.4237V16.0699Z" fill="#C8FA78"/>
<path d="M11.4237 15.0212H10.375V16.0699H11.4237V15.0212Z" fill="#C8FA78"/>
<path d="M11.4237 13.9725H10.375V15.0212H11.4237V13.9725Z" fill="#C8FA78"/>
<path d="M11.4237 12.9249H10.375V13.9725H11.4237V12.9249Z" fill="#C8FA78"/>
<path d="M11.4237 11.8763H10.375V12.925H11.4237V11.8763Z" fill="#A7D858"/>
<path d="M11.4237 10.8276H10.375V11.8763H11.4237V10.8276Z" fill="#C8FA78"/>
<path d="M11.4237 9.77893H10.375V10.8276H11.4237V9.77893Z" fill="#C8FA78"/>
<path d="M11.4237 8.73022H10.375V9.7789H11.4237V8.73022Z" fill="#A7D858"/>
<path d="M11.4237 7.68262H10.375V8.73022H11.4237V7.68262Z" fill="#74963E"/>
<path d="M11.4237 6.63397H10.375V7.68265H11.4237V6.63397Z" fill="#231F20"/>
<path d="M11.4237 5.58527H10.375V6.63395H11.4237V5.58527Z" fill="#231F20"/>
<path d="M11.4237 4.53662H10.375V5.5853H11.4237V4.53662Z" fill="#231F20"/>
<path d="M11.4237 3.48901H10.375V4.53661H11.4237V3.48901Z" fill="#231F20"/>
<path d="M10.3768 35.9905H9.32812V37.0392H10.3768V35.9905Z" fill="#231F20"/>
<path d="M10.3768 34.9418H9.32812V35.9905H10.3768V34.9418Z" fill="#74963E"/>
<path d="M10.3768 33.8932H9.32812V34.9419H10.3768V33.8932Z" fill="#A7D858"/>
<path d="M10.3768 32.8445H9.32812V33.8932H10.3768V32.8445Z" fill="#A7D858"/>
<path d="M10.3768 31.7969H9.32812V32.8445H10.3768V31.7969Z" fill="#C8FA78"/>
<path d="M10.3768 30.7482H9.32812V31.7969H10.3768V30.7482Z" fill="#A7D858"/>
<path d="M10.3768 29.6995H9.32812V30.7482H10.3768V29.6995Z" fill="#A7D858"/>
<path d="M10.3768 28.6508H9.32812V29.6995H10.3768V28.6508Z" fill="#A7D858"/>
<path d="M10.3768 27.6032H9.32812V28.6508H10.3768V27.6032Z" fill="#A7D858"/>
<path d="M10.3768 26.5546H9.32812V27.6032H10.3768V26.5546Z" fill="#A7D858"/>
<path d="M10.3768 25.5059H9.32812V26.5545H10.3768V25.5059Z" fill="#A7D858"/>
<path d="M10.3768 24.4572H9.32812V25.5059H10.3768V24.4572Z" fill="#A7D858"/>
<path d="M10.3768 23.4085H9.32812V24.4572H10.3768V23.4085Z" fill="#A7D858"/>
<path d="M10.3768 22.3609H9.32812V23.4085H10.3768V22.3609Z" fill="#A7D858"/>
<path d="M10.3768 21.3123H9.32812V22.3609H10.3768V21.3123Z" fill="#A7D858"/>
<path d="M10.3768 20.2635H9.32812V21.3122H10.3768V20.2635Z" fill="#A7D858"/>
<path d="M10.3768 19.2149H9.32812V20.2636H10.3768V19.2149Z" fill="#C8FA78"/>
<path d="M10.3768 18.1662H9.32812V19.2149H10.3768V18.1662Z" fill="#C8FA78"/>
<path d="M10.3768 17.1186H9.32812V18.1662H10.3768V17.1186Z" fill="#C8FA78"/>
<path d="M10.3768 16.0699H9.32812V17.1186H10.3768V16.0699Z" fill="#A7D858"/>
<path d="M10.3768 15.0212H9.32812V16.0699H10.3768V15.0212Z" fill="#A7D858"/>
<path d="M10.3768 13.9725H9.32812V15.0212H10.3768V13.9725Z" fill="#A7D858"/>
<path d="M10.3768 12.9249H9.32812V13.9725H10.3768V12.9249Z" fill="#A7D858"/>
<path d="M10.3768 11.8763H9.32812V12.925H10.3768V11.8763Z" fill="#A7D858"/>
<path d="M10.3768 10.8276H9.32812V11.8763H10.3768V10.8276Z" fill="#A7D858"/>
<path d="M10.3768 9.77893H9.32812V10.8276H10.3768V9.77893Z" fill="#A7D858"/>
<path d="M10.3768 8.73022H9.32812V9.7789H10.3768V8.73022Z" fill="#A7D858"/>
<path d="M10.3768 7.68262H9.32812V8.73022H10.3768V7.68262Z" fill="#231F20"/>
<path d="M9.32104 35.9905H8.27344V37.0392H9.32104V35.9905Z" fill="#231F20"/>
<path d="M9.32104 34.9418H8.27344V35.9905H9.32104V34.9418Z" fill="#74963E"/>
<path d="M9.32104 33.8932H8.27344V34.9419H9.32104V33.8932Z" fill="#A7D858"/>
<path d="M9.32104 32.8445H8.27344V33.8932H9.32104V32.8445Z" fill="#A7D858"/>
<path d="M9.32104 31.7969H8.27344V32.8445H9.32104V31.7969Z" fill="#C8FA78"/>
<path d="M9.32104 30.7482H8.27344V31.7969H9.32104V30.7482Z" fill="#C8FA78"/>
<path d="M9.32104 29.6995H8.27344V30.7482H9.32104V29.6995Z" fill="#C8FA78"/>
<path d="M9.32104 28.6508H8.27344V29.6995H9.32104V28.6508Z" fill="#A7D858"/>
<path d="M9.32104 27.6032H8.27344V28.6508H9.32104V27.6032Z" fill="#A7D858"/>
<path d="M9.32104 26.5546H8.27344V27.6032H9.32104V26.5546Z" fill="#A7D858"/>
<path d="M9.32104 25.5059H8.27344V26.5545H9.32104V25.5059Z" fill="#A7D858"/>
<path d="M9.32104 24.4572H8.27344V25.5059H9.32104V24.4572Z" fill="#A7D858"/>
<path d="M9.32104 23.4085H8.27344V24.4572H9.32104V23.4085Z" fill="#A7D858"/>
<path d="M9.32104 22.3609H8.27344V23.4085H9.32104V22.3609Z" fill="#A7D858"/>
<path d="M9.32104 21.3123H8.27344V22.3609H9.32104V21.3123Z" fill="#C8FA78"/>
<path d="M9.32104 20.2635H8.27344V21.3122H9.32104V20.2635Z" fill="#C8FA78"/>
<path d="M9.32104 19.2149H8.27344V20.2636H9.32104V19.2149Z" fill="#C8FA78"/>
<path d="M9.32104 18.1662H8.27344V19.2149H9.32104V18.1662Z" fill="#C8FA78"/>
<path d="M9.32104 17.1186H8.27344V18.1662H9.32104V17.1186Z" fill="#A7D858"/>
<path d="M9.32104 16.0699H8.27344V17.1186H9.32104V16.0699Z" fill="#A7D858"/>
<path d="M9.32104 15.0212H8.27344V16.0699H9.32104V15.0212Z" fill="#A7D858"/>
<path d="M9.32104 13.9725H8.27344V15.0212H9.32104V13.9725Z" fill="#A7D858"/>
<path d="M9.32104 12.9249H8.27344V13.9725H9.32104V12.9249Z" fill="#A7D858"/>
<path d="M9.32104 11.8763H8.27344V12.925H9.32104V11.8763Z" fill="#A7D858"/>
<path d="M9.32104 10.8276H8.27344V11.8763H9.32104V10.8276Z" fill="#A7D858"/>
<path d="M9.32104 9.77893H8.27344V10.8276H9.32104V9.77893Z" fill="#A7D858"/>
<path d="M9.32104 8.73022H8.27344V9.7789H9.32104V8.73022Z" fill="#231F20"/>
<path d="M8.27524 34.9418H7.22656V35.9905H8.27524V34.9418Z" fill="#231F20"/>
<path d="M8.27524 33.8932H7.22656V34.9419H8.27524V33.8932Z" fill="#A7D858"/>
<path d="M8.27524 32.8445H7.22656V33.8932H8.27524V32.8445Z" fill="#A7D858"/>
<path d="M8.27524 31.7969H7.22656V32.8445H8.27524V31.7969Z" fill="#A7D858"/>
<path d="M8.27524 30.7482H7.22656V31.7969H8.27524V30.7482Z" fill="#C8FA78"/>
<path d="M8.27524 29.6995H7.22656V30.7482H8.27524V29.6995Z" fill="#C8FA78"/>
<path d="M8.27524 28.6508H7.22656V29.6995H8.27524V28.6508Z" fill="#C8FA78"/>
<path d="M8.27524 27.6032H7.22656V28.6508H8.27524V27.6032Z" fill="#C8FA78"/>
<path d="M8.27524 26.5546H7.22656V27.6032H8.27524V26.5546Z" fill="#C8FA78"/>
<path d="M8.27524 25.5059H7.22656V26.5545H8.27524V25.5059Z" fill="#C8FA78"/>
<path d="M8.27524 24.4572H7.22656V25.5059H8.27524V24.4572Z" fill="#C8FA78"/>
<path d="M8.27524 23.4085H7.22656V24.4572H8.27524V23.4085Z" fill="#C8FA78"/>
<path d="M8.27524 22.3609H7.22656V23.4085H8.27524V22.3609Z" fill="#C8FA78"/>
<path d="M8.27524 21.3123H7.22656V22.3609H8.27524V21.3123Z" fill="#C8FA78"/>
<path d="M8.27524 20.2635H7.22656V21.3122H8.27524V20.2635Z" fill="#C8FA78"/>
<path d="M8.27524 19.2149H7.22656V20.2636H8.27524V19.2149Z" fill="#A7D858"/>
<path d="M8.27524 18.1662H7.22656V19.2149H8.27524V18.1662Z" fill="#A7D858"/>
<path d="M8.27524 17.1186H7.22656V18.1662H8.27524V17.1186Z" fill="#A7D858"/>
<path d="M8.27524 16.0699H7.22656V17.1186H8.27524V16.0699Z" fill="#A7D858"/>
<path d="M8.27524 15.0212H7.22656V16.0699H8.27524V15.0212Z" fill="#A7D858"/>
<path d="M8.27524 13.9725H7.22656V15.0212H8.27524V13.9725Z" fill="#A7D858"/>
<path d="M8.27524 12.9249H7.22656V13.9725H8.27524V12.9249Z" fill="#231F20"/>
<path d="M8.27524 11.8763H7.22656V12.925H8.27524V11.8763Z" fill="#231F20"/>
<path d="M8.27524 10.8276H7.22656V11.8763H8.27524V10.8276Z" fill="#231F20"/>
<path d="M8.27524 9.77893H7.22656V10.8276H8.27524V9.77893Z" fill="#231F20"/>
<path d="M7.22837 33.8932H6.17969V34.9419H7.22837V33.8932Z" fill="#231F20"/>
<path d="M7.22837 32.8445H6.17969V33.8932H7.22837V32.8445Z" fill="#A7D858"/>
<path d="M7.22837 31.7969H6.17969V32.8445H7.22837V31.7969Z" fill="#A7D858"/>
<path d="M7.22837 30.7482H6.17969V31.7969H7.22837V30.7482Z" fill="#A7D858"/>
<path d="M7.22837 29.6995H6.17969V30.7482H7.22837V29.6995Z" fill="#C8FA78"/>
<path d="M7.22837 28.6508H6.17969V29.6995H7.22837V28.6508Z" fill="#C8FA78"/>
<path d="M7.22837 27.6032H6.17969V28.6508H7.22837V27.6032Z" fill="#C8FA78"/>
<path d="M7.22837 26.5546H6.17969V27.6032H7.22837V26.5546Z" fill="#C8FA78"/>
<path d="M7.22837 25.5059H6.17969V26.5545H7.22837V25.5059Z" fill="#C8FA78"/>
<path d="M7.22837 24.4572H6.17969V25.5059H7.22837V24.4572Z" fill="#C8FA78"/>
<path d="M7.22837 23.4085H6.17969V24.4572H7.22837V23.4085Z" fill="#C8FA78"/>
<path d="M7.22837 22.3609H6.17969V23.4085H7.22837V22.3609Z" fill="#C8FA78"/>
<path d="M7.22837 21.3123H6.17969V22.3609H7.22837V21.3123Z" fill="#C8FA78"/>
<path d="M7.22837 20.2635H6.17969V21.3122H7.22837V20.2635Z" fill="#A7D858"/>
<path d="M7.22837 19.2149H6.17969V20.2636H7.22837V19.2149Z" fill="#A7D858"/>
<path d="M7.22837 18.1662H6.17969V19.2149H7.22837V18.1662Z" fill="#A7D858"/>
<path d="M7.22837 17.1186H6.17969V18.1662H7.22837V17.1186Z" fill="#A7D858"/>
<path d="M7.22837 16.0699H6.17969V17.1186H7.22837V16.0699Z" fill="#A7D858"/>
<path d="M7.22837 15.0212H6.17969V16.0699H7.22837V15.0212Z" fill="#231F20"/>
<path d="M7.22837 13.9725H6.17969V15.0212H7.22837V13.9725Z" fill="#231F20"/>
<path d="M6.18149 32.8445H5.13281V33.8932H6.18149V32.8445Z" fill="#231F20"/>
<path d="M6.18149 31.7969H5.13281V32.8445H6.18149V31.7969Z" fill="#A7D858"/>
<path d="M6.18149 30.7482H5.13281V31.7969H6.18149V30.7482Z" fill="#A7D858"/>
<path d="M6.18149 29.6995H5.13281V30.7482H6.18149V29.6995Z" fill="#C8FA78"/>
<path d="M6.18149 28.6508H5.13281V29.6995H6.18149V28.6508Z" fill="#C8FA78"/>
<path d="M6.18149 27.6032H5.13281V28.6508H6.18149V27.6032Z" fill="#C8FA78"/>
<path d="M6.18149 26.5546H5.13281V27.6032H6.18149V26.5546Z" fill="#C8FA78"/>
<path d="M6.18149 25.5059H5.13281V26.5545H6.18149V25.5059Z" fill="#C8FA78"/>
<path d="M6.18149 24.4572H5.13281V25.5059H6.18149V24.4572Z" fill="#C8FA78"/>
<path d="M6.18149 23.4085H5.13281V24.4572H6.18149V23.4085Z" fill="#C8FA78"/>
<path d="M6.18149 22.3609H5.13281V23.4085H6.18149V22.3609Z" fill="#C8FA78"/>
<path d="M6.18149 21.3123H5.13281V22.3609H6.18149V21.3123Z" fill="#A7D858"/>
<path d="M6.18149 20.2635H5.13281V21.3122H6.18149V20.2635Z" fill="#A7D858"/>
<path d="M6.18149 19.2149H5.13281V20.2636H6.18149V19.2149Z" fill="#A7D858"/>
<path d="M6.18149 18.1662H5.13281V19.2149H6.18149V18.1662Z" fill="#231F20"/>
<path d="M6.18149 17.1186H5.13281V18.1662H6.18149V17.1186Z" fill="#231F20"/>
<path d="M6.18149 16.0699H5.13281V17.1186H6.18149V16.0699Z" fill="#231F20"/>
<path d="M5.13354 32.8445H4.08594V33.8932H5.13354V32.8445Z" fill="#231F20"/>
<path d="M5.13354 31.7969H4.08594V32.8445H5.13354V31.7969Z" fill="#A7D858"/>
<path d="M5.13354 30.7482H4.08594V31.7969H5.13354V30.7482Z" fill="#A7D858"/>
<path d="M5.13354 29.6995H4.08594V30.7482H5.13354V29.6995Z" fill="#A7D858"/>
<path d="M5.13354 28.6508H4.08594V29.6995H5.13354V28.6508Z" fill="#A7D858"/>
<path d="M5.13354 27.6032H4.08594V28.6508H5.13354V27.6032Z" fill="#C8FA78"/>
<path d="M5.13354 26.5546H4.08594V27.6032H5.13354V26.5546Z" fill="#C8FA78"/>
<path d="M5.13354 25.5059H4.08594V26.5545H5.13354V25.5059Z" fill="#C8FA78"/>
<path d="M5.13354 24.4572H4.08594V25.5059H5.13354V24.4572Z" fill="#C8FA78"/>
<path d="M5.13354 23.4085H4.08594V24.4572H5.13354V23.4085Z" fill="#A7D858"/>
<path d="M5.13354 22.3609H4.08594V23.4085H5.13354V22.3609Z" fill="#A7D858"/>
<path d="M5.13354 21.3123H4.08594V22.3609H5.13354V21.3123Z" fill="#A7D858"/>
<path d="M5.13354 20.2635H4.08594V21.3122H5.13354V20.2635Z" fill="#231F20"/>
<path d="M5.13354 19.2149H4.08594V20.2636H5.13354V19.2149Z" fill="#231F20"/>
<path d="M4.07993 31.7969H3.03125V32.8445H4.07993V31.7969Z" fill="#231F20"/>
<path d="M4.07993 30.7482H3.03125V31.7969H4.07993V30.7482Z" fill="#231F20"/>
<path d="M4.07993 29.6995H3.03125V30.7482H4.07993V29.6995Z" fill="#A7D858"/>
<path d="M4.07993 28.6508H3.03125V29.6995H4.07993V28.6508Z" fill="#A7D858"/>
<path d="M4.07993 27.6032H3.03125V28.6508H4.07993V27.6032Z" fill="#A7D858"/>
<path d="M4.07993 26.5546H3.03125V27.6032H4.07993V26.5546Z" fill="#C8FA78"/>
<path d="M4.07993 25.5059H3.03125V26.5545H4.07993V25.5059Z" fill="#C8FA78"/>
<path d="M4.07993 24.4572H3.03125V25.5059H4.07993V24.4572Z" fill="#A7D858"/>
<path d="M4.07993 23.4085H3.03125V24.4572H4.07993V23.4085Z" fill="#A7D858"/>
<path d="M4.07993 22.3609H3.03125V23.4085H4.07993V22.3609Z" fill="#231F20"/>
<path d="M4.07993 21.3123H3.03125V22.3609H4.07993V21.3123Z" fill="#231F20"/>
<path d="M3.03305 29.6995H1.98438V30.7482H3.03305V29.6995Z" fill="#231F20"/>
<path d="M3.03305 28.6508H1.98438V29.6995H3.03305V28.6508Z" fill="#A7D858"/>
<path d="M3.03305 27.6032H1.98438V28.6508H3.03305V27.6032Z" fill="#A7D858"/>
<path d="M3.03305 26.5546H1.98438V27.6032H3.03305V26.5546Z" fill="#A7D858"/>
<path d="M3.03305 25.5059H1.98438V26.5545H3.03305V25.5059Z" fill="#A7D858"/>
<path d="M3.03305 24.4572H1.98438V25.5059H3.03305V24.4572Z" fill="#A7D858"/>
<path d="M3.03305 23.4085H1.98438V24.4572H3.03305V23.4085Z" fill="#231F20"/>
<path d="M1.98618 29.6995H0.9375V30.7482H1.98618V29.6995Z" fill="#231F20"/>
<path d="M1.98618 28.6508H0.9375V29.6995H1.98618V28.6508Z" fill="#231F20"/>
<path d="M1.98618 27.6032H0.9375V28.6508H1.98618V27.6032Z" fill="#231F20"/>
<path d="M1.98618 26.5546H0.9375V27.6032H1.98618V26.5546Z" fill="#231F20"/>
<path d="M1.98618 25.5059H0.9375V26.5545H1.98618V25.5059Z" fill="#231F20"/>
<path d="M1.98618 24.4572H0.9375V25.5059H1.98618V24.4572Z" fill="#231F20"/>
<path d="M1.98618 23.4085H0.9375V24.4572H1.98618V23.4085Z" fill="#231F20"/>
</svg>
